<svg width="24" height="24" viewBox="0 0 24 24" fill="none" xmlns="http://www.w3.org/2000/svg">
<g clip-path="url(#clip0_1073_22117)">
<rect x="24" y="24" width="24" height="24" transform="rotate(180 24 24)" fill="#E74C3C"/>
<path d="M12.3906 17.7188C12.1811 17.4679 11.8625 17.1906 11.9524 16.8226L12.1609 16.4993L12.1794 16.215C12.0178 16.3864 11.873 16.5954 11.6388 16.6791C11.4815 16.7432 11.2958 16.6972 11.1711 16.5885L11.1576 16.417C11.3247 16.3042 11.5664 16.3279 11.7042 16.1676C11.8511 16.0199 11.8794 15.7997 11.856 15.6018C11.6094 15.7286 11.4434 16.0296 11.1417 16.0422C10.9268 16.0923 10.6845 15.9515 10.6584 15.7244C10.8804 15.5948 11.1516 15.6115 11.383 15.5084C11.5266 15.4346 11.5806 15.2715 11.5463 15.1168C11.3345 15.1962 11.1434 15.3843 10.8995 15.3383C10.7073 15.3592 10.5037 15.2032 10.519 15.0039C10.6644 14.9745 10.8086 14.9537 10.9506 14.9286C11.2213 14.8603 11.433 14.6554 11.5926 14.4394C11.8179 14.1036 11.9764 13.7147 12.0069 13.3092L11.9093 13.0221C11.7166 12.9927 11.6252 13.1907 11.5266 13.3119C11.2855 13.6659 11.0677 14.0436 10.9317 14.4534C10.7341 14.4545 10.5674 14.3474 10.4052 14.2415L10.1041 14.275C9.83138 14.3948 9.54666 14.4812 9.27182 14.6039L9.57551 14.7251L9.92183 14.7725L10.1254 14.9788L10.1532 15.2784L10.0144 15.1363C9.90273 15.0178 9.70344 15.1837 9.59724 15.0513C9.4693 14.8799 9.26583 14.7977 9.07461 14.7238L8.89441 14.7099C8.72188 14.8005 8.54711 14.898 8.41541 15.0443L8.21012 15.2813L7.90964 15.3314L7.74463 15.6422C7.62492 15.4597 7.71425 15.2408 7.76708 15.0485C7.81335 14.8771 8.01097 14.8757 8.15633 14.8632C8.35604 14.8799 8.51715 14.7405 8.66697 14.6318C8.33151 14.6318 7.99954 14.6527 7.66631 14.6973L7.34842 14.5816L7 14.6054L7.18341 14.4005C7.31358 14.3546 7.45448 14.3364 7.58897 14.303C7.7491 14.2598 7.87216 14.3949 8.0185 14.4242C8.2412 14.4632 8.46768 14.4701 8.69192 14.4632C8.50628 14.3127 8.30266 14.172 8.05668 14.1608C7.92387 14.1563 7.87216 14.0131 7.75718 13.9741L7.42953 13.9462L7.59175 13.7427C7.73279 13.7288 7.87592 13.7747 8.02128 13.765L8.34852 13.8779C8.48942 14.1204 8.73275 14.2695 8.97177 14.3949L9.13622 14.374C9.45746 14.2458 9.77968 14.1273 10.0889 13.974L9.85424 13.68C10.2435 13.4751 10.6507 13.2535 10.8995 12.8772C11.0308 12.6793 11.1771 12.455 11.1488 12.2097C10.9675 12.4731 10.8249 12.8243 10.4797 12.9107L10.3094 12.7211C10.3785 12.6069 10.4928 12.5232 10.5376 12.3936C10.6077 12.264 10.6077 12.1121 10.6279 11.9672L10.4025 11.9923C10.2997 12.1623 10.256 12.3658 10.1581 12.5414C10.0159 12.7978 9.88588 13.0946 9.61425 13.2326C9.46178 13.28 9.17273 13.1908 9.24075 12.9818C9.39419 12.8075 9.63543 12.7128 9.73884 12.4884C9.85257 12.2696 10.0127 11.9867 9.86191 11.7484C9.63 11.9477 9.51014 12.2389 9.30165 12.4633C9.02891 12.7671 8.79156 13.1253 8.41109 13.3065C8.22978 13.3914 8.02449 13.4542 7.82589 13.418C7.63468 13.3942 7.44151 13.2939 7.34995 13.1211L7.45838 12.9107C7.5983 12.8564 7.74088 12.9163 7.88401 12.9207C8.12469 12.9417 8.3474 12.8218 8.5276 12.6796C8.88201 12.3535 9.12368 11.9242 9.29078 11.4811L9.225 11.4002C8.96522 11.6859 8.70237 11.9828 8.36803 12.1821C8.14643 12.3145 7.87815 12.419 7.61781 12.3465C7.41754 12.3075 7.19707 12.1626 7.19707 11.941C7.21282 11.803 7.38103 11.796 7.48555 11.8114C7.75119 11.842 8.04135 11.8684 8.28427 11.7333C8.59339 11.5591 8.80522 11.2706 9.01748 10.9947C9.11448 10.8414 9.27182 10.6936 9.24883 10.4929C8.90599 10.6685 8.65986 10.9849 8.31855 11.1661C8.06212 11.3445 7.71203 11.3933 7.42409 11.2609C7.28528 11.2051 7.18341 11.0504 7.20571 10.8985L7.35441 10.6867C7.64234 10.7006 7.92874 10.833 8.21946 10.748C8.53304 10.6337 8.7715 10.3884 8.9832 10.1403L9.10946 9.84767C8.7715 9.92014 8.4791 10.1222 8.17096 10.2658C7.99452 10.3452 7.79425 10.3507 7.60374 10.3284C7.40068 10.3019 7.21058 10.1431 7.18132 9.93542L7.32988 9.718C7.59719 9.66226 7.78993 9.9173 8.05236 9.87688C8.5014 9.86685 8.9963 9.63578 9.16507 9.19537L9.1025 9.12714C8.87059 9.16471 8.6653 9.29299 8.43827 9.35431C8.00052 9.43793 7.50465 9.34539 7.19108 9.01147L7.23735 8.65608C7.44152 8.61985 7.61294 8.76334 7.78994 8.84422C8.10561 9.01146 8.52482 9.04631 8.82474 8.82338C8.99853 8.70213 9.19058 8.53489 9.1825 8.30354C8.92118 8.34256 8.6936 8.49029 8.43284 8.52234C8.11926 8.55434 7.76917 8.54609 7.49922 8.35928C7.28627 8.22828 7.08265 7.99135 7.14258 7.72237L7.41964 7.62058C7.55301 7.7168 7.64458 7.86726 7.78994 7.95227C8.01585 8.11533 8.31312 8.13763 8.58308 8.11812C8.75952 8.09582 8.98543 8.13061 9.09706 7.95506L8.90599 7.70253C8.37835 7.61612 7.86394 7.41961 7.43107 7.10186C7.2694 6.98618 7.12571 6.83148 7.07568 6.63637C7.03484 6.45241 7.14858 6.2113 7.35219 6.20154C7.48556 6.20154 7.56402 6.32698 7.62326 6.42871C7.94673 6.96946 8.55855 7.25795 9.15532 7.38338L9.27768 7.10186C9.59182 7.2468 9.91682 7.35969 10.2418 7.47815C10.3698 7.53111 10.5119 7.58685 10.5865 7.71228C10.771 7.94085 10.6307 8.26279 10.715 8.5248L10.9866 8.71433C11.1876 8.73518 11.3802 8.5889 11.4021 8.38543C11.4369 7.90879 11.2 7.39313 10.7585 7.1799C10.4956 7.01963 10.1836 7.0029 9.88588 6.95413C9.68436 6.94019 9.63 6.66703 9.42862 6.65449C9.26416 6.64334 9.09205 6.59729 8.97177 6.47888L8.8515 6.27262L9.00661 6.23081C9.134 6.31443 9.20368 6.46913 9.34583 6.54021C9.52213 6.59461 9.70889 6.6071 9.88909 6.56808V6.44683L9.6714 6.39666L9.42304 6.5416L9.53259 6.22384C9.67404 6.14156 9.85104 6.15828 10.0039 6.12484C10.133 6.12595 10.2244 6.02037 10.3469 6.00359C10.5908 5.98129 10.8249 6.06625 11.0454 6.16804C11.3127 6.31438 11.6252 6.19591 11.9094 6.17473C11.8147 6.32106 11.6731 6.42838 11.5131 6.49527L11.4972 6.55793C11.6388 6.66107 11.7956 6.7405 11.9551 6.81437L11.7063 6.96628C11.8103 7.12098 11.9867 7.20739 12.1641 7.24641L11.9307 7.37602L12.1015 7.53769L12.322 7.56277L12.2371 7.7774L12.3966 7.78632L12.5453 7.7774L12.4608 7.56277L12.6803 7.53769L12.8529 7.37602L12.6171 7.24641C12.7967 7.20739 12.9731 7.12098 13.076 6.96628L12.8283 6.81476C12.9868 6.74095 13.143 6.66146 13.2856 6.55832L13.2676 6.49566C13.1108 6.42877 12.9677 6.32145 12.8729 6.17512C13.1588 6.19597 13.4707 6.31449 13.7374 6.16843C13.9575 6.06675 14.192 5.98168 14.4354 6.00397C14.5573 6.0207 14.6499 6.12662 14.7778 6.12523C14.9319 6.15867 15.1078 6.14195 15.251 6.22423L15.3598 6.54199L15.111 6.39705L14.8943 6.44722V6.56847C15.0745 6.60749 15.2596 6.59501 15.4377 6.5406C15.5776 6.46946 15.6494 6.31482 15.7762 6.2312L15.9315 6.27301L15.8105 6.47927C15.6891 6.59774 15.5183 6.64373 15.3544 6.65488C15.153 6.66737 15.1002 6.94058 14.8971 6.95452C14.5987 7.00335 14.2879 7.02008 14.0238 7.18029C13.584 7.39353 13.3472 7.90918 13.3809 8.38582C13.4021 8.5893 13.5943 8.73563 13.7953 8.71473L14.0675 8.52519C14.1529 8.26318 14.0103 7.94124 14.1954 7.71268C14.2711 7.58724 14.4131 7.5315 14.5405 7.47854C14.8649 7.36008 15.191 7.24719 15.5046 7.10225L15.6271 7.38377C16.2232 7.25834 16.8357 6.96985 17.159 6.4291C17.219 6.32742 17.2969 6.20193 17.4302 6.20193C17.6322 6.21197 17.7487 6.45279 17.709 6.63676C17.6571 6.83187 17.5119 6.98657 17.3507 7.10225C16.9185 7.42 16.4034 7.61651 15.8753 7.70292L15.6848 7.95484C15.7959 8.13044 16.024 8.0956 16.1994 8.1179C16.4687 8.13741 16.7666 8.11455 16.993 7.95205C17.1379 7.86709 17.2298 7.71652 17.3626 7.62036L17.6397 7.72215C17.6991 7.99113 17.496 8.22806 17.2821 8.35906C17.0131 8.54581 16.6626 8.55417 16.3496 8.52212C16.0883 8.49001 15.8612 8.34234 15.5999 8.30331C15.5911 8.53466 15.7839 8.7019 15.9587 8.82315C16.258 9.04614 16.6772 9.0113 16.993 8.844C17.1699 8.76317 17.3415 8.61962 17.5462 8.65586L17.5919 9.01124C17.2789 9.34572 16.7812 9.43771 16.3442 9.35409C16.1171 9.29277 15.9118 9.16455 15.681 9.12692L15.6174 9.19515C15.7861 9.63555 16.2809 9.8669 16.7312 9.87666C16.9931 9.91702 17.1864 9.66203 17.452 9.71778L17.6022 9.93519C17.5734 10.1428 17.3817 10.3017 17.1787 10.3282C16.9893 10.3505 16.7872 10.3449 16.6124 10.2655C16.3033 10.122 16.0109 9.91992 15.6728 9.84744L15.7987 10.1401C16.0109 10.3882 16.2494 10.6335 16.563 10.7478C16.8537 10.8327 17.1405 10.7004 17.4286 10.6864L17.5777 10.8983C17.599 11.0502 17.4983 11.2049 17.3583 11.2606C17.0714 11.393 16.7209 11.3443 16.4639 11.1659C16.1226 10.9847 15.8753 10.6683 15.534 10.4927C15.5089 10.6934 15.6691 10.8411 15.7648 10.9944C15.9778 11.2704 16.1883 11.5589 16.4982 11.7331C16.7404 11.8683 17.0317 11.8418 17.2969 11.8111C17.4003 11.7957 17.5706 11.8022 17.5854 11.9407C17.5854 12.1623 17.3649 12.3073 17.1645 12.3463C16.9037 12.4188 16.6364 12.3143 16.4138 12.1818C16.0784 11.9826 15.8182 11.6857 15.5569 11.4L15.4915 11.4808C15.6587 11.924 15.8999 12.3533 16.2548 12.6794C16.4367 12.8215 16.6583 12.9414 16.8994 12.9205C17.0425 12.916 17.1841 12.8564 17.324 12.9105L17.4323 13.1209C17.3415 13.2937 17.1482 13.3941 16.956 13.4178C16.7563 13.454 16.5521 13.3912 16.3713 13.3063C15.9913 13.1251 15.7528 12.7669 15.4801 12.4631C15.2727 12.2387 15.153 11.9474 14.9205 11.7481C14.7708 11.9865 14.9298 12.2694 15.044 12.4882C15.1476 12.7126 15.3881 12.8073 15.5428 12.9815C15.6108 13.1906 15.3206 13.2798 15.1687 13.2324C14.8971 13.0944 14.7653 12.7976 14.6255 12.5411C14.527 12.3655 14.4839 12.1621 14.3799 11.992L14.1546 11.9672C14.1741 12.1121 14.1741 12.264 14.2443 12.3936C14.2906 12.5232 14.4033 12.6069 14.473 12.7211L14.302 12.9107C13.9575 12.8243 13.8142 12.4731 13.634 12.2097C13.6041 12.455 13.7528 12.6793 13.8828 12.8772C14.1317 13.2535 14.5384 13.4751 14.9276 13.68L14.6935 13.9741C15.0022 14.1274 15.325 14.2458 15.6462 14.374L15.8105 14.395C16.049 14.2696 16.2934 14.1204 16.4328 13.8779L16.7617 13.7651C16.9065 13.7751 17.0485 13.7288 17.1918 13.7428L17.3529 13.9462L17.0241 13.9741C16.9114 14.0131 16.858 14.1567 16.7252 14.1609C16.4791 14.172 16.2766 14.3128 16.0904 14.4633C16.3157 14.47 16.5412 14.4633 16.7644 14.4243C16.9114 14.3949 17.0339 14.2598 17.1928 14.303C17.3295 14.3365 17.4694 14.3546 17.599 14.4006L17.7824 14.6054L17.4346 14.5817C17.3295 14.6207 17.2424 14.7238 17.1161 14.6974C16.784 14.6528 16.4497 14.6319 16.1155 14.6319C16.264 14.7406 16.4268 14.88 16.6261 14.8633C16.7709 14.8759 16.9691 14.8772 17.0154 15.0486C17.0682 15.241 17.1569 15.4598 17.0371 15.6423L16.8728 15.3315L16.5712 15.2813L16.367 15.0444C16.2346 14.8981 16.0594 14.8005 15.8879 14.7099L15.7077 14.7238C15.5155 14.7977 15.3135 14.8799 15.1856 15.0514C15.0794 15.1838 14.8797 15.0179 14.7692 15.1363L14.6281 15.2785L14.6581 14.9788L14.86 14.7726L15.2073 14.7252L15.5089 14.6039C15.2373 14.4813 14.9515 14.3949 14.6782 14.275L14.3771 14.2416C14.2149 14.3475 14.0484 14.4548 13.8507 14.4534C13.7157 14.0437 13.4969 13.666 13.2547 13.312C13.1588 13.1908 13.0668 12.9929 12.8729 13.0221L12.775 13.3092C12.8055 13.7148 12.9655 14.1036 13.1904 14.4395C13.3493 14.6555 13.5606 14.8604 13.8311 14.9287C13.9744 14.9538 14.1186 14.9746 14.2634 15.0039C14.2775 15.2032 14.075 15.3593 13.8828 15.3384C13.6385 15.3843 13.4473 15.1962 13.2356 15.1168C13.2018 15.2715 13.2547 15.4346 13.4 15.5084C13.6308 15.6116 13.9019 15.5948 14.124 15.7244C14.0974 15.9516 13.8551 16.0924 13.6422 16.0422C13.3384 16.0296 13.1719 15.7286 12.9263 15.6018C12.9023 15.7997 12.9318 16.0199 13.0793 16.1676C13.2154 16.3279 13.4577 16.3042 13.6248 16.4171L13.6106 16.5885C13.4871 16.6972 13.3019 16.7432 13.143 16.6791C12.91 16.5954 12.7652 16.3864 12.6041 16.215L12.6225 16.4993L12.83 16.8226C12.9192 17.1906 12.6024 17.4679 12.3906 17.7188Z" fill="#222222"/>
</g>
<defs>
<clipPath id="clip0_1073_22117">
<rect width="24" height="24" rx="2" fill="white"/>
</clipPath>
</defs>
</svg>
