<svg width="24" height="24" viewBox="0 0 24 24" fill="none" xmlns="http://www.w3.org/2000/svg">
<g clip-path="url(#clip0_1073_22093)">
<rect x="24" y="8" width="8" height="24" transform="rotate(90 24 8)" fill="#E32D3C"/>
<rect x="24" width="8" height="24" transform="rotate(90 24 0)" fill="#3498DB"/>
<rect x="24" y="16" width="8" height="24" transform="rotate(90 24 16)" fill="#2ECC71"/>
<path d="M10.9561 9C9.22788 9 7.82715 10.4007 7.82715 12.1289C7.82715 13.8571 9.22788 15.2578 10.9561 15.2578C12.0343 15.2578 12.9847 14.7122 13.5474 13.8823C13.0704 14.4071 12.3818 14.7363 11.6167 14.7363C10.1766 14.7363 9.00928 13.5691 9.00928 12.1289C9.00928 10.6888 10.1766 9.52148 11.6167 9.52148C12.3818 9.52148 13.0704 9.85067 13.5474 10.3755C12.9847 9.54559 12.0343 9 10.9561 9Z" fill="white"/>
<path d="M15.6629 13.3573L14.7659 12.9317L14.434 13.8673L14.1007 12.9322L13.2044 13.359L13.6299 12.4621L12.6943 12.1301L13.6295 11.7968L13.2026 10.9005L14.0996 11.3261L14.4315 10.3905L14.7648 11.3256L15.6611 10.8988L15.2356 11.7957L16.1712 12.1277L15.236 12.461L15.6629 13.3573Z" fill="white"/>
</g>
<defs>
<clipPath id="clip0_1073_22093">
<rect width="24" height="24" rx="2" fill="white"/>
</clipPath>
</defs>
</svg>
