<svg width="24" height="24" viewBox="0 0 24 24" fill="none" xmlns="http://www.w3.org/2000/svg">
<g clip-path="url(#clip0_1073_22077)">
<rect x="24" width="24" height="24" transform="rotate(90 24 0)" fill="#41479B"/>
<path d="M19.2188 0H5.71882C5.62502 0 5.53179 0.00257812 5.43921 0.00745312L20.9636 23.7027C21.0292 23.6796 21.0941 23.6555 21.1585 23.6299V0.370125C20.5584 0.131391 19.904 0 19.2188 0Z" fill="#FFE15A"/>
<path d="M10.3915 9.22273L10.7347 10.2517L11.8194 10.2601C11.9034 10.2607 11.9382 10.368 11.8706 10.4179L10.9981 11.0622L11.3253 12.0964C11.3507 12.1765 11.2594 12.2428 11.191 12.1939L10.3086 11.5632L9.4262 12.1939C9.35785 12.2428 9.26664 12.1766 9.29195 12.0964L9.61914 11.0622L8.7466 10.4179C8.67901 10.368 8.71384 10.2607 8.79789 10.2601L9.88253 10.2517L10.2257 9.22273C10.2522 9.14304 10.3649 9.14304 10.3915 9.22273Z" fill="#F5F5F5"/>
<path d="M8.42279 6.35011L8.76596 7.37906L9.8506 7.38745C9.93465 7.38811 9.96948 7.49536 9.90189 7.54528L9.02935 8.18963L9.35654 9.22378C9.3819 9.30389 9.29068 9.37017 9.22229 9.32133L8.33987 8.69058L7.45745 9.32133C7.3891 9.37017 7.29789 9.30389 7.3232 9.22378L7.65039 8.18963L6.77785 7.54528C6.71026 7.49536 6.74509 7.38811 6.82914 7.38745L7.91378 7.37906L8.25695 6.35011C8.28343 6.27042 8.39617 6.27042 8.42279 6.35011Z" fill="#F5F5F5"/>
<path d="M6.68839 3.43337L7.03156 4.46232L8.1162 4.47071C8.20025 4.47137 8.23508 4.57862 8.16748 4.62854L7.29495 5.27288L7.62214 6.30704C7.6475 6.38715 7.55628 6.45343 7.48789 6.40458L6.60547 5.77384L5.72295 6.40454C5.65461 6.45338 5.56334 6.38715 5.5887 6.30699L5.91589 5.27284L5.04336 4.62854C4.97576 4.57862 5.01059 4.47137 5.09464 4.47071L6.17928 4.46232L6.52245 3.43337C6.54903 3.35363 6.66176 3.35363 6.68839 3.43337Z" fill="#F5F5F5"/>
<path d="M4.68065 0.560777L5.02382 1.58973L6.10846 1.59812C6.19251 1.59878 6.22734 1.70603 6.15974 1.75595L5.28721 2.40029L5.6144 3.43445C5.63976 3.51456 5.54854 3.58084 5.48015 3.532L4.59768 2.9012L3.71526 3.53195C3.64692 3.58079 3.55565 3.51456 3.58101 3.4344L3.9082 2.40025L3.03567 1.75595C2.96807 1.70603 3.0029 1.59878 3.08695 1.59812L4.17159 1.58973L4.51476 0.560777C4.54134 0.481043 4.65407 0.481043 4.68065 0.560777Z" fill="#F5F5F5"/>
<path d="M17.7794 20.4496L18.1226 21.4786L19.2072 21.487C19.2913 21.4876 19.3261 21.5949 19.2585 21.6448L18.386 22.2892L18.7132 23.3233C18.7385 23.4034 18.6473 23.4697 18.5789 23.4209L17.6965 22.7901L16.814 23.4208C16.7457 23.4697 16.6544 23.4034 16.6798 23.3233L17.007 22.2891L16.1344 21.6448C16.0668 21.5948 16.1017 21.4876 16.1857 21.4869L17.2703 21.4785L17.6135 20.4496C17.64 20.3699 17.7528 20.3699 17.7794 20.4496Z" fill="#F5F5F5"/>
<path d="M16.0244 17.6655L16.3675 18.6944L17.4522 18.7028C17.5362 18.7035 17.571 18.8107 17.5034 18.8606L16.6309 19.505L16.9581 20.5391C16.9835 20.6192 16.8922 20.6855 16.8239 20.6367L15.9414 20.0059L15.059 20.6367C14.9907 20.6855 14.8994 20.6193 14.9248 20.5391L15.2519 19.505L14.3794 18.8606C14.3118 18.8107 14.3467 18.7035 14.4307 18.7028L15.5153 18.6944L15.8585 17.6655C15.885 17.5857 15.9978 17.5857 16.0244 17.6655Z" fill="#F5F5F5"/>
<path d="M14.1025 14.837L14.4457 15.866L15.5303 15.8744C15.6143 15.875 15.6492 15.9823 15.5816 16.0321L14.709 16.6765L15.0362 17.7106C15.0616 17.7908 14.9704 17.857 14.902 17.8082L14.0196 17.1774L13.1371 17.8082C13.0688 17.857 12.9776 17.7908 13.0029 17.7106L13.3301 16.6765L12.4575 16.0321C12.3899 15.9822 12.4248 15.875 12.5088 15.8744L13.5935 15.866L13.9366 14.837C13.9632 14.7573 14.0759 14.7573 14.1025 14.837Z" fill="#F5F5F5"/>
<path d="M12.1337 12.0528L12.4769 13.0818L13.5615 13.0902C13.6456 13.0908 13.6804 13.1981 13.6128 13.248L12.7403 13.8923L13.0675 14.9265C13.0928 15.0066 13.0016 15.0729 12.9332 15.024L12.0508 14.3933L11.1684 15.024C11.1 15.0729 11.0088 15.0066 11.0341 14.9265L11.3613 13.8923L10.4888 13.248C10.4212 13.198 10.456 13.0908 10.5401 13.0902L11.6247 13.0818L11.9679 12.0528C11.9944 11.9731 12.1072 11.9731 12.1337 12.0528Z" fill="#F5F5F5"/>
</g>
<defs>
<clipPath id="clip0_1073_22077">
<rect width="24" height="24" rx="2" fill="white"/>
</clipPath>
</defs>
</svg>
