<svg width="24" height="24" viewBox="0 0 24 24" fill="none" xmlns="http://www.w3.org/2000/svg">
<g clip-path="url(#clip0_1073_21781)">
<rect x="24" width="24" height="24" transform="rotate(90 24 0)" fill="#F5F5F5"/>
<path d="M10.7278 19.7832C11.0659 19.519 11.3597 19.4326 11.8144 19.3462C12.2692 19.2599 12.7495 19.1124 13.0014 19.0413C13.2555 18.9676 12.1479 19.3919 11.8657 19.4758C11.5883 19.5646 10.7278 19.7832 10.7278 19.7832Z" fill="#73AF00"/>
<path d="M12.5582 19.0392C12.4672 18.4416 12.6934 17.8123 13.2111 17.561C13.3324 17.9952 12.9616 18.7318 12.5582 19.0392Z" fill="#73AF00"/>
<path d="M13.4423 18.7294C13.1648 18.2293 13.6312 17.5878 13.9786 17.2756C14.1396 17.5756 13.8573 18.4708 13.4423 18.7294Z" fill="#73AF00"/>
<path d="M14.256 18.3439C13.9622 17.917 14.312 17.1705 14.6851 16.8754C14.8297 17.2974 14.6851 18.0535 14.256 18.3439Z" fill="#73AF00"/>
<path d="M15.0721 17.8074C14.8016 17.4049 14.9905 16.7804 15.3799 16.373C15.6575 16.7097 15.4195 17.4366 15.0721 17.8074Z" fill="#73AF00"/>
<path d="M15.7276 17.2707C15.5014 16.8901 15.7789 15.9803 16.1427 15.729C16.299 16.0656 16.1823 17.017 15.7276 17.2707Z" fill="#73AF00"/>
<path d="M16.2477 17.1268C16.1824 16.5828 17.0918 15.9803 17.4627 15.9975C17.423 16.4413 17.0336 16.9292 16.2477 17.1268Z" fill="#73AF00"/>
<path d="M15.7393 17.7413C16.1684 17.2829 16.9963 17.2829 17.29 17.3779C17.2131 17.6462 16.2337 18.2293 15.7393 17.7413Z" fill="#73AF00"/>
<path d="M15.1516 18.2025C15.7533 18.0342 16.1427 17.8976 16.5018 18.2879C16.2477 18.6245 15.2729 18.5245 15.1516 18.2025Z" fill="#73AF00"/>
<path d="M14.2933 18.6098C14.8693 18.2877 15.5666 18.7634 15.6715 19.039C15.0303 19.3195 14.2817 18.6805 14.2933 18.6098Z" fill="#73AF00"/>
<path d="M13.5051 19.0708C14.0299 18.8609 14.6315 19.1391 14.8693 19.4464C14.5895 19.5879 13.8572 19.7416 13.5051 19.0708Z" fill="#73AF00"/>
<path d="M12.7871 19.3075C13.3888 19.2368 13.9647 19.7149 14.0907 19.9856C13.3257 20.0637 13.0296 19.8223 12.7871 19.3075Z" fill="#73AF00"/>
<path d="M12.5932 19.7832C12.2597 19.519 11.9659 19.4326 11.5111 19.3462C11.0563 19.2599 10.576 19.1124 10.3195 19.0413C10.07 18.9676 11.1776 19.3919 11.4598 19.4758C11.7396 19.5646 12.5932 19.7832 12.5932 19.7832Z" fill="#73AF00"/>
<path d="M10.7629 19.0392C10.8585 18.4416 10.6323 17.8123 10.1099 17.561C9.9933 17.9952 10.3641 18.7318 10.7629 19.0392Z" fill="#73AF00"/>
<path d="M9.8835 18.7294C10.1657 18.2293 9.69461 17.5878 9.34717 17.2756C9.18622 17.5756 9.46847 18.4708 9.8835 18.7294Z" fill="#73AF00"/>
<path d="M9.06498 18.3439C9.36347 17.917 9.01363 17.1705 8.64052 16.8754C8.49368 17.2974 8.64056 18.0535 9.06498 18.3439Z" fill="#73AF00"/>
<path d="M8.25107 17.8074C8.51922 17.4049 8.33273 16.7804 7.94564 16.373C7.66815 16.7097 7.90599 17.4366 8.25107 17.8074Z" fill="#73AF00"/>
<path d="M7.59824 17.2707C7.82905 16.8901 7.54689 15.9803 7.18308 15.729C7.02218 16.0656 7.14348 17.017 7.59824 17.2707Z" fill="#73AF00"/>
<path d="M7.07362 17.1268C7.14357 16.5828 6.23413 15.9803 5.86328 15.9975C5.90297 16.4413 6.28552 16.9292 7.07362 17.1268Z" fill="#73AF00"/>
<path d="M7.58663 17.7413C7.15754 17.2829 6.32975 17.2829 6.03589 17.3779C6.11745 17.6462 7.09222 18.2293 7.58663 17.7413Z" fill="#73AF00"/>
<path d="M8.17446 18.2025C7.5728 18.0342 7.18336 17.8976 6.82422 18.2879C7.07372 18.6245 8.05316 18.5245 8.17446 18.2025Z" fill="#73AF00"/>
<path d="M9.02761 18.6098C8.45403 18.2877 7.75902 18.7634 7.65405 19.039C8.29531 19.3195 9.03927 18.6805 9.02761 18.6098Z" fill="#73AF00"/>
<path d="M9.81355 19.0708C9.29119 18.8609 8.69194 19.1391 8.4541 19.4464C8.73626 19.5879 9.46852 19.7416 9.81355 19.0708Z" fill="#73AF00"/>
<path d="M10.5412 19.3075C9.9349 19.2368 9.35892 19.7149 9.23535 19.9856C10.0048 20.0637 10.2987 19.8223 10.5412 19.3075Z" fill="#73AF00"/>
<path d="M4.04882 10.7569C4.04882 10.7569 3.88184 10.9847 4.1655 11.5618C4.44915 12.1389 4.24543 12.8049 4.551 13.018C4.85661 13.2311 4.56388 13.6537 4.91399 13.9352C5.26411 14.2167 6.18416 14.8645 6.81921 14.9402C7.45425 15.0159 8.07123 14.3448 8.43763 14.8402C8.80403 15.3356 8.72396 15.6848 9.06959 15.7233C9.41521 15.7619 9.41521 15.602 9.38976 15.3623C9.36431 15.1225 9.61898 14.4565 10.2047 14.4565C10.7904 14.4565 11.411 14.3836 12.3996 13.9938C13.3881 13.604 13.872 13.4176 13.9993 12.8049C14.1266 12.1922 14.4887 11.4677 15.1863 11.8033C15.8839 12.1389 15.837 11.9815 16.0515 11.8204C16.2659 11.6594 16.985 12.1253 17.1475 11.879C17.3101 11.6327 15.8752 10.4143 15.956 9.77144C16.0367 9.12861 16.2303 8.59469 16.8211 8.54197C17.412 8.48925 17.2592 7.79665 17.8704 7.4503C18.4816 7.104 18.7631 7.06442 19.2463 6.55143C19.7295 6.03843 21 5 21 5C21 5 18.5281 6.23829 18.0337 6.35147C17.5393 6.46464 17.3356 7.21053 15.9603 7.61016C14.5851 8.00975 14.5087 8.16957 13.4646 8.40934C12.5242 8.62525 10.4 8.55274 9.14353 8.13099C8.97029 8.07281 8.79809 8.21598 8.81342 8.40564C8.86513 9.04448 8.85066 10.1932 8.10888 10.3714C8.10888 10.3714 7.09783 9.58144 6.46111 9.92774C5.82443 10.274 5.37166 11.5091 4.89771 11.3178C4.42366 11.1266 4.3616 10.3338 4.04882 10.7569Z" fill="#FFC850"/>
</g>
<defs>
<clipPath id="clip0_1073_21781">
<rect width="24" height="24" rx="2" fill="white"/>
</clipPath>
</defs>
</svg>
