<svg width="24" height="24" viewBox="0 0 24 24" fill="none" xmlns="http://www.w3.org/2000/svg">
<g clip-path="url(#clip0_1073_21774)">
<rect x="24" y="24" width="24" height="24" transform="rotate(180 24 24)" fill="#D7273F"/>
<path d="M-0.206036 -0.206085C-1.31444 0.902318 -2 2.43356 -2 4.12493V19.8749C-2 21.5663 -1.31444 23.0975 -0.206036 24.2059L12 11.9999L-0.206036 -0.206085Z" fill="#41479B"/>
<path d="M-0.206055 24.206C0.902349 25.3144 2.43359 26 4.12497 26H19.8749C23.2577 26 25.9999 23.2577 25.9999 19.875V12H11.9999L-0.206055 24.206Z" fill="#FF4B55"/>
<path d="M19.8749 -2H4.12497C2.43359 -2 0.902349 -1.31444 -0.206055 -0.206036L11.9999 12H25.9999V4.12498C25.9999 0.742243 23.2577 -2 19.8749 -2Z" fill="#F5F5F5"/>
</g>
<defs>
<clipPath id="clip0_1073_21774">
<rect width="24" height="24" rx="2" fill="white"/>
</clipPath>
</defs>
</svg>
