<svg width="24" height="24" viewBox="0 0 24 24" fill="none" xmlns="http://www.w3.org/2000/svg">
<g clip-path="url(#clip0_1073_21539)">
<mask id="mask0_1073_21539" style="mask-type:luminance" maskUnits="userSpaceOnUse" x="0" y="0" width="24" height="24">
<path d="M23.2496 21.0011L23.2496 3.0011C23.2496 1.75846 22.2422 0.751099 20.9996 0.751099L2.99957 0.751098C1.75693 0.751098 0.749569 1.75846 0.749569 3.0011L0.749568 21.0011C0.749568 22.2437 1.75693 23.2511 2.99957 23.2511L20.9996 23.2511C22.2422 23.2511 23.2496 22.2437 23.2496 21.0011Z" fill="white"/>
</mask>
<g mask="url(#mask0_1073_21539)">
<path d="M23.2496 0.751099L23.2496 23.2511L11.9996 23.2511L11.9996 0.751098L23.2496 0.751099Z" fill="#CF0821"/>
<path d="M11.9996 0.751114L11.9996 23.2511L0.749569 23.2511L0.74957 0.751113L11.9996 0.751114Z" fill="white"/>
<path d="M1.77692 3.92567V5.4364H3.28759C3.28759 5.68812 3.53938 5.93994 3.79115 5.93994V7.45057H5.30172V5.93994C5.55351 5.93994 5.80529 5.68813 5.80529 5.4364H7.31596V3.92567H5.80529C5.80529 3.67395 5.5535 3.42213 5.30172 3.42213V1.9115H3.79115V3.42213C3.53936 3.42213 3.28759 3.67394 3.28759 3.92567H1.77692Z" fill="#E60D2E"/>
<path d="M1.87769 4.02633V5.33567H3.38825C3.38825 5.58738 3.64004 5.83917 3.89182 5.83917V7.3498H5.20099V5.83917C5.45278 5.83917 5.70456 5.58736 5.70456 5.33567H7.21513V4.02633H5.70456C5.70456 3.77461 5.45277 3.5228 5.20099 3.5228V2.01216H3.89182V3.5228C3.64003 3.5228 3.38825 3.7746 3.38825 4.02633H1.87769Z" fill="#96877D"/>
<path d="M1.92804 4.07671V5.28525H3.43861C3.43861 5.53697 3.6904 5.78885 3.94218 5.78885V7.29948H5.15064V5.78885C5.40243 5.78885 5.65421 5.53696 5.65421 5.28525H7.16478V4.07671H5.65421C5.65421 3.825 5.40242 3.57321 5.15064 3.57321V2.06258H3.94218V3.57321C3.69039 3.57321 3.43861 3.82502 3.43861 4.07671H1.92804Z" fill="#CCCCCC"/>
<path d="M3.84604 3.55592C3.93453 3.64442 3.91062 3.81181 3.79263 3.92981C3.67465 4.0478 3.50726 4.07171 3.41878 3.98323C3.33029 3.89474 3.3542 3.72734 3.47219 3.60934C3.59018 3.49135 3.75756 3.46743 3.84604 3.55592Z" fill="#96877D"/>
<path d="M3.40094 3.82293L3.43654 3.78729L3.57897 3.85849L3.50775 3.71607L3.54336 3.68044L3.68579 3.96529L3.40094 3.82286L3.40094 3.82293Z" fill="#D0D0D0"/>
<path d="M3.61255 3.60934L3.64816 3.57373L3.86179 3.78737L3.82619 3.82298L3.61255 3.60934Z" fill="#D0D0D0"/>
<path d="M5.674 3.98319C5.5855 4.07168 5.41811 4.04777 5.30011 3.92978C5.18212 3.81179 5.1582 3.64441 5.24669 3.55593C5.33518 3.46744 5.50258 3.49135 5.62058 3.60934C5.73857 3.72733 5.76249 3.89471 5.674 3.98319Z" fill="#96877D"/>
<path d="M5.40701 3.53809L5.44264 3.57369L5.37145 3.71612L5.51387 3.6449L5.5495 3.68051L5.26464 3.82293L5.40707 3.53809L5.40701 3.53809Z" fill="#D0D0D0"/>
<path d="M5.61857 3.75226L5.65417 3.78787L5.44053 4.0015L5.40493 3.9659L5.61857 3.75226Z" fill="#D0D0D0"/>
<path d="M5.24673 5.80771C5.15824 5.71921 5.18215 5.55182 5.30014 5.43382C5.41813 5.31583 5.58551 5.29192 5.67399 5.38041C5.76248 5.4689 5.73857 5.63629 5.62058 5.75429C5.50259 5.87228 5.33521 5.8962 5.24673 5.80771Z" fill="#96877D"/>
<path d="M5.69183 5.5407L5.65623 5.57634L5.5138 5.50514L5.58502 5.64756L5.54941 5.6832L5.40699 5.39834L5.69183 5.54077L5.69183 5.5407Z" fill="#D0D0D0"/>
<path d="M5.48022 5.75484L5.44462 5.79045L5.23098 5.57681L5.26659 5.5412L5.48022 5.75484Z" fill="#D0D0D0"/>
<path d="M3.41878 5.38044C3.50727 5.29195 3.67466 5.31586 3.79266 5.43385C3.91066 5.55184 3.93457 5.71923 3.84608 5.80771C3.75759 5.8962 3.59019 5.87228 3.47219 5.75429C3.35421 5.63631 3.33029 5.46892 3.41878 5.38044Z" fill="#96877D"/>
<path d="M3.68577 5.82554L3.65013 5.78994L3.72133 5.64751L3.57891 5.71873L3.54327 5.68313L3.82813 5.5407L3.6857 5.82555L3.68577 5.82554Z" fill="#D0D0D0"/>
<path d="M3.47421 5.61192L3.4386 5.57632L3.65224 5.36268L3.68785 5.39829L3.47421 5.61192Z" fill="#D0D0D0"/>
<path d="M4.54648 5.73863C5.13056 5.73863 5.60406 5.26513 5.60406 4.68104C5.60406 4.09696 5.13056 3.62346 4.54648 3.62346C3.96239 3.62346 3.48889 4.09696 3.48889 4.68104C3.48889 5.26513 3.96239 5.73863 4.54648 5.73863Z" stroke="#96877D" stroke-width="0.00364426"/>
<path d="M4.54649 5.48681C4.9915 5.48681 5.35226 5.12606 5.35226 4.68104C5.35226 4.23603 4.9915 3.87527 4.54649 3.87527C4.10148 3.87527 3.74072 4.23603 3.74072 4.68104C3.74072 5.12606 4.10148 5.48681 4.54649 5.48681Z" stroke="#96877D" stroke-width="0.00364426"/>
<path d="M4.14355 5.58788C4.17136 5.58788 4.1939 5.56534 4.1939 5.53753C4.1939 5.50973 4.17136 5.48718 4.14355 5.48718C4.11574 5.48718 4.0932 5.50973 4.0932 5.53753C4.0932 5.56534 4.11574 5.58788 4.14355 5.58788Z" fill="black"/>
<path d="M4.94921 5.58788C4.97702 5.58788 4.99956 5.56534 4.99956 5.53753C4.99956 5.50973 4.97702 5.48718 4.94921 5.48718C4.92141 5.48718 4.89886 5.50973 4.89886 5.53753C4.89886 5.56534 4.92141 5.58788 4.94921 5.58788Z" fill="black"/>
<path d="M4.51283 5.5377V5.5902H4.44568C4.37854 5.5902 4.37854 5.64271 4.44568 5.64271H4.51283V5.69521C4.51306 5.74961 4.57142 5.75622 4.5757 5.69977L4.57996 5.64301H4.6471C4.71423 5.64301 4.71423 5.59051 4.6471 5.59051H4.57996V5.538C4.57996 5.4855 4.51282 5.4855 4.51282 5.538L4.51283 5.5377Z" fill="black"/>
<path d="M3.56119 4.94164L3.63044 4.92513L3.62279 4.89304C3.62103 4.88568 3.61813 4.88068 3.61406 4.87803C3.61 4.87538 3.60302 4.87464 3.59314 4.87581L3.59199 4.871L3.65162 4.85678L3.65277 4.86159C3.64595 4.86331 3.64114 4.86539 3.63834 4.86785C3.63554 4.8703 3.63369 4.87321 3.6328 4.87658C3.63191 4.87995 3.63217 4.88458 3.63357 4.89047L3.64122 4.92256L3.69656 4.90937C3.70549 4.90724 3.71124 4.90528 3.71383 4.90347C3.71579 4.90209 3.71722 4.89982 3.71812 4.89668C3.71929 4.89237 3.71938 4.88814 3.71839 4.88398L3.71687 4.87762L3.72167 4.87647L3.7397 4.95208L3.73489 4.95323L3.73341 4.947C3.73167 4.93972 3.72829 4.93494 3.72326 4.93266C3.72 4.93124 3.71308 4.9318 3.70251 4.93432L3.5887 4.96144C3.57978 4.96357 3.57402 4.96554 3.57143 4.96735C3.56948 4.96873 3.56804 4.97095 3.56712 4.974C3.56593 4.97822 3.56584 4.98246 3.56685 4.9867L3.56833 4.99294L3.56352 4.99409L3.53228 4.863L3.57059 4.85208L3.57167 4.85663C3.56398 4.86084 3.55856 4.8649 3.55542 4.86881C3.55228 4.87271 3.55036 4.87706 3.54967 4.88185C3.54899 4.88663 3.54973 4.89362 3.55192 4.9028L3.56119 4.94164ZM3.51658 4.62917C3.51791 4.6057 3.52796 4.58587 3.54676 4.56967C3.56555 4.55347 3.58828 4.54612 3.61495 4.54763C3.64242 4.54917 3.66474 4.55913 3.6819 4.57748C3.69906 4.59584 3.70694 4.61733 3.70556 4.64196C3.70415 4.66685 3.69413 4.68727 3.67548 4.7032C3.65684 4.71914 3.63347 4.72632 3.60538 4.72474C3.57666 4.72312 3.55379 4.71202 3.53675 4.69144C3.52198 4.67357 3.51525 4.65282 3.51658 4.62917ZM3.52618 4.63225C3.52526 4.64843 3.53053 4.66175 3.54198 4.6722C3.55623 4.68522 3.57776 4.69255 3.60656 4.69417C3.63608 4.69583 3.65914 4.6908 3.67577 4.67907C3.6884 4.67006 3.69517 4.6576 3.69607 4.64169C3.69702 4.62471 3.69119 4.61031 3.67857 4.5985C3.66595 4.58668 3.64537 4.57997 3.61683 4.57837C3.58589 4.57662 3.56248 4.58141 3.54659 4.59274C3.53395 4.60183 3.52715 4.61501 3.52618 4.63225ZM3.78853 4.30153L3.77133 4.34672L3.67038 4.37388C3.66893 4.37819 3.6677 4.38168 3.66668 4.38434C3.66627 4.38542 3.6658 4.38658 3.66529 4.38781C3.66477 4.38904 3.66422 4.39031 3.66363 4.39161L3.71281 4.41033C3.72346 4.41439 3.73052 4.41574 3.73398 4.41439C3.73885 4.41263 3.74249 4.40858 3.74489 4.40225L3.74741 4.39564L3.75203 4.3974L3.72442 4.46992L3.7198 4.46816L3.72223 4.46179C3.72495 4.45464 3.72457 4.44863 3.72108 4.44378C3.71917 4.44105 3.71338 4.43785 3.70373 4.43417L3.59439 4.39255C3.58374 4.38849 3.57668 4.38714 3.57321 4.38849C3.56831 4.39034 3.56465 4.39447 3.56221 4.40087L3.55978 4.40724L3.55516 4.40548L3.57864 4.34382C3.58548 4.32584 3.59184 4.31309 3.5977 4.30556C3.60357 4.29803 3.61116 4.29263 3.62045 4.28935C3.62975 4.28608 3.63927 4.2863 3.649 4.29C3.6594 4.29396 3.66714 4.30079 3.67222 4.31049C3.67729 4.32018 3.6787 4.33275 3.67644 4.34818L3.73831 4.33172C3.7525 4.32797 3.76252 4.32393 3.76837 4.31958C3.77421 4.31523 3.77939 4.30863 3.78391 4.29977L3.78853 4.30153ZM3.65577 4.38862C3.65637 4.38704 3.65691 4.38567 3.6574 4.38452C3.65788 4.38337 3.65827 4.38242 3.65855 4.38168C3.6647 4.36553 3.66584 4.35203 3.66197 4.34117C3.6581 4.33031 3.65075 4.32283 3.63993 4.31871C3.62937 4.31469 3.61952 4.31472 3.61038 4.31882C3.60125 4.32292 3.59461 4.33041 3.59046 4.34132C3.58862 4.34614 3.58692 4.35298 3.58537 4.36182L3.65577 4.38862ZM4.04115 3.78864L4.07615 3.83408L4.07223 3.83662C4.06052 3.82722 4.04957 3.82153 4.03937 3.81955C4.02466 3.81666 4.01021 3.81982 3.99601 3.82901C3.97666 3.84155 3.9669 3.85874 3.96673 3.8806C3.96666 3.899 3.97241 3.91713 3.98398 3.93499C3.99337 3.94949 4.00474 3.9609 4.01809 3.96923C4.03144 3.97755 4.04446 3.98156 4.05714 3.98125C4.06983 3.98094 4.08095 3.97768 4.09052 3.97148C4.09612 3.96785 4.10108 3.96363 4.10539 3.95883C4.10971 3.95402 4.11339 3.94866 4.11646 3.94275L4.088 3.8988C4.08306 3.89118 4.07925 3.88656 4.07657 3.88496C4.07389 3.88336 4.07093 3.88273 4.0677 3.88306C4.06448 3.8834 4.0598 3.88556 4.05367 3.88953L4.05091 3.88527L4.10977 3.84715L4.11252 3.85141L4.10972 3.85322C4.10389 3.857 4.10115 3.86153 4.1015 3.86682C4.1018 3.87056 4.10458 3.8765 4.10986 3.88464L4.13999 3.93116C4.1344 3.94136 4.12812 3.95026 4.12115 3.95785C4.11419 3.96543 4.10558 3.97254 4.09534 3.97918C4.06597 3.9982 4.03757 4.00323 4.01012 3.99427C3.98954 3.98755 3.97327 3.97496 3.96131 3.9565C3.95265 3.94313 3.94756 3.92823 3.94605 3.91181C3.94424 3.8923 3.94744 3.87431 3.95566 3.85785C3.96258 3.84413 3.97363 3.83236 3.9888 3.82254C3.99433 3.81895 3.99965 3.81615 4.00475 3.81412C4.00985 3.81208 4.01754 3.80992 4.02782 3.80761C4.03302 3.80646 4.03634 3.80543 4.03776 3.80452C4.03918 3.80359 4.03997 3.80216 4.04013 3.80019C4.04029 3.79823 4.03925 3.79527 4.037 3.79132L4.04115 3.78864ZM4.33606 3.80906L4.26829 3.82708L4.26376 3.85786C4.26264 3.86543 4.26253 3.8709 4.26342 3.87425C4.26413 3.87692 4.26603 3.87893 4.2691 3.88028C4.27218 3.88162 4.27801 3.88148 4.28661 3.87984L4.28787 3.88461L4.23276 3.89927L4.23149 3.89449C4.23846 3.89126 4.24275 3.88832 4.24435 3.88568C4.24764 3.88039 4.25027 3.8707 4.25224 3.85664L4.27551 3.69621L4.28002 3.69501L4.37966 3.82441C4.38768 3.83481 4.39415 3.84122 4.39908 3.84364C4.40401 3.84606 4.4101 3.84654 4.41736 3.84507L4.41863 3.84984L4.34957 3.8682L4.3483 3.86343C4.35518 3.86123 4.35959 3.85882 4.36151 3.85618C4.36344 3.85355 4.36402 3.85082 4.36327 3.84798C4.36226 3.84419 4.35895 3.83867 4.35334 3.83141L4.33606 3.80906ZM4.3299 3.80047L4.28141 3.73763L4.26975 3.81646L4.3299 3.80047ZM4.64965 3.79953L4.65402 3.80063L4.63662 3.84914L4.49649 3.84369L4.49669 3.83875L4.5035 3.83902C4.51115 3.83932 4.51672 3.83704 4.5202 3.83219C4.52218 3.82941 4.52337 3.82286 4.52377 3.81254L4.52832 3.69576C4.52876 3.68446 4.52779 3.67734 4.52541 3.6744C4.52209 3.67035 4.517 3.66819 4.51015 3.66792L4.50335 3.66766L4.50355 3.66272L4.58549 3.66591L4.58529 3.67085C4.57569 3.67038 4.56891 3.67101 4.56497 3.67273C4.56103 3.67445 4.55829 3.6767 4.55675 3.67949C4.55522 3.68228 4.55424 3.68906 4.55382 3.69983L4.5494 3.81354C4.5491 3.82092 4.54963 3.82602 4.55094 3.82883C4.55194 3.83074 4.55353 3.83219 4.55572 3.83316C4.55791 3.83414 4.56483 3.83485 4.57649 3.83531L4.5897 3.83582C4.60358 3.83636 4.61336 3.83572 4.61905 3.83389C4.62473 3.83206 4.62999 3.82864 4.63482 3.82361C4.63965 3.81859 4.64458 3.81056 4.64965 3.79953ZM4.89084 3.86407L4.89473 3.86634L4.86459 3.90814L4.73144 3.86411L4.73299 3.85942L4.73946 3.86156C4.74673 3.86396 4.75271 3.86332 4.7574 3.85962C4.76007 3.8575 4.76303 3.85154 4.76627 3.84173L4.80296 3.73077C4.80651 3.72004 4.80755 3.71292 4.80608 3.70944C4.80401 3.70463 4.79973 3.70115 4.79322 3.69899L4.78675 3.69685L4.7883 3.69216L4.86616 3.71791L4.86461 3.7226C4.85551 3.7195 4.84883 3.71822 4.84456 3.71878C4.8403 3.71934 4.83704 3.72076 4.83479 3.72301C4.83255 3.72527 4.82973 3.73151 4.82635 3.74174L4.79062 3.84978C4.7883 3.8568 4.78738 3.86184 4.78787 3.86491C4.7883 3.86702 4.78943 3.86885 4.79126 3.87039C4.7931 3.87194 4.79955 3.87454 4.81062 3.8782L4.82318 3.88235C4.83637 3.88671 4.84595 3.8888 4.85191 3.88862C4.85788 3.88844 4.86388 3.8866 4.86991 3.88311C4.87595 3.87962 4.88292 3.87327 4.89084 3.86407ZM5.08522 3.967L5.02798 3.9265L5.00144 3.94273C4.99491 3.94672 4.99064 3.95013 4.98863 3.95297C4.98704 3.95522 4.98671 3.95796 4.98764 3.96118C4.98858 3.96441 4.99242 3.9688 4.99919 3.97435L4.99633 3.97838L4.94978 3.94543L4.95264 3.9414C4.95958 3.94468 4.96459 3.94609 4.96764 3.94564C4.97381 3.94477 4.98293 3.94059 4.995 3.9331L5.13311 3.84824L5.13693 3.85094L5.10135 4.01033C5.0985 4.02315 5.09772 4.03222 5.09901 4.03756C5.10031 4.04289 5.10384 4.04788 5.10962 4.05251L5.10676 4.05655L5.04844 4.01527L5.0513 4.01123C5.05739 4.01511 5.06206 4.01694 5.06532 4.01674C5.06857 4.01653 5.07105 4.01523 5.07275 4.01283C5.07501 4.00963 5.07713 4.00355 5.07911 3.99459L5.08522 3.967ZM5.08788 3.95678L5.10509 3.87929L5.03708 3.92082L5.08788 3.95678ZM5.30266 3.99636L5.33193 4.03584L5.28874 4.20568L5.37264 4.14349C5.38159 4.13686 5.38642 4.13172 5.38716 4.12808C5.3882 4.1232 5.3866 4.1179 5.38236 4.11218L5.37862 4.10714L5.38259 4.1042L5.42013 4.15484L5.41616 4.15778L5.41234 4.15263C5.40778 4.14648 5.40269 4.1435 5.39706 4.14368C5.3936 4.1438 5.3878 4.14688 5.37964 4.15293L5.257 4.24384L5.25413 4.23997L5.3002 4.0572L5.21061 4.12361C5.20166 4.13023 5.1968 4.13534 5.19601 4.13891C5.19502 4.14386 5.19662 4.14916 5.20081 4.15481L5.20463 4.15996L5.20066 4.1629L5.16312 4.11225L5.16709 4.10931L5.17083 4.11435C5.17544 4.12058 5.18056 4.1236 5.18619 4.12342C5.18965 4.12329 5.19545 4.12021 5.20361 4.11416L5.30479 4.03916C5.3066 4.03129 5.30748 4.02567 5.30743 4.02232C5.3074 4.01898 5.30648 4.01469 5.30472 4.00946C5.30382 4.00691 5.30181 4.00352 5.29868 3.9993L5.30266 3.99636ZM5.53101 4.41717L5.49164 4.43323L5.48995 4.42844C5.49668 4.42502 5.50127 4.42198 5.50373 4.41932C5.50767 4.41499 5.51004 4.41026 5.51082 4.40512C5.51159 4.39998 5.51075 4.39389 5.50824 4.38684L5.49973 4.36279L5.36929 4.40894C5.35879 4.41265 5.35265 4.4161 5.35085 4.41929C5.34845 4.42373 5.34842 4.42926 5.35078 4.43589L5.35287 4.44181L5.34821 4.44346L5.3226 4.37106L5.32726 4.36941L5.3294 4.37545C5.33195 4.38267 5.33594 4.38702 5.34138 4.3885C5.34472 4.38939 5.35117 4.38815 5.36074 4.38476L5.49119 4.33861L5.48393 4.31809C5.48111 4.31011 5.47851 4.30465 5.47615 4.30171C5.47301 4.29791 5.46863 4.29526 5.463 4.29376C5.45736 4.29225 5.45058 4.29258 5.44265 4.29472L5.44096 4.28994L5.48172 4.27778L5.53101 4.41717ZM5.38765 4.73841L5.38514 4.69013L5.46653 4.62451C5.46611 4.61999 5.46583 4.6163 5.46568 4.61346C5.46561 4.6123 5.46558 4.61106 5.46555 4.60972C5.46553 4.60838 5.46552 4.607 5.46553 4.60557L5.41298 4.6083C5.4016 4.6089 5.39459 4.61051 5.39197 4.61314C5.38823 4.61672 5.38654 4.62189 5.38689 4.62865L5.38726 4.63572L5.38232 4.63599L5.37829 4.55849L5.38323 4.55823L5.38358 4.56503C5.38398 4.57268 5.38675 4.57801 5.3919 4.58105C5.39476 4.58277 5.40134 4.58336 5.41166 4.58283L5.5285 4.57675C5.53988 4.57616 5.54688 4.57455 5.54951 4.57192C5.55324 4.56824 5.55493 4.56299 5.55458 4.55614L5.55422 4.54934L5.55916 4.54907L5.56258 4.61496C5.56358 4.63417 5.56292 4.6484 5.56059 4.65766C5.55826 4.66692 5.55351 4.67492 5.54632 4.68167C5.53914 4.68842 5.53035 4.69207 5.51994 4.69261C5.50883 4.69319 5.49899 4.69006 5.49044 4.68324C5.48188 4.67642 5.47551 4.66549 5.47134 4.65046L5.4214 4.69051C5.40993 4.69966 5.4024 4.70741 5.3988 4.71375C5.39521 4.72009 5.39313 4.72822 5.39258 4.73815L5.38765 4.73841ZM5.47394 4.60513C5.47404 4.60682 5.47408 4.60829 5.47411 4.60954C5.47413 4.61078 5.47418 4.61181 5.47421 4.61261C5.47511 4.62986 5.47952 4.64267 5.48744 4.65104C5.49536 4.65941 5.50511 4.6633 5.51667 4.6627C5.52796 4.66211 5.53696 4.6581 5.54366 4.65066C5.55036 4.64322 5.55341 4.63368 5.5528 4.62203C5.55254 4.61687 5.55133 4.60994 5.54918 4.60122L5.47394 4.60513ZM5.5236 4.97769L5.50757 5.0388L5.50279 5.03754L5.50367 5.03418C5.50426 5.03194 5.50412 5.02841 5.50327 5.02359C5.50242 5.01876 5.5006 5.0141 5.49783 5.00959C5.49505 5.00509 5.49016 4.99916 5.48317 4.9918L5.42772 4.9321L5.3838 4.92057C5.37303 4.91775 5.366 4.91719 5.36269 4.9189C5.35822 4.92122 5.35505 4.92592 5.3532 4.93298L5.35171 4.93866L5.34693 4.93741L5.36645 4.863L5.37123 4.86425L5.3696 4.87045C5.36766 4.87786 5.36852 4.8837 5.37218 4.88798C5.37444 4.8906 5.38048 4.89319 5.3903 4.89577L5.43177 4.90665L5.51776 4.87784C5.52786 4.87442 5.53426 4.87198 5.53694 4.87052C5.53962 4.86905 5.54331 4.86554 5.548 4.85995C5.54931 4.85846 5.5504 4.85607 5.55125 4.8528L5.55603 4.85406L5.53637 4.92899L5.53159 4.92773L5.53261 4.92386C5.53367 4.91981 5.5337 4.91584 5.53271 4.91194C5.53171 4.90804 5.52931 4.90559 5.52552 4.9046C5.52242 4.90378 5.51614 4.90494 5.50666 4.90807L5.44061 4.92982L5.4856 4.97835C5.49234 4.98564 5.49769 4.98981 5.50165 4.99085C5.50406 4.99148 5.50638 4.99142 5.5086 4.99068C5.51082 4.98993 5.51278 4.98853 5.51446 4.98649C5.51615 4.98444 5.5176 4.9811 5.51882 4.97645L5.5236 4.97769Z" fill="black"/>
<path d="M5.12122 4.83503C5.13888 4.83056 5.16805 4.83418 5.16805 4.83418C5.16805 4.83418 5.17061 4.84631 5.16294 4.85036C5.17146 4.85525 5.20211 4.85376 5.20211 4.85376C5.20211 4.85376 5.19019 4.86292 5.18423 4.86653C5.1953 4.8676 5.20892 4.88186 5.20892 4.88186C5.20892 4.88186 5.18338 4.88612 5.17231 4.88016C5.17912 4.89378 5.17827 4.9057 5.17827 4.9057C5.17827 4.9057 5.13697 4.89549 5.12207 4.86824" fill="#96877D"/>
<path d="M5.12122 4.83503C5.13888 4.83056 5.16805 4.83418 5.16805 4.83418C5.16805 4.83418 5.17061 4.84631 5.16294 4.85036C5.17146 4.85525 5.20211 4.85376 5.20211 4.85376C5.20211 4.85376 5.19019 4.86292 5.18423 4.86653C5.1953 4.8676 5.20892 4.88186 5.20892 4.88186C5.20892 4.88186 5.18338 4.88612 5.17231 4.88016C5.17912 4.89378 5.17827 4.9057 5.17827 4.9057C5.17827 4.9057 5.13697 4.89549 5.12207 4.86824" stroke="black" stroke-width="0.00143927"/>
<path d="M5.05012 4.81107C5.04011 4.83576 4.96667 4.78978 4.96667 4.78978C4.96667 4.78978 4.99903 4.84108 5.04757 4.84683" fill="#96877D"/>
<path d="M5.05012 4.81107C5.04011 4.83576 4.96667 4.78978 4.96667 4.78978C4.96667 4.78978 4.99903 4.84108 5.04757 4.84683" stroke="black" stroke-width="0.00143927"/>
<path d="M4.13725 5.2825H4.99726L5.06368 5.22971L4.95298 5.1701L4.78268 5.1122L4.71456 5.07474L4.58854 5.08155L4.48296 5.13775L4.3382 5.15478L4.30414 5.19395L4.19685 5.20246L4.02826 5.19906L4.30925 5.24334L4.07765 5.23141L4.13725 5.2825Z" fill="#96877D" stroke="black" stroke-width="0.00143927"/>
<path d="M4.59847 5.03576C4.49076 4.97786 4.45925 5.12048 4.41284 5.15497C4.47543 5.16561 4.52268 5.10686 4.57633 5.07833C4.61701 5.1891 4.68106 5.1158 4.68106 5.1158C4.68106 5.1158 4.7479 5.22181 4.83689 5.1737C4.86115 5.19201 4.88797 5.1754 4.88797 5.1754C4.88797 5.1754 4.92033 5.18136 4.92714 5.16688C4.94417 5.17285 4.96291 5.15156 4.96291 5.15156C4.96291 5.15156 4.99995 5.15198 5.00719 5.13283C5.06211 5.14262 5.13491 5.02043 5.13491 5.02043L5.15705 4.97785L5.1894 4.97104C5.1894 4.97104 5.19153 4.94975 5.17408 4.95061C5.17365 4.93783 5.16258 4.93102 5.14683 4.93358C5.14981 4.92591 5.13831 4.91995 5.13831 4.91995C5.10766 4.92762 5.10596 5.0051 5.10596 5.0051C5.10596 5.0051 5.05231 5.04597 5.03273 5.05619C5.03188 5.01191 4.9578 4.95188 4.97312 4.92335C4.98845 4.89483 5.03656 4.96721 5.07871 4.95401C5.12086 4.94081 5.14157 4.88598 5.14342 4.84331C5.1315 4.81436 5.10255 4.76668 5.10255 4.76668L5.0753 4.76498L5.05146 4.70708C5.05146 4.70708 5.00122 4.73986 5.00207 4.76838C5.00293 4.79691 5.05487 4.82118 5.05487 4.82118C5.05487 4.82118 5.02492 4.8399 4.99697 4.8314C4.99441 4.86035 5.03103 4.85481 5.04465 4.85524C5.05146 4.8761 5.0719 4.88759 5.0719 4.88759C5.0719 4.88759 5.08467 4.91952 5.05146 4.91654C5.01826 4.91356 4.97908 4.83705 4.93226 4.87227C4.88244 4.90973 4.95439 4.97785 4.95439 4.97785C4.95439 4.97785 4.91054 5.00084 4.88457 5.0596C4.77856 4.97019 4.7164 5.01192 4.59847 5.03576Z" fill="#96877D" stroke="black" stroke-width="0.00143927"/>
<path d="M4.44358 4.88422C4.48786 4.92594 4.45698 4.9953 4.47424 5.00854C4.49254 5.02259 4.51852 5.00173 4.51852 5.00173C4.56492 5.01408 4.64794 4.98811 4.64794 4.98811C4.68448 5.00854 4.67006 4.97839 4.69222 4.97959C4.71181 5.02983 4.77737 5.02046 4.77737 5.02046C4.77737 5.02046 4.71734 4.95915 4.6803 4.94213C4.65178 4.95916 4.56875 4.96171 4.55428 4.95916C4.53815 4.95631 4.54832 4.93659 4.54066 4.9251C4.57118 4.89538 4.54704 4.82164 4.53044 4.79397C4.46277 4.74889 4.38193 4.82613 4.44358 4.88422Z" fill="#96877D" stroke="black" stroke-width="0.00143927"/>
<path d="M4.1473 4.75935C4.0916 4.7744 3.99497 4.68739 3.94981 4.72081C3.90465 4.75423 3.92573 4.83641 3.95583 4.87736C3.98524 4.91736 3.91278 4.93185 3.89321 4.95563C3.87482 4.97799 3.89924 5.0038 3.89924 5.0038L3.91971 5.01704L3.91609 5.04715L3.92693 5.08327C3.92693 5.08327 3.93687 5.092 3.94018 5.08086C3.94951 5.0902 3.94116 5.11718 3.96426 5.1206C3.95599 5.10332 3.97028 5.05558 3.97028 5.05558C3.97028 5.05558 4.01062 5.05859 4.02086 5.04113C4.03109 5.02367 4.01123 4.98573 4.01123 4.98573H4.02327C4.00972 4.9764 4.0052 4.94841 4.0052 4.94841C4.0052 4.94841 4.0612 4.93064 4.0606 4.8882C4.05999 4.84575 3.96968 4.80059 4.00279 4.77861C4.03952 4.75423 4.10335 4.84184 4.15814 4.80149C4.21236 4.76157 4.1774 4.80029 4.1774 4.80029C4.1774 4.80029 4.20219 4.74451 4.1473 4.75935Z" fill="#96877D" stroke="black" stroke-width="0.00143927"/>
<path d="M4.43662 4.16307C4.36211 4.13199 4.2099 4.13007 4.12497 4.08813C4.08771 4.09048 4.07111 4.11985 4.06962 4.13156C4.03066 4.12965 4.00427 4.19096 4.01001 4.20309C3.93913 4.17435 3.90613 4.28653 3.92912 4.30953C3.86866 4.31208 3.87611 4.38935 3.87037 4.41085C3.851 4.4579 3.87468 4.47373 3.91294 4.45683C3.91869 4.47727 3.91064 4.48872 3.89336 4.4926C3.99829 4.61268 4.0576 4.4187 4.14966 4.41937C4.26459 4.38572 4.30974 4.32911 4.30974 4.32911L4.35487 4.33507L4.43662 4.16307Z" fill="#96877D" stroke="black" stroke-width="0.00143927"/>
<path d="M4.53281 4.18692C4.59348 4.18692 4.64265 4.13774 4.64265 4.07708C4.64265 4.01642 4.59348 3.96724 4.53281 3.96724C4.47215 3.96724 4.42297 4.01642 4.42297 4.07708C4.42297 4.13774 4.47215 4.18692 4.53281 4.18692Z" fill="#96877D" stroke="black" stroke-width="0.00143927"/>
<path d="M4.33959 4.94205C4.27147 4.9297 4.15865 4.85903 4.14716 4.76664C4.21059 4.51758 4.53783 4.64764 4.56604 4.46031C4.55885 4.33672 4.58098 4.21438 4.64952 4.11098C4.68145 4.07054 4.72275 4.05989 4.72275 4.05989C4.72275 4.05989 4.73015 4.08627 4.71935 4.10417C4.77342 4.09821 4.8475 4.12844 4.89816 4.13142C4.91306 4.16164 4.91178 4.17271 4.90838 4.19102C4.90497 4.20933 4.88454 4.20465 4.88454 4.20465C4.87132 4.21718 4.85543 4.22994 4.81982 4.22338C4.793 4.24382 4.73638 4.24892 4.73638 4.24892C4.73638 4.24892 4.85474 4.37367 4.83515 4.41241C4.85984 4.42391 4.89646 4.47883 4.89646 4.47883C4.89646 4.47883 4.97735 4.43625 5.00374 4.39708C5.05058 4.39708 5.12721 4.44604 5.16553 4.45158C5.21236 4.48947 5.25919 4.52821 5.25919 4.52821C5.25919 4.52821 5.20342 4.56483 5.17915 4.51629C5.14978 4.51885 5.08634 4.4486 4.99864 4.47031C4.99608 4.54822 4.91008 4.60315 4.91008 4.60315C4.91008 4.60315 4.99035 4.59191 5.0344 4.61847C5.07995 4.65679 5.1468 4.70873 5.1468 4.70873L5.2064 4.81091C5.2064 4.81091 5.15191 4.82028 5.13147 4.7496C5.11103 4.80665 5.11018 4.71426 5.02929 4.67127C5.0046 4.67425 4.99225 4.67595 4.97139 4.65934C4.91306 4.6751 4.84409 4.70916 4.76192 4.70022C4.7036 4.71852 4.66102 4.76706 4.60184 4.79388C4.54266 4.8207 4.52521 4.8075 4.52521 4.8075L4.47752 4.80921C4.47064 4.83791 4.47454 4.88158 4.44857 4.88925C4.46517 4.90713 4.43665 4.98334 4.4077 4.99654C4.42132 5.0455 4.46123 5.06048 4.50307 5.08509C4.50307 5.08509 4.54011 5.06806 4.56437 5.0902C4.58864 5.11234 4.61376 5.17535 4.61376 5.17535C4.61376 5.17535 4.56325 5.17876 4.54734 5.17194C4.53143 5.16513 4.52989 5.14853 4.51158 5.15321C4.3962 5.05061 4.33536 5.09142 4.32425 5.06806C4.31287 5.04412 4.35151 4.98164 4.33959 4.94205Z" fill="#96877D" stroke="black" stroke-width="0.00143927"/>
<path d="M4.0611 4.4851C4.06712 4.47757 4.10927 4.49352 4.10927 4.49352L4.18634 4.54169L4.34288 4.64284L4.39827 4.72352L4.29832 4.69101L4.15984 4.5718L4.08518 4.52363C4.08518 4.52363 4.05508 4.49262 4.0611 4.4851Z" fill="#96877D" stroke="black" stroke-width="0.00143927"/>
<path d="M4.98829 4.74131C4.93422 4.72768 4.80096 4.88947 4.80096 4.88947L4.90144 4.99846C4.90144 4.99846 4.90442 4.81283 4.98829 4.74131Z" fill="#96877D" stroke="black" stroke-width="0.00143927"/>
<path d="M4.32721 4.28914C4.29772 4.32692 4.29508 4.40309 4.33344 4.43381C4.33706 4.48005 4.37636 4.5733 4.40725 4.58206C4.44099 4.59162 4.57584 4.62293 4.62863 4.61441C4.61854 4.69997 4.68568 4.76865 4.74784 4.81366C4.74739 4.82134 4.74728 4.83071 4.75447 4.84021C4.76142 4.8494 4.79409 4.85108 4.79553 4.84602C4.81001 4.86638 4.88018 4.87532 4.88527 4.86625C4.89022 4.85742 4.78206 4.78214 4.75806 4.75917C4.73768 4.72114 4.69907 4.63641 4.68994 4.56843C4.63686 4.50528 4.54572 4.50654 4.54572 4.50654L4.54859 4.38281L4.5537 4.24316L4.50432 4.21762C4.50432 4.21762 4.51427 4.21308 4.51964 4.2074C4.53164 4.21256 4.55418 4.18846 4.55711 4.18165C4.56847 4.18567 4.57876 4.18562 4.58074 4.17955C4.5825 4.17419 4.58453 4.15032 4.58867 4.13799C4.62593 4.10519 4.58323 4.03563 4.52627 4.03448C4.4699 4.03334 4.45725 4.10172 4.45833 4.10692C4.46363 4.12838 4.46249 4.13919 4.45833 4.14439C4.45409 4.1497 4.43449 4.16142 4.43449 4.16142C4.43449 4.16142 4.40299 4.14652 4.36467 4.16142C4.32635 4.17632 4.28335 4.19633 4.28123 4.22102C4.26377 4.22358 4.23525 4.24614 4.23013 4.2653C4.21481 4.26232 4.1948 4.27509 4.16201 4.32831C4.10326 4.35428 4.09986 4.47987 4.09986 4.47987C4.09986 4.47987 4.084 4.50297 4.08325 4.51521C4.08251 4.52745 4.08879 4.53863 4.09645 4.5365C4.0973 4.54459 4.10794 4.55183 4.11263 4.54927C4.11433 4.55736 4.12602 4.56189 4.13306 4.56077C4.1337 4.5663 4.15637 4.56492 4.15818 4.55992C4.16018 4.5544 4.15594 4.52679 4.15861 4.52458C4.16106 4.52256 4.1799 4.53693 4.185 4.53309C4.19011 4.52926 4.18403 4.51699 4.18117 4.51223C4.17862 4.50797 4.16244 4.50329 4.15861 4.48328C4.15478 4.46327 4.16883 4.4356 4.16883 4.4356C4.16883 4.4356 4.23269 4.38536 4.23992 4.34236C4.28803 4.34704 4.31348 4.305 4.32721 4.28914Z" fill="#96877D" stroke="black" stroke-width="0.00143927"/>
<path d="M4.21594 4.1093C4.23052 4.07364 4.28321 4.07694 4.28321 4.07694C4.28321 4.07694 4.30205 4.02734 4.37304 4.05693C4.39976 4.03628 4.47012 4.06587 4.47012 4.06587C4.47012 4.06587 4.49646 4.03077 4.531 4.03479C4.59497 4.04224 4.60561 4.10089 4.60167 4.111C4.56665 4.11983 4.50599 4.08254 4.4599 4.09312C4.43297 4.10834 4.38933 4.12441 4.37304 4.14634C4.33036 4.15081 4.28481 4.10706 4.21594 4.1093Z" fill="#96877D" stroke="black" stroke-width="0.00143927"/>
<path d="M4.34957 4.1683C4.36553 4.15851 4.4047 4.14129 4.43131 4.16234C4.4592 4.19236 4.50199 4.22024 4.50199 4.22024L4.55052 4.24068L4.57266 4.2543L4.55818 4.47654C4.51326 4.43058 4.47116 4.42253 4.43898 4.3684C4.42173 4.3452 4.43493 4.28943 4.40492 4.2526C4.3749 4.21577 4.34297 4.19087 4.34957 4.1683Z" fill="#96877D" stroke="black" stroke-width="0.00143927"/>
<path d="M4.4682 4.23322C4.4682 4.23322 4.49364 4.22841 4.50071 4.23443C4.5096 4.23744 4.51818 4.24 4.52058 4.24767C4.53022 4.25053 4.53684 4.2555 4.53684 4.26273C4.54587 4.26513 4.54948 4.28139 4.54948 4.28139L4.54105 4.29404C4.54105 4.29404 4.53142 4.285 4.53022 4.27537C4.52412 4.27237 4.51065 4.2692 4.50734 4.26032C4.4968 4.25926 4.49003 4.25385 4.48807 4.24466C4.47829 4.24692 4.4682 4.23322 4.4682 4.23322Z" fill="#96877D" stroke="black" stroke-width="0.00143927"/>
<path d="M4.68145 4.08759C4.66698 4.07141 4.64143 4.08333 4.64143 4.08333L4.57331 4.20084L4.54351 4.22553L4.54095 4.3175L4.56565 4.4035L4.55713 4.46991C4.55713 4.46991 4.59144 4.43773 4.59545 4.41967C4.59928 4.40243 4.58268 4.34645 4.58268 4.34645C4.58268 4.34645 4.56224 4.31153 4.58694 4.24682C4.61163 4.18211 4.66783 4.12846 4.68145 4.08759Z" fill="#96877D" stroke="black" stroke-width="0.00143927"/>
<path d="M4.85169 4.19287C4.85169 4.19287 4.74533 4.34486 4.5712 4.39893C4.52309 4.41043 4.54054 4.28654 4.54054 4.28654L4.52862 4.28994C4.52862 4.28994 4.5018 4.41128 4.56609 4.41256C4.74107 4.37807 4.87236 4.19385 4.87236 4.19385L4.85142 4.19292L4.85169 4.19287Z" fill="#96877D" stroke="black" stroke-width="0.00143927"/>
<path d="M4.92386 5.06668C4.92386 5.06668 4.90768 5.0786 4.88639 5.06668C4.87532 5.04113 4.84552 5.03943 4.84552 5.03943C4.84552 5.03943 4.82632 4.98428 4.79613 5.00026C4.79145 4.97173 4.75867 4.98663 4.75867 4.98663C4.75867 4.98663 4.75782 4.94534 4.7195 4.95087C4.73227 4.90361 4.6667 4.90659 4.6667 4.90659C4.6667 4.90659 4.66458 4.85338 4.56793 4.86402C4.77612 4.77078 4.94089 5.01048 4.94089 5.01048" fill="#96877D"/>
<path d="M4.92386 5.06668C4.92386 5.06668 4.90768 5.0786 4.88639 5.06668C4.87532 5.04113 4.84552 5.03943 4.84552 5.03943C4.84552 5.03943 4.82632 4.98428 4.79613 5.00026C4.79145 4.97173 4.75867 4.98663 4.75867 4.98663C4.75867 4.98663 4.75782 4.94534 4.7195 4.95087C4.73227 4.90361 4.6667 4.90659 4.6667 4.90659C4.6667 4.90659 4.66458 4.85338 4.56793 4.86402C4.77612 4.77078 4.94089 5.01048 4.94089 5.01048" stroke="black" stroke-width="0.00143927"/>
<path d="M5.02479 5.08618C5.02479 5.08618 5.0729 5.14025 5.09802 5.14068C5.12314 5.1411 5.12527 5.08788 5.12527 5.08788C5.12527 5.08788 5.13336 5.11087 5.14571 5.10491C5.14443 5.12109 5.16103 5.12535 5.16103 5.12535C5.16103 5.12535 5.11761 5.22625 4.99414 5.13046" fill="#96877D"/>
<path d="M5.02479 5.08618C5.02479 5.08618 5.0729 5.14025 5.09802 5.14068C5.12314 5.1411 5.12527 5.08788 5.12527 5.08788C5.12527 5.08788 5.13336 5.11087 5.14571 5.10491C5.14443 5.12109 5.16103 5.12535 5.16103 5.12535C5.16103 5.12535 5.11761 5.22625 4.99414 5.13046" stroke="black" stroke-width="0.00143927"/>
<path d="M4.64773 5.10726L4.6307 5.17708C4.6307 5.17708 4.60899 5.19666 4.61537 5.20092C4.62176 5.20518 4.65624 5.19411 4.65624 5.19411C4.65624 5.19411 4.70989 5.18772 4.72607 5.17197C4.73714 5.19709 4.76183 5.19922 4.76183 5.19922C4.76183 5.19922 4.76353 5.18857 4.76013 5.18219C4.77205 5.18432 4.78227 5.18049 4.78227 5.18049C4.78227 5.18049 4.78908 5.1609 4.77375 5.15324C4.77545 5.13876 4.78269 5.12599 4.75672 5.12769C4.73756 5.14813 4.69031 5.17155 4.67839 5.16346C4.66646 5.15537 4.72522 5.1294 4.70904 5.09534" fill="#96877D"/>
<path d="M4.64773 5.10726L4.6307 5.17708C4.6307 5.17708 4.60899 5.19666 4.61537 5.20092C4.62176 5.20518 4.65624 5.19411 4.65624 5.19411C4.65624 5.19411 4.70989 5.18772 4.72607 5.17197C4.73714 5.19709 4.76183 5.19922 4.76183 5.19922C4.76183 5.19922 4.76353 5.18857 4.76013 5.18219C4.77205 5.18432 4.78227 5.18049 4.78227 5.18049C4.78227 5.18049 4.78908 5.1609 4.77375 5.15324C4.77545 5.13876 4.78269 5.12599 4.75672 5.12769C4.73756 5.14813 4.69031 5.17155 4.67839 5.16346C4.66646 5.15537 4.72522 5.1294 4.70904 5.09534" stroke="black" stroke-width="0.00143927"/>
</g>
</g>
<defs>
<clipPath id="clip0_1073_21539">
<rect width="24" height="24" fill="white" transform="translate(24) rotate(90)"/>
</clipPath>
</defs>
</svg>
