<svg width="24" height="24" viewBox="0 0 24 24" fill="none" xmlns="http://www.w3.org/2000/svg">
<g clip-path="url(#clip0_1073_21737)">
<rect x="24" width="24" height="24" transform="rotate(90 24 0)" fill="#004CBA"/>
<path d="M23.4775 0.293121L12.0015 9.26558L0.525532 0.293121C0.0438158 0.740707 -0.340545 1.28271 -0.603597 1.88536C-0.866649 2.48801 -1.00275 3.13838 -1.00342 3.79594V4.59396L8.49163 12.0092L-1.00342 19.4245V20.1625C-1.00347 20.8273 -0.864673 21.4848 -0.595914 22.0928C-0.327154 22.7009 0.0656412 23.2461 0.55731 23.6935L12.0015 14.7458L23.4457 23.6935C23.9374 23.2461 24.3302 22.7009 24.5989 22.0928C24.8677 21.4848 25.0065 20.8273 25.0064 20.1625V19.4245L15.5114 12.0092L25.0064 4.59396V3.80301C25.0068 3.14426 24.8711 2.49254 24.608 1.8886C24.345 1.28467 23.9601 0.741517 23.4775 0.293121Z" fill="white"/>
<path d="M24.6594 1.95465C24.4879 1.54353 24.2597 1.15844 23.9814 0.810577L13.925 8.67075L12.0217 9.26044L8.04571 8.72725L-0.616009 1.95465C-0.82446 2.46245 -0.943908 3.00235 -0.969116 3.55069L7.71379 10.3374L8.51181 12.0041L7.78441 15.4857L-0.598347 22.0429C-0.422239 22.4518 -0.190539 22.8344 0.0902054 23.1799L10.3303 15.1715L12.0217 14.7477L15.9412 15.2385L24.6417 22.0429C24.8509 21.539 24.9703 21.0025 24.9949 20.4575L16.093 13.4942L15.5316 12.0041L16.1354 8.61778L24.6594 1.95465Z" fill="#F4002F"/>
<path d="M-0.99292 8.05794H25.0134V15.9393H-0.99292V8.05794Z" fill="white"/>
<path d="M8.07141 -1.00635H15.9528V25H8.07141V-1.00635Z" fill="white"/>
<path d="M9.44861 -1.00635H14.5722V25H9.44861V-1.00635Z" fill="#F4002F"/>
<path d="M-0.99292 9.3963H25.0134V14.5976H-0.99292V9.3963Z" fill="#F4002F"/>
</g>
<defs>
<clipPath id="clip0_1073_21737">
<rect width="24" height="24" rx="2" fill="white"/>
</clipPath>
</defs>
</svg>
    