<svg width="24" height="24" viewBox="0 0 24 24" fill="none" xmlns="http://www.w3.org/2000/svg">
<g clip-path="url(#clip0_1073_21750)">
<rect x="24" width="24" height="24" transform="rotate(90 24 0)" fill="white"/>
<path d="M24 10.1053H13.8947V0H10.1053V10.1053H0V13.8947H10.1053V24H13.8947V13.8947H24V10.1053Z" fill="#FF4B55"/>
<path d="M7.50158 4.18922C6.87604 4.25213 6.26315 4.31517 5.64941 4.37817C5.71246 3.76434 5.77551 3.15145 5.83846 2.526C5.26476 2.6002 4.68585 2.6002 4.11215 2.526C4.17505 3.15155 4.2381 3.76444 4.30119 4.37817C3.68741 4.31513 3.07447 4.25213 2.44897 4.18922C2.52318 4.76283 2.52318 5.34183 2.44897 5.91544C3.07452 5.85253 3.68741 5.78949 4.30119 5.72644C4.2381 6.34027 4.17505 6.95316 4.11215 7.57861C4.68585 7.50441 5.2648 7.50441 5.83846 7.57861C5.77551 6.95306 5.71246 6.34017 5.64941 5.72644C6.26319 5.78949 6.87613 5.85253 7.50158 5.91544C7.42738 5.34188 7.42738 4.76283 7.50158 4.18922Z" fill="#FF4B55"/>
<path d="M21.6095 4.18946C20.9839 4.25237 20.3711 4.31542 19.7573 4.37842C19.8204 3.76459 19.8834 3.1517 19.9464 2.52625C19.3727 2.60045 18.7938 2.60045 18.2201 2.52625C18.283 3.15179 18.346 3.76468 18.4091 4.37842C17.7953 4.31537 17.1824 4.25237 16.5569 4.18946C16.6311 4.76307 16.6311 5.34207 16.5569 5.91568C17.1824 5.85278 17.7953 5.78973 18.4091 5.72668C18.346 6.34051 18.283 6.9534 18.2201 7.57885C18.7938 7.50465 19.3727 7.50465 19.9464 7.57885C19.8834 6.95331 19.8204 6.34042 19.7573 5.72668C20.3711 5.78973 20.984 5.85278 21.6095 5.91568C21.5353 5.34212 21.5353 4.76307 21.6095 4.18946Z" fill="#FF4B55"/>
<path d="M7.50158 18.0846C6.87604 18.1475 6.26315 18.2105 5.64941 18.2736C5.71246 17.6597 5.77551 17.0468 5.83846 16.4214C5.26476 16.4956 4.68585 16.4956 4.11215 16.4214C4.17505 17.0469 4.2381 17.6598 4.30119 18.2736C3.68741 18.2105 3.07447 18.1475 2.44897 18.0846C2.52318 18.6582 2.52318 19.2372 2.44897 19.8108C3.07452 19.7479 3.68741 19.6848 4.30119 19.6218C4.2381 20.2357 4.17505 20.8485 4.11215 21.474C4.68585 21.3998 5.2648 21.3998 5.83846 21.474C5.77551 20.8484 5.71246 20.2356 5.64941 19.6218C6.26319 19.6849 6.87613 19.7479 7.50158 19.8108C7.42738 19.2372 7.42738 18.6582 7.50158 18.0846Z" fill="#FF4B55"/>
<path d="M21.6095 18.0842C20.9839 18.1471 20.3711 18.2101 19.7573 18.2732C19.8204 17.6594 19.8834 17.0465 19.9464 16.421C19.3727 16.4952 18.7938 16.4952 18.2201 16.421C18.283 17.0466 18.346 17.6595 18.4091 18.2732C17.7953 18.2101 17.1824 18.1471 16.5569 18.0842C16.6311 18.6578 16.6311 19.2368 16.5569 19.8104C17.1824 19.7475 17.7953 19.6845 18.4091 19.6215C18.346 20.2353 18.283 20.8482 18.2201 21.4736C18.7938 21.3994 19.3727 21.3994 19.9464 21.4736C19.8834 20.8481 19.8204 20.2352 19.7573 19.6215C20.3711 19.6845 20.984 19.7475 21.6095 19.8104C21.5353 19.2368 21.5353 18.6578 21.6095 18.0842Z" fill="#FF4B55"/>
</g>
<defs>
<clipPath id="clip0_1073_21750">
<rect width="24" height="24" rx="2" fill="white"/>
</clipPath>
</defs>
</svg>
