<svg width="24" height="24" viewBox="0 0 24 24" fill="none" xmlns="http://www.w3.org/2000/svg">
<g clip-path="url(#clip0_1073_21707)">
<rect x="24" width="4" height="24" transform="rotate(90 24 0)" fill="#41479B"/>
<rect y="20" width="16" height="24" transform="rotate(-90 0 20)" fill="white"/>
<rect x="24" y="20" width="4" height="24" transform="rotate(90 24 20)" fill="#41479B"/>
<path d="M15.2038 11.9911L16.6445 9.49577H13.7631L12.3222 7L10.8814 9.49577H8L9.44066 11.9911L8 14.4865H10.8814L12.3222 16.9822L13.7631 14.4865H16.6445L15.2038 11.9911ZM15.231 10.3119L14.7327 11.1751L14.2343 10.3119H15.231ZM14.2615 11.9911L13.292 13.6704H11.3525L10.383 11.9911L11.3525 10.3119H13.292L14.2615 11.9911ZM12.3222 8.63223L12.8208 9.49577H11.8237L12.3222 8.63223ZM9.41347 10.3119H10.4102L9.91184 11.1751L9.41347 10.3119ZM9.41347 13.6704L9.91184 12.8072L10.4102 13.6704H9.41347ZM12.3222 15.35L11.8237 14.4865H12.8208L12.3222 15.35ZM14.7327 12.8072L15.231 13.6704H14.2343L14.7327 12.8072Z" fill="#41479B"/>
</g>
<defs>
<clipPath id="clip0_1073_21707">
<rect width="24" height="24" rx="2" fill="white"/>
</clipPath>
</defs>
</svg>
