<svg width="24" height="24" viewBox="0 0 24 24" fill="none" xmlns="http://www.w3.org/2000/svg">
<g clip-path="url(#clip0_1073_21690)">
<rect x="24" width="24" height="24" transform="rotate(90 24 0)" fill="#2B4896"/>
<path fill-rule="evenodd" clip-rule="evenodd" d="M9.68612 12.5124C9.68612 12.5124 9.7277 12.4822 9.74282 12.4784C9.75794 12.4746 9.81087 12.4557 9.81087 12.4557C9.81087 12.4557 9.84489 12.4368 9.86379 12.4368C9.88269 12.4368 9.92049 12.4595 9.93183 12.4784C9.94318 12.4973 10.0037 12.5313 10.0037 12.5313C10.0037 12.5313 10.0452 12.5464 10.0528 12.5313C10.0604 12.5162 10.0793 12.5049 10.0982 12.5049C10.1171 12.5049 10.1208 12.486 10.1208 12.4708C10.1208 12.4557 10.1284 12.4368 10.1435 12.4179C10.1586 12.399 10.1889 12.3877 10.1889 12.3877C10.1889 12.3877 10.2305 12.3688 10.2343 12.3423C10.238 12.3158 10.2796 12.2969 10.3023 12.2932C10.325 12.2894 10.3023 12.278 10.3628 12.2856C10.4233 12.2932 10.4308 12.2705 10.4346 12.2516C10.4384 12.2327 10.4346 12.2138 10.4724 12.2176C10.5102 12.2213 10.5291 12.2213 10.5291 12.1987C10.5291 12.176 10.5631 12.1646 10.5027 12.1457C10.4422 12.1268 10.4459 12.142 10.4422 12.1117C10.4384 12.0815 10.4422 12.0853 10.4006 12.0815C10.359 12.0777 10.3817 12.055 10.3779 12.0323C10.3741 12.0096 10.3628 11.9983 10.3552 11.9832C10.3477 11.9681 10.325 11.9681 10.325 11.9454C10.325 11.9227 10.3212 11.9114 10.2985 11.9114C10.2758 11.9114 10.2683 11.9114 10.2683 11.8887C10.2683 11.866 10.2721 11.8471 10.2947 11.8471C10.3174 11.8471 10.3288 11.8282 10.325 11.8055C10.3212 11.7828 10.3212 11.7337 10.3212 11.7337L10.3514 11.6959C10.3514 11.6959 10.4422 11.6165 10.4497 11.6014C10.4573 11.5863 10.4875 11.5749 10.5026 11.6052C10.5178 11.6354 10.5253 11.643 10.5367 11.6581C10.548 11.6732 10.582 11.6619 10.5896 11.6468C10.5972 11.6316 10.6008 11.5758 10.6205 11.5463C10.6402 11.5168 10.6549 11.502 10.6598 11.4774C10.6648 11.4529 10.6746 11.4332 10.6992 11.4332C10.7238 11.4332 10.7385 11.3988 10.7385 11.3791C10.7385 11.3594 10.7484 11.3397 10.7779 11.3348C10.8074 11.3299 10.8221 11.3102 10.832 11.3397C10.8418 11.3693 10.8516 11.3693 10.8713 11.3791C10.891 11.3889 10.9205 11.4037 10.9352 11.3889C10.95 11.3742 10.9579 11.3496 10.9795 11.3643C11.0011 11.3791 11.0159 11.3643 11.0208 11.3348C11.0257 11.3053 11.0306 11.266 11.0306 11.266C11.0306 11.266 11.0355 11.2463 11.07 11.2463C11.1044 11.2463 11.0798 11.2217 11.0995 11.207C11.1191 11.1922 11.1191 11.1775 11.1437 11.1873C11.1683 11.1971 11.2076 11.1755 11.188 11.1509C11.1683 11.1263 11.124 11.087 11.1486 11.0575C11.1732 11.028 11.1831 10.9788 11.1585 10.9739C11.1339 10.969 11.0995 10.9788 11.0945 10.9493C11.0896 10.9198 11.0798 10.9001 11.1093 10.8952C11.1388 10.8903 11.188 10.8903 11.2027 10.8756C11.2175 10.8608 11.2667 10.851 11.2667 10.8067C11.2667 10.7624 11.2814 10.7575 11.2863 10.7329C11.2912 10.7084 11.2912 10.6572 11.2716 10.6326C11.2519 10.6081 11.2224 10.5736 11.2175 10.5589C11.2126 10.5441 11.1929 10.5195 11.1634 10.5097C11.1339 10.4999 11.1093 10.495 11.1093 10.4704C11.1093 10.4458 11.129 10.4753 11.129 10.4114C11.129 10.3474 11.0896 10.3376 11.0896 10.3376L11.0306 10.2982C11.0306 10.2982 10.9257 10.2676 10.8975 10.2676C10.8692 10.2676 10.837 10.2357 10.8692 10.2152C10.9015 10.1947 10.9095 10.1585 10.8975 10.1302C10.8854 10.102 10.8773 10.0819 10.833 10.0698C10.7887 10.0577 10.7766 10.0456 10.7967 10.0174C10.8169 9.98922 10.8209 9.96907 10.8451 9.98922C10.8692 10.0094 10.9095 10.0174 10.9418 10.0013C10.974 9.98519 10.9864 9.9731 11.0026 9.98922C11.0187 10.0053 11.0388 10.0215 11.063 9.99728C11.0872 9.97311 11.1315 9.96907 11.1516 9.98116C11.1718 9.99325 11.2201 9.98922 11.2363 9.98116C11.2524 9.9731 11.2846 9.9449 11.2846 9.92878C11.2846 9.91266 11.3048 9.88446 11.3249 9.87237C11.3451 9.86028 11.3692 9.81999 11.3894 9.81999C11.4095 9.81999 11.4176 9.79581 11.4176 9.77969C11.4176 9.76358 11.4337 9.73169 11.4377 9.71925C11.4418 9.70682 11.4824 9.69036 11.5106 9.71488C11.5388 9.7394 11.5751 9.74746 11.5751 9.74746C11.5751 9.74746 11.6154 9.75552 11.6355 9.74746C11.6557 9.7394 11.6839 9.73134 11.7121 9.75149C11.7403 9.77164 11.7806 9.77164 11.7806 9.77164C11.7806 9.77164 11.7886 9.73975 11.7886 9.72329C11.7886 9.70682 11.7967 9.67862 11.7806 9.66653C11.7645 9.65444 11.7443 9.63833 11.7765 9.61415C11.8088 9.58997 11.8088 9.594 11.841 9.594C11.8733 9.594 11.8934 9.59802 11.9176 9.59802C11.9417 9.59802 11.9824 9.6222 11.9824 9.64638C11.9824 9.67055 11.9985 9.68667 12.0187 9.69876C12.0388 9.71085 12.063 9.72328 12.0549 9.74343C12.0469 9.76358 12.0469 9.77969 12.071 9.77567C12.0952 9.77163 12.1033 9.78775 12.1033 9.8079C12.1033 9.82804 12.1113 9.84013 12.1355 9.84819C12.1597 9.85625 12.1718 9.87237 12.1718 9.89252C12.1718 9.91266 12.1677 9.92475 12.1758 9.9449C12.1838 9.96504 12.208 9.99728 12.208 9.99728C12.208 9.99728 12.2524 10.0537 12.1959 10.0255C12.1395 9.99728 12.1274 9.98519 12.1073 9.98922C12.0871 9.99325 12.0751 10.0053 12.0751 10.0053C12.0751 10.0053 12.0469 10.0134 12.0267 10.0134C12.0066 10.0134 11.9864 10.0577 12.0186 10.0658C12.0509 10.0738 12.063 10.0819 12.063 10.1101C12.063 10.1383 12.0509 10.1303 12.0348 10.1504C12.0186 10.1705 12.0069 10.1585 11.9784 10.1585C11.9498 10.1585 11.9417 10.183 11.9417 10.2072C11.9417 10.2313 11.9542 10.2273 11.9663 10.2474C11.9784 10.2676 11.9985 10.2716 12.0186 10.2515C12.0388 10.2313 12.0549 10.2192 12.067 10.2555C12.0791 10.2918 12.0952 10.2918 12.1194 10.2918C12.1436 10.2918 12.1516 10.2918 12.1718 10.2797C12.1919 10.2676 12.2161 10.2797 12.2201 10.3119C12.2241 10.3441 12.2443 10.3482 12.2644 10.3603C12.2846 10.3724 12.2967 10.3804 12.3007 10.4006C12.3047 10.4207 12.3168 10.4288 12.337 10.4167C12.3571 10.4046 12.3894 10.3965 12.4014 10.4126C12.4135 10.4288 12.4337 10.461 12.4337 10.461L12.4377 10.5013L12.5146 10.5295C12.5146 10.5295 12.5227 10.5496 12.5227 10.5658C12.5227 10.5819 12.5348 10.5899 12.5549 10.5859C12.5751 10.5819 12.6113 10.5859 12.6113 10.5859C12.6113 10.5859 12.6395 10.5738 12.6395 10.5496C12.6395 10.5255 12.6516 10.5174 12.6718 10.5174C12.6919 10.5174 12.7362 10.5335 12.7483 10.5094C12.7604 10.4852 12.7967 10.4771 12.8249 10.4892C12.8531 10.5013 12.9259 10.5335 12.9259 10.5335C12.9259 10.5335 12.9179 10.5376 12.9421 10.5778C12.9662 10.6181 13.0106 10.6181 13.0106 10.6181C13.0106 10.6181 13.0146 10.6541 13.0227 10.6705C13.0307 10.687 13.067 10.6947 13.0871 10.6786C13.1073 10.6625 13.1355 10.6423 13.1597 10.6423C13.1838 10.6423 13.1999 10.6423 13.1999 10.6262C13.1999 10.6101 13.1758 10.598 13.1758 10.5738C13.1758 10.5496 13.1999 10.5496 13.204 10.5255C13.208 10.5013 13.2322 10.5255 13.2483 10.5376C13.2644 10.5496 13.2846 10.5698 13.2846 10.5859C13.2846 10.602 13.3168 10.6584 13.3369 10.6665C13.3571 10.6746 13.4098 10.6786 13.4259 10.6584C13.4421 10.6383 13.4823 10.6299 13.4783 10.6786C13.4743 10.7273 13.4662 10.7313 13.4944 10.7474C13.5226 10.7635 13.5267 10.82 13.5025 10.8361C13.4783 10.8522 13.4703 10.8562 13.4703 10.8844C13.4703 10.9126 13.4622 10.9449 13.4823 10.961C13.5025 10.9771 13.5146 10.9892 13.5146 11.0053C13.5146 11.0214 13.5388 11.094 13.5388 11.094C13.5388 11.094 13.5508 11.1668 13.5468 11.1829C13.5428 11.1991 13.5347 11.2273 13.571 11.2232C13.6073 11.2192 13.6153 11.2192 13.6153 11.2514C13.6153 11.2837 13.6274 11.2958 13.6073 11.3079C13.5871 11.3199 13.575 11.3602 13.5952 11.3683C13.6153 11.3764 13.6314 11.3884 13.6355 11.4046C13.6395 11.4207 13.6717 11.4489 13.6919 11.4328C13.712 11.4166 13.7161 11.4086 13.7322 11.4046C13.7483 11.4005 13.7604 11.3884 13.7443 11.3683C13.7281 11.3482 13.7241 11.328 13.7402 11.3159C13.7564 11.3038 13.7644 11.2635 13.7644 11.2635C13.7644 11.2635 13.7886 11.2273 13.8168 11.2635C13.845 11.2998 13.849 11.2877 13.8692 11.2877C13.8893 11.2877 13.8977 11.3079 13.8977 11.328C13.8977 11.3481 13.938 11.3441 13.938 11.3764C13.938 11.4086 13.9461 11.4851 13.9461 11.4851C13.9461 11.4851 13.9461 11.5295 13.9703 11.5456C13.9944 11.5617 13.9904 11.5657 13.9783 11.5859C13.9662 11.606 13.9703 11.6386 13.9703 11.6547C13.9703 11.6708 13.9783 11.6789 13.9582 11.695C13.938 11.7111 13.93 11.7313 13.942 11.7555C13.9541 11.7796 13.9501 11.7958 13.9823 11.824C14.0146 11.8522 14.0105 11.8643 14.0105 11.8844C14.0105 11.9045 14.0428 11.9328 14.0428 11.9529C14.0428 11.9731 14.067 11.9972 14.0871 12.0013C14.1073 12.0053 14.1314 12.0415 14.1314 12.0617C14.1314 12.0818 14.1355 12.1346 14.1355 12.1346C14.1355 12.1346 14.1314 12.1467 14.1556 12.1467C14.1798 12.1467 14.1959 12.1752 14.204 12.1426C14.212 12.11 14.2362 12.106 14.2523 12.098C14.2684 12.0899 14.3007 12.0738 14.3168 12.0859C14.3329 12.098 14.3527 12.098 14.3692 12.098C14.3856 12.098 14.4622 12.102 14.4622 12.102C14.4622 12.102 14.4823 12.0976 14.4944 12.1302C14.5065 12.1628 14.5428 12.199 14.5226 12.2152C14.5025 12.2313 14.5025 12.2635 14.5267 12.2635C14.5508 12.2635 14.575 12.2635 14.575 12.2836C14.575 12.3038 14.579 12.3199 14.5992 12.3078C14.6193 12.2957 14.6314 12.2917 14.6395 12.3078C14.6475 12.3239 14.6636 12.3239 14.6838 12.336C14.7039 12.3481 14.712 12.3401 14.7241 12.3239C14.7362 12.3078 14.7845 12.2917 14.7845 12.2917C14.7845 12.2917 14.8494 12.2756 14.8735 12.2836C14.8977 12.2917 14.9299 12.3078 14.9299 12.3078C14.9299 12.3078 14.9461 12.3481 14.938 12.3723C14.9299 12.3965 14.9219 12.3924 14.9299 12.4287C14.938 12.465 14.9219 12.469 14.9058 12.465C14.8896 12.4609 14.8735 12.4609 14.8735 12.4932C14.8735 12.5254 14.8571 12.5335 14.8571 12.5617C14.8571 12.5899 14.8571 12.5859 14.8409 12.5979C14.8248 12.61 14.8204 12.6305 14.845 12.6346C14.8695 12.6386 14.8611 12.6668 14.8611 12.6829C14.8611 12.699 14.8571 12.7353 14.8571 12.7353C14.8571 12.7353 14.8611 12.7554 14.8329 12.7554C14.8047 12.7554 14.7805 12.7514 14.7765 12.7716C14.7724 12.7917 14.7402 12.8239 14.7684 12.8441C14.7966 12.8642 14.7886 12.8763 14.7725 12.8844C14.7563 12.8924 14.7442 12.9327 14.7765 12.9448C14.8087 12.9569 14.8047 12.969 14.7845 12.9851C14.7644 13.0012 14.7241 13.0133 14.7241 13.0375C14.7241 13.0617 14.716 13.0617 14.6919 13.0657C14.6677 13.0697 14.6556 13.1023 14.6838 13.1426C14.712 13.1829 14.7201 13.1748 14.7402 13.1748C14.7604 13.1748 14.7604 13.1426 14.7604 13.1426C14.7604 13.1426 14.8285 13.1466 14.849 13.1466C14.8695 13.1466 14.8977 13.1466 14.9138 13.1345C14.9299 13.1224 14.9743 13.1023 14.9743 13.1386C14.9743 13.1748 14.9823 13.1708 15.0025 13.1869C15.0226 13.203 15.0266 13.1909 15.0428 13.2151C15.0589 13.2393 15.0629 13.2191 15.075 13.1909C15.0871 13.1627 15.1113 13.1345 15.1314 13.1668C15.1516 13.199 15.1516 13.1909 15.1757 13.1909C15.1999 13.1909 15.208 13.203 15.208 13.2232C15.208 13.2433 15.2321 13.2433 15.2604 13.2393C15.2886 13.2353 15.2926 13.2554 15.3047 13.2756C15.3168 13.2957 15.3204 13.2917 15.3369 13.2917C15.3534 13.2917 15.3695 13.2917 15.3816 13.2756C15.3937 13.2594 15.4098 13.2393 15.4259 13.2635C15.442 13.2876 15.4743 13.2836 15.4823 13.2554C15.4904 13.2272 15.5266 13.203 15.5468 13.2353C15.5669 13.2675 15.583 13.2675 15.6032 13.2715C15.6233 13.2756 15.6515 13.2756 15.6636 13.2957C15.6757 13.3159 15.716 13.3481 15.6878 13.3723C15.6596 13.3964 15.6274 13.4287 15.6515 13.4367C15.6757 13.4448 15.6918 13.4529 15.708 13.473C15.7241 13.4931 15.7765 13.5012 15.8006 13.5052C15.8248 13.5093 15.8453 13.5133 15.8735 13.4891C15.9017 13.4649 15.9299 13.4649 15.9259 13.4972C15.9219 13.5294 15.938 13.5657 15.938 13.5657C15.938 13.5657 15.9581 13.6184 15.9581 13.6385C15.9581 13.6587 15.9541 13.6627 15.9904 13.6869C16.0266 13.7111 16.0226 13.7272 16.0508 13.703C16.079 13.6788 16.0871 13.6668 16.0871 13.6466C16.0871 13.6265 16.0871 13.5818 16.0871 13.5818C16.0871 13.5818 16.1274 13.5737 16.1435 13.5616C16.1596 13.5496 16.2241 13.5133 16.2402 13.5294C16.2563 13.5455 16.2764 13.5415 16.2926 13.5334C16.3087 13.5254 16.3413 13.5254 16.3574 13.5254C16.3735 13.5254 16.4017 13.5294 16.4339 13.5012C16.4662 13.473 16.4662 13.481 16.4863 13.5012C16.5065 13.5213 16.5065 13.5455 16.4944 13.5616C16.4823 13.5778 16.4944 13.6144 16.5226 13.6144C16.5508 13.6144 16.5588 13.6305 16.5588 13.6506C16.5588 13.6708 16.5629 13.699 16.5669 13.7151C16.5709 13.7312 16.5709 13.7393 16.6153 13.7514C16.6596 13.7635 16.6515 13.7917 16.6596 13.8118C16.6676 13.832 16.6676 13.8481 16.6435 13.8481C16.6193 13.8481 16.6112 13.8602 16.6072 13.8803C16.6032 13.9005 16.5669 13.9085 16.5669 13.9085L16.5306 13.9005C16.5306 13.9005 16.5065 13.9005 16.4944 13.9166C16.4823 13.9327 16.4581 13.9649 16.4742 13.9931C16.4903 14.0213 16.4903 14.0374 16.4742 14.0495C16.4581 14.0616 16.4501 14.1224 16.4339 14.1103C16.4178 14.0982 16.3977 14.1144 16.3816 14.1224C16.3654 14.1305 16.3695 14.1869 16.4017 14.207C16.4339 14.2272 16.442 14.2554 16.442 14.2554L16.4783 14.3158C16.4783 14.3158 16.4662 14.3279 16.4581 14.3481C16.4501 14.3682 16.4259 14.4085 16.4501 14.4166C16.4742 14.4246 16.4621 14.4689 16.438 14.4689C16.4138 14.4689 16.3856 14.4568 16.3816 14.4891C16.3775 14.5213 16.3654 14.5133 16.3413 14.5092C16.3171 14.5052 16.2563 14.4891 16.2402 14.5213C16.2241 14.5536 16.22 14.566 16.1918 14.562C16.1636 14.5579 16.1757 14.6103 16.1838 14.6305C16.1918 14.6506 16.22 14.6788 16.22 14.6788C16.22 14.6788 16.2442 14.699 16.2442 14.7393C16.2442 14.7795 16.2281 14.7755 16.212 14.7473C16.1959 14.7191 16.1636 14.7231 16.1596 14.7554C16.1556 14.7876 16.1515 14.836 16.1233 14.836C16.0951 14.836 16.083 14.844 16.0709 14.8601C16.0589 14.8763 16.0387 14.9045 16.0387 14.9206C16.0387 14.9367 16.0347 14.9528 16.0145 14.9568C15.9944 14.9609 15.9904 15.0052 15.9904 15.0052C15.9904 15.0052 15.942 15.0129 15.938 15.0334C15.9339 15.0539 15.942 15.0861 15.9017 15.0902C15.8614 15.0942 15.8369 15.1224 15.8248 15.1425C15.8127 15.1627 15.8083 15.1788 15.8248 15.1989C15.8413 15.2191 15.8534 15.2836 15.8735 15.2957C15.8937 15.3077 15.9098 15.3118 15.9057 15.344C15.9017 15.3762 15.8775 15.4004 15.9098 15.4004C15.942 15.4004 15.9622 15.4085 15.9501 15.4367C15.938 15.4649 15.938 15.4689 15.9138 15.481C15.8896 15.4931 15.8775 15.4934 15.8775 15.5257C15.8775 15.5579 15.8856 15.5579 15.8654 15.57C15.8453 15.5821 15.8453 15.5982 15.8453 15.6224C15.8453 15.6466 15.8369 15.6385 15.8127 15.6667C15.7885 15.6949 15.7563 15.6949 15.7362 15.6868C15.716 15.6788 15.712 15.6788 15.708 15.6546C15.7039 15.6304 15.6677 15.6304 15.6475 15.6345C15.6274 15.6385 15.5992 15.6627 15.5992 15.6627C15.5992 15.6627 15.5629 15.6868 15.579 15.707C15.5951 15.7271 15.5871 15.7594 15.5589 15.7553C15.5307 15.7513 15.4662 15.7876 15.446 15.7513C15.4259 15.7151 15.3695 15.6909 15.3614 15.7392C15.3534 15.7876 15.3856 15.7836 15.3816 15.8319C15.3775 15.8803 15.3698 15.8803 15.3534 15.8964C15.3369 15.9125 15.3369 15.9246 15.3329 15.9447C15.3288 15.9649 15.3252 16.0095 15.3534 16.0257C15.3816 16.0418 15.3937 16.0861 15.3937 16.1103C15.3937 16.1345 15.3937 16.1586 15.4219 16.1586C15.4501 16.1586 15.4743 16.1546 15.4783 16.1264C15.4823 16.0982 15.5387 16.0821 15.5428 16.1385C15.5468 16.1949 15.5468 16.2231 15.5669 16.2473C15.5871 16.2715 15.6032 16.3037 15.6193 16.3158C15.6354 16.3279 15.6628 16.4304 15.6628 16.4304C15.6231 16.4395 15.6138 16.4946 15.5886 16.5061C15.5747 16.5124 15.559 16.5069 15.5466 16.5175C15.5368 16.526 15.5369 16.5407 15.5221 16.5477C15.4928 16.5616 15.4981 16.5121 15.4625 16.5306C15.4305 16.5472 15.4276 16.587 15.3804 16.5699C15.356 16.561 15.3414 16.4579 15.3341 16.4341C15.3297 16.4198 15.3049 16.378 15.2965 16.3645C15.2689 16.3204 15.2152 16.3647 15.1981 16.3516C15.1713 16.3311 15.1833 16.2968 15.1419 16.2936C15.0578 16.287 15.1178 16.3489 15.0825 16.3629C15.0154 16.3894 15.0152 16.2947 14.9644 16.3379C14.9453 16.3542 14.9949 16.364 14.9828 16.3922C14.9728 16.4158 14.9232 16.4508 14.9263 16.478C14.9306 16.5155 14.9676 16.5263 14.9789 16.5575C15.0089 16.6405 14.9585 16.6975 14.8832 16.6329C14.8411 16.5967 14.8328 16.5289 14.7674 16.5337C14.7518 16.5349 14.7476 16.5521 14.7319 16.5536C14.7166 16.5551 14.7044 16.5382 14.6889 16.544C14.6643 16.5532 14.686 16.5712 14.6807 16.5859C14.6807 16.5859 14.6486 16.6156 14.6432 16.6236C14.6254 16.6502 14.6311 16.6729 14.6054 16.6945C14.5836 16.7128 14.5658 16.7018 14.5416 16.7302C14.5167 16.7594 14.5144 16.8024 14.4823 16.8307C14.4658 16.8452 14.4553 16.7887 14.4345 16.8255C14.4317 16.8305 14.4284 16.8353 14.4262 16.8406C14.4215 16.852 14.4197 16.8568 14.4253 16.8684C14.4679 16.957 14.3794 16.9903 14.3512 17.053C14.3392 17.0796 14.3724 17.1032 14.3598 17.1238C14.3507 17.1387 14.3112 17.18 14.308 17.189C14.3046 17.1984 14.3004 17.218 14.2941 17.2249C14.2869 17.2326 14.2626 17.2285 14.2609 17.2405C14.2589 17.2549 14.2863 17.2661 14.2935 17.2745C14.3027 17.2852 14.2895 17.3002 14.2929 17.3039C14.3384 17.3537 14.3111 17.3377 14.3343 17.382C14.3375 17.388 14.3512 17.3769 14.3568 17.3928C14.3621 17.4076 14.346 17.4068 14.3514 17.4238C14.3529 17.4283 14.3845 17.4739 14.3846 17.4748C14.3868 17.4896 14.3231 17.5209 14.309 17.5215C14.2707 17.5229 14.3427 17.4353 14.2795 17.4353C14.2519 17.4353 14.2508 17.5028 14.2436 17.5099C14.241 17.5124 14.2153 17.5096 14.2095 17.5096C14.1688 17.5096 14.143 17.5637 14.1269 17.5695C14.1164 17.5732 14.0944 17.5632 14.077 17.5664C14.0605 17.5695 14.0416 17.5867 14.0267 17.5867C14.0167 17.5867 14.0116 17.5798 14.0039 17.5748C13.9861 17.5632 13.9528 17.5585 13.9321 17.5517C13.9212 17.5482 13.9003 17.5673 13.8931 17.5623C13.8803 17.5534 13.9023 17.5278 13.8718 17.5094C13.8681 17.5071 13.8456 17.4485 13.8464 17.4454C13.8562 17.4071 13.8679 17.366 13.8623 17.3255C13.8566 17.2838 13.7966 17.2491 13.7803 17.216C13.7679 17.1909 13.7572 17.124 13.7342 17.1073C13.7089 17.0889 13.6861 17.0536 13.6728 17.0265C13.6687 17.0182 13.6806 17.0041 13.6714 16.9904C13.6612 16.9753 13.6418 16.9692 13.6372 16.9492C13.6336 16.9335 13.6371 16.8804 13.6204 16.8693C13.6015 16.8568 13.4785 16.8412 13.4483 16.8386C13.4326 16.8372 13.4199 16.8374 13.4084 16.8249C13.4036 16.8197 13.3957 16.7989 13.3909 16.7987C13.3791 16.7981 13.3647 16.8052 13.3522 16.8062C13.3429 16.807 13.3285 16.8002 13.3201 16.8064C13.2812 16.8351 13.2709 16.8732 13.233 16.9043C13.195 16.9355 13.1527 16.9347 13.1144 16.9712C13.0906 16.9939 13.074 17.0501 13.0504 17.0765C13.0402 17.0879 13.0237 17.076 13.0197 17.0814C12.9998 17.1081 12.9714 17.125 12.9514 17.1502C12.9473 17.1553 12.9488 17.1649 12.9434 17.169L12.9004 17.181C12.8894 17.1825 12.8677 17.18 12.8592 17.1829C12.8386 17.1901 12.8396 17.213 12.7711 17.228C12.7661 17.2291 12.7574 17.2336 12.7532 17.2366C12.7449 17.2424 12.7392 17.2518 12.7314 17.2575C12.7263 17.2612 12.711 17.2542 12.7022 17.2559C12.685 17.2593 12.6752 17.2749 12.6587 17.277C12.6228 17.2817 12.5643 17.259 12.5359 17.2712C12.5188 17.2786 12.4709 17.336 12.4547 17.3418C12.4438 17.3456 12.436 17.3405 12.4234 17.3355C12.4175 17.3437 12.403 17.4057 12.3981 17.4198C12.3977 17.421 12.3207 17.4918 12.3147 17.4995C12.3049 17.512 12.3002 17.525 12.2887 17.5382C12.2807 17.5472 12.267 17.555 12.2547 17.5551C12.2384 17.5551 12.2142 17.5419 12.1992 17.539C12.1705 17.5335 12.0828 17.53 12.0561 17.5362C12.0289 17.5425 12.0365 17.6267 11.9694 17.6355C11.9297 17.6406 11.8935 17.6487 11.8532 17.6522C11.8491 17.6526 11.8248 17.6344 11.8012 17.6415C11.792 17.6443 11.7632 17.6766 11.7631 17.687L11.7631 17.7048C11.7631 17.7083 11.7712 17.719 11.7702 17.7204C11.7549 17.74 11.7209 17.7694 11.7092 17.7922C11.7063 17.798 11.7025 17.8052 11.6974 17.8094C11.6887 17.8166 11.6416 17.8355 11.6382 17.8444C11.627 17.8743 11.67 17.9031 11.6665 17.9149C11.6548 17.9543 11.6063 17.9915 11.5907 18.0278C11.5842 18.043 11.6073 18.0935 11.6056 18.1101C11.6008 18.1578 11.5856 18.2175 11.5878 18.2647C11.5882 18.2736 11.594 18.321 11.5969 18.3261C11.6018 18.3349 11.6133 18.3406 11.62 18.348C11.6273 18.3562 11.6809 18.469 11.6825 18.4815C11.6931 18.565 11.581 18.536 11.6454 18.6194C11.6551 18.6321 11.663 18.6463 11.6742 18.6579C11.6887 18.6729 11.771 18.7385 11.772 18.7456C11.7737 18.7573 11.706 18.7695 11.6929 18.7833C11.6605 18.8175 11.6335 18.8814 11.6025 18.9161C11.5829 18.938 11.5663 18.9138 11.5406 18.9654C11.5313 18.9842 11.5404 19.0276 11.5299 19.0398C11.5141 19.058 11.5006 19.0341 11.4845 19.0419C11.4776 19.0452 11.4736 19.0667 11.466 19.0736C11.4473 19.0903 11.2867 19.1835 11.2716 19.1756C11.2639 19.1715 11.2549 19.1421 11.253 19.1333C11.2509 19.1233 11.2404 19.101 11.2332 19.0941C11.1922 19.0554 11.1282 19.0485 11.0879 19.0953C11.0773 19.1076 11.0772 19.1259 11.0641 19.1378C11.0421 19.1576 11.0163 19.1757 10.9954 19.1958C10.9917 19.1994 10.979 19.2149 10.9748 19.2143C10.9584 19.2121 10.9194 19.1642 10.9093 19.1509C10.8915 19.1273 10.8389 19.0719 10.8339 19.0462C10.8339 18.9566 10.769 18.8624 10.742 18.7747L10.7821 18.7757C10.8274 18.742 10.8143 18.6605 10.8964 18.6926C10.9069 18.6772 10.9057 18.6618 10.9245 18.6501C10.9313 18.6459 10.9443 18.6416 10.9486 18.6345C10.9759 18.5893 11.0077 18.4161 10.9794 18.3711C10.9538 18.3305 10.9281 18.3323 10.908 18.2668C10.9023 18.2484 10.9127 18.227 10.9075 18.2077C10.9033 18.1916 10.8764 18.0963 10.8719 18.0883C10.8672 18.08 10.85 18.0704 10.8489 18.0649C10.8474 18.0568 10.8415 17.953 10.8453 17.9445C10.8185 17.8636 10.7267 17.8126 10.7213 17.8034C10.7097 17.7838 10.6986 17.759 10.6872 17.7382C10.6735 17.7131 10.6729 17.6998 10.6652 17.6753C10.6617 17.6642 10.6471 17.6553 10.6462 17.6432C10.6446 17.6218 10.6991 17.5781 10.6971 17.5402C10.6965 17.5284 10.6623 17.4918 10.6688 17.4712C10.6754 17.4502 10.7113 17.4029 10.71 17.3792C10.7082 17.3477 10.6549 17.2801 10.6477 17.2467C10.6444 17.2309 10.6688 17.217 10.6632 17.206C10.6558 17.1915 10.5998 17.1366 10.5907 17.1202C10.584 17.1081 10.612 17.0921 10.5917 17.0699C10.5735 17.05 10.5889 17.0568 10.5831 17.0401C10.5767 17.0211 10.5571 17.0039 10.5491 16.9835C10.5423 16.9662 10.4933 16.7769 10.4949 16.7658C10.4864 16.7524 10.4725 16.7412 10.4654 16.7285C10.4579 16.715 10.4555 16.6906 10.449 16.6803C10.4481 16.6789 10.3943 16.6621 10.384 16.6453C10.3756 16.6316 10.3735 16.5848 10.3598 16.5616C10.353 16.5501 10.3421 16.5521 10.3336 16.5449C10.3262 16.5386 10.3275 16.5278 10.3225 16.5203C10.3068 16.4964 10.2746 16.5181 10.2524 16.4291C10.2232 16.4067 10.1961 16.3877 10.1703 16.3609C10.1656 16.356 10.1623 16.3498 10.1558 16.3467C10.1361 16.3372 10.1057 16.3349 10.0883 16.3188C10.0779 16.3192 10.0252 16.3168 10.0183 16.3127C10.0119 16.309 10.0058 16.2832 10.0024 16.2825C9.97402 16.2766 9.92801 16.2798 9.90394 16.2573C9.88502 16.2397 9.8812 16.1515 9.84686 16.1634C9.84309 16.1611 9.83744 16.1595 9.83298 16.1603C9.81115 16.1293 9.73385 16.125 9.70317 16.1049C9.69448 16.0992 9.66481 16.1041 9.66512 16.0953C9.67167 16.0785 9.67048 16.0641 9.67067 16.0466C9.65324 16.0281 9.64283 16.0074 9.63004 15.9944C9.60085 15.9871 9.61234 15.984 9.59376 15.9718C9.54348 15.9678 9.53785 15.9772 9.50636 16.0095C9.49852 16.0176 9.48236 16.0194 9.47228 16.0254C9.45553 16.0355 9.44984 16.0689 9.4261 16.0533C9.41836 16.0483 9.41321 16.0401 9.40647 16.034C9.39226 16.0212 9.38386 16.0278 9.37694 16.0043C9.3359 15.9799 9.22198 16.0639 9.19441 16.0053C9.17504 15.994 9.16103 16.0081 9.14486 15.9904C9.13663 15.9815 9.16657 15.8801 9.08441 15.8397C9.10349 15.8231 9.12358 15.8126 9.14169 15.7975C9.14657 15.7867 9.14106 15.7698 9.14091 15.7585C9.14063 15.7416 9.15141 15.7085 9.14765 15.6956C9.14412 15.6835 9.13266 15.6731 9.12802 15.6598C9.12302 15.6454 9.12892 15.628 9.12228 15.6119C9.11674 15.608 9.10258 15.5975 9.09591 15.5977C9.07492 15.5789 9.05146 15.5661 9.03474 15.5434C9.031 15.5384 9.02749 15.5291 9.0225 15.5252C9.00728 15.5135 8.9578 15.4972 8.96031 15.4715C8.96113 15.463 8.97148 15.462 8.97399 15.4542C8.97727 15.4439 8.97535 15.4307 8.98166 15.4215C9.00488 15.3877 9.05655 15.402 9.0478 15.3386C9.04396 15.3106 9.02608 15.2862 9.02065 15.2563C9.01154 15.2494 9.01016 15.2376 9.0024 15.2298C8.9517 15.225 8.9589 15.1684 8.94082 15.155C8.88778 15.1157 8.84633 15.14 8.90557 15.0624C8.91344 15.0375 8.85449 14.9965 8.84171 14.983C8.82047 14.9605 8.83085 14.9142 8.82305 14.89C8.81916 14.8778 8.78408 14.8569 8.77288 14.8397C8.76939 14.8344 8.76031 14.8086 8.75546 14.8057L8.7565 14.7975C8.768 14.7879 8.76151 14.7707 8.75833 14.7583C8.75131 14.7508 8.73612 14.7528 8.73134 14.7481C8.68281 14.7002 8.62421 14.68 8.56115 14.6527C8.54394 14.6453 8.54884 14.6311 8.53478 14.6237C8.52313 14.6176 8.43733 14.5768 8.43076 14.5782C8.4206 14.5754 8.41339 14.5339 8.40676 14.5206C8.40096 14.5089 8.37648 14.4866 8.37648 14.4852C8.37821 14.4474 8.35637 14.4422 8.32933 14.4219C8.33122 14.4164 8.3265 14.4047 8.32636 14.3983C8.32631 14.3936 8.34421 14.3269 8.34721 14.3179C8.35202 14.3034 8.369 14.2902 8.36643 14.2743C8.36237 14.2492 8.35954 14.2098 8.35181 14.1875C8.32437 14.1086 8.29197 14.1192 8.30931 14.0165C8.31295 13.995 8.3066 13.9832 8.32095 13.9644C8.31937 13.9631 8.32789 13.9529 8.32925 13.9515C8.3386 13.9422 8.36343 13.9274 8.36859 13.92C8.38372 13.8983 8.39325 13.8471 8.41218 13.8309C8.42613 13.819 8.4667 13.7956 8.47416 13.786C8.48022 13.7781 8.48927 13.7531 8.48426 13.7427C8.4704 13.7333 8.45617 13.7381 8.44168 13.7359C8.43674 13.7351 8.41887 13.721 8.40485 13.718C8.40123 13.7127 8.39401 13.7067 8.39425 13.6998L8.3886 13.6942C8.37292 13.6924 8.35435 13.6816 8.33991 13.6756C8.32129 13.668 8.29677 13.6662 8.27964 13.6553C8.24735 13.6349 8.21079 13.5793 8.17978 13.5719C8.17978 13.5719 8.16872 13.4876 8.10495 13.4876C8.04117 13.4876 8.05805 13.4839 8.0693 13.4482C8.08055 13.4126 8.1162 13.3713 8.0243 13.407C7.93241 13.4426 7.93431 13.3901 8.00743 13.3676C8.08055 13.3451 8.07683 13.3151 8.02993 13.3094C7.98303 13.3038 7.97178 13.2794 7.98303 13.2344C7.99428 13.1894 8.02993 13.0919 8.04117 13.0563C8.05243 13.0206 8.10495 12.9812 8.13307 12.9644C8.16119 12.9475 8.18932 12.9306 8.23059 12.9419C8.27186 12.9531 8.29626 12.9606 8.34126 12.9419C8.38625 12.9231 8.41628 12.9362 8.4219 12.97C8.42753 13.0037 8.42563 13.0113 8.4669 13.0338C8.50817 13.0563 8.62819 13.1013 8.62819 13.1013C8.62819 13.1013 8.61132 12.9719 8.69759 13.0281C8.78385 13.0844 8.7932 13.0975 8.81198 13.1369C8.83075 13.1763 8.83638 13.1482 8.90577 13.1482C8.97517 13.1482 8.97889 13.1369 9.04267 13.12C9.10643 13.1032 9.13646 13.0431 9.16459 13.0094C9.19271 12.9756 9.22273 12.9343 9.22273 12.9343C9.22273 12.9343 9.20958 12.8424 9.18708 12.8143C9.16458 12.7862 9.14209 12.7674 9.14209 12.7674L9.12313 12.7597C9.12526 12.7506 9.11399 12.7296 9.11915 12.7225C9.12395 12.716 9.14352 12.7087 9.15228 12.6987C9.16491 12.6843 9.16764 12.6603 9.18506 12.6504C9.25676 12.6437 9.28208 12.5825 9.34634 12.5747C9.35008 12.5743 9.36466 12.5717 9.36754 12.5726L9.38045 12.5954C9.38453 12.6017 9.42752 12.6296 9.43443 12.6279C9.44076 12.6265 9.44332 12.6159 9.44966 12.6136C9.46313 12.6153 9.49889 12.5914 9.50332 12.5789C9.5042 12.5764 9.49538 12.5645 9.49901 12.5565C9.50163 12.5507 9.54723 12.5146 9.55465 12.5106C9.57067 12.5105 9.58798 12.5063 9.60267 12.5127C9.61137 12.5165 9.61228 12.5323 9.62254 12.5333C9.63343 12.5344 9.65369 12.5295 9.66161 12.5312C9.67062 12.5332 9.67436 12.5135 9.68617 12.5124H9.68612Z" fill="#D0A650"/>
<path d="M14.5648 7.23207L13.8271 6.66198L13.1071 7.25421L13.4214 6.37648L12.6356 5.87471L13.5675 5.90234L13.8019 5L14.0636 5.8948L14.9942 5.8389L14.2241 6.36429L14.5648 7.23207Z" fill="white"/>
<path d="M16.8811 8.05861L16.1434 7.48852L15.4234 8.08074L15.7376 7.20302L14.9519 6.70125L15.8838 6.72887L16.1182 5.82654L16.3799 6.72134L17.3105 6.66544L16.5403 7.19083L16.8811 8.05861Z" fill="white"/>
<path d="M19.1929 8.88602L18.4552 8.31593L17.7352 8.90815L18.0494 8.03042L17.2637 7.52865L18.1955 7.55628L18.43 6.65395L18.6916 7.54875L19.6222 7.49284L18.8521 8.01824L19.1929 8.88602Z" fill="white"/>
<path d="M10.0574 7.23235L10.7951 6.66226L11.5151 7.25448L11.2008 6.37675L11.9866 5.87498L11.0547 5.90261L10.8203 5.00027L10.5586 5.89508L9.628 5.83917L10.3981 6.36456L10.0574 7.23235Z" fill="white"/>
<path d="M7.74111 8.05889L8.47877 7.48879L9.19879 8.08102L8.88455 7.20329L9.67029 6.70152L8.73841 6.72915L8.50401 5.82681L8.24232 6.72162L7.31171 6.66571L8.08185 7.1911L7.74111 8.05889Z" fill="white"/>
<path d="M5.42946 8.88629L6.16713 8.3162L6.88714 8.90843L6.57291 8.0307L7.35864 7.52893L6.42677 7.55656L6.19236 6.65422L5.93067 7.54902L5.00007 7.49312L5.77021 8.01851L5.42946 8.88629Z" fill="white"/>
</g>
<defs>
<clipPath id="clip0_1073_21690">
<rect width="24" height="24" rx="2" fill="white"/>
</clipPath>
</defs>
</svg>
