<svg width="24" height="24" viewBox="0 0 24 24" fill="none" xmlns="http://www.w3.org/2000/svg">
<g clip-path="url(#clip0_1073_21604)">
<rect x="24" y="24" width="24" height="12" transform="rotate(-180 24 24)" fill="#FF4B55"/>
<rect width="24" height="12" fill="#2B4896"/>
<path d="M5.24813 4.4328L5.18617 6.53925H3.04875C2.78578 6.02803 2.5686 5.59383 2.5686 5.00588C2.5686 4.51383 2.95562 4.12303 3.51341 4.12303C4.10388 4.12303 4.75262 4.322 5.24813 4.4328Z" fill="#FFD83D"/>
<path d="M2.82495 4.53072V5.74657Z" fill="#FFD83D"/>
<path d="M2.82495 4.53072V5.74657" stroke="black" stroke-width="0.0149983" stroke-linecap="round" stroke-linejoin="round"/>
<path d="M2.99866 4.40617V6.02507Z" fill="#FFD83D"/>
<path d="M2.99866 4.40617V6.02507" stroke="black" stroke-width="0.0149983" stroke-linecap="round" stroke-linejoin="round"/>
<path d="M3.16833 4.32129V6.24996Z" fill="#FFD83D"/>
<path d="M3.16833 4.32129V6.24996" stroke="black" stroke-width="0.0149983" stroke-linecap="round" stroke-linejoin="round"/>
<path d="M3.34204 4.28117V5.79381Z" fill="#FFD83D"/>
<path d="M3.34204 4.28117V5.79381" stroke="black" stroke-width="0.0149983" stroke-linecap="round" stroke-linejoin="round"/>
<path d="M3.5116 4.27437V5.80201Z" fill="#FFD83D"/>
<path d="M3.5116 4.27437V5.80201" stroke="black" stroke-width="0.0149983" stroke-linecap="round" stroke-linejoin="round"/>
<path d="M3.6853 4.22031V5.80048Z" fill="#FFD83D"/>
<path d="M3.6853 4.22031V5.80048" stroke="black" stroke-width="0.0149983" stroke-linecap="round" stroke-linejoin="round"/>
<path d="M3.85498 4.22058V5.80076Z" fill="#FFD83D"/>
<path d="M3.85498 4.22058V5.80076" stroke="black" stroke-width="0.0149983" stroke-linecap="round" stroke-linejoin="round"/>
<path d="M4.02869 4.23579V5.81597Z" fill="#FFD83D"/>
<path d="M4.02869 4.23579V5.81597" stroke="black" stroke-width="0.0149983" stroke-linecap="round" stroke-linejoin="round"/>
<path d="M4.19824 4.25148V5.83165Z" fill="#FFD83D"/>
<path d="M4.19824 4.25148V5.83165" stroke="black" stroke-width="0.0149983" stroke-linecap="round" stroke-linejoin="round"/>
<path d="M4.37195 4.35196V5.93213Z" fill="#FFD83D"/>
<path d="M4.37195 4.35196V5.93213" stroke="black" stroke-width="0.0149983" stroke-linecap="round" stroke-linejoin="round"/>
<path d="M4.5415 4.36821V6.14974Z" fill="#FFD83D"/>
<path d="M4.5415 4.36821V6.14974" stroke="black" stroke-width="0.0149983" stroke-linecap="round" stroke-linejoin="round"/>
<path d="M4.71533 4.36745V5.94762Z" fill="#FFD83D"/>
<path d="M4.71533 4.36745V5.94762" stroke="black" stroke-width="0.0149983" stroke-linecap="round" stroke-linejoin="round"/>
<path d="M4.88489 4.36821V5.94838Z" fill="#FFD83D"/>
<path d="M4.88489 4.36821V5.94838" stroke="black" stroke-width="0.0149983" stroke-linecap="round" stroke-linejoin="round"/>
<path d="M3.90348 4.2863C4.26624 4.34614 5.06307 4.71895 4.97219 5.22336C4.84339 5.93818 4.42593 5.65131 3.8725 5.54862L3.45431 5.68802C3.30467 5.84075 3.08432 5.98068 2.93544 5.79644H2.68762V6.76447H5.4291V4.4257L3.90348 4.2863Z" fill="black" stroke="black" stroke-width="0.0149983" stroke-linecap="round" stroke-linejoin="round"/>
<path d="M5.12963 4.28567C5.22158 4.28567 5.29612 4.21113 5.29612 4.11918C5.29612 4.02722 5.22158 3.95268 5.12963 3.95268C5.03768 3.95268 4.96313 4.02722 4.96313 4.11918C4.96313 4.21113 5.03768 4.28567 5.12963 4.28567Z" fill="#FFD83D" stroke="black" stroke-width="0.0199954" stroke-linecap="round" stroke-linejoin="round"/>
<path d="M4.7539 4.19624C4.84585 4.19624 4.92039 4.1217 4.92039 4.02974C4.92039 3.93779 4.84585 3.86325 4.7539 3.86325C4.66194 3.86325 4.5874 3.93779 4.5874 4.02974C4.5874 4.1217 4.66194 4.19624 4.7539 4.19624Z" fill="#FFD83D" stroke="black" stroke-width="0.0199954" stroke-linecap="round" stroke-linejoin="round"/>
<path d="M4.37389 4.10011C4.46584 4.10011 4.54038 4.02557 4.54038 3.93361C4.54038 3.84166 4.46584 3.76712 4.37389 3.76712C4.28194 3.76712 4.2074 3.84166 4.2074 3.93361C4.2074 4.02557 4.28194 4.10011 4.37389 4.10011Z" fill="#FFD83D" stroke="black" stroke-width="0.0199954" stroke-linecap="round" stroke-linejoin="round"/>
<path d="M3.99486 4.03671C4.08681 4.03671 4.16136 3.96217 4.16136 3.87021C4.16136 3.77826 4.08681 3.70372 3.99486 3.70372C3.90291 3.70372 3.82837 3.77826 3.82837 3.87021C3.82837 3.96217 3.90291 4.03671 3.99486 4.03671Z" fill="#FFD83D" stroke="black" stroke-width="0.0199954" stroke-linecap="round" stroke-linejoin="round"/>
<path d="M3.61376 3.99912C3.70571 3.99912 3.78025 3.92458 3.78025 3.83263C3.78025 3.74068 3.70571 3.66614 3.61376 3.66614C3.52181 3.66614 3.44727 3.74068 3.44727 3.83263C3.44727 3.92458 3.52181 3.99912 3.61376 3.99912Z" fill="#FFD83D" stroke="black" stroke-width="0.0199954" stroke-linecap="round" stroke-linejoin="round"/>
<path d="M3.23864 4.02114C3.33059 4.02114 3.40513 3.9466 3.40513 3.85465C3.40513 3.7627 3.33059 3.68816 3.23864 3.68816C3.14668 3.68816 3.07214 3.7627 3.07214 3.85465C3.07214 3.9466 3.14668 4.02114 3.23864 4.02114Z" fill="#FFD83D" stroke="black" stroke-width="0.0199954" stroke-linecap="round" stroke-linejoin="round"/>
<path d="M2.88158 4.14245C2.97353 4.14245 3.04807 4.06791 3.04807 3.97596C3.04807 3.88401 2.97353 3.80946 2.88158 3.80946C2.78963 3.80946 2.71509 3.88401 2.71509 3.97596C2.71509 4.06791 2.78963 4.14245 2.88158 4.14245Z" fill="#FFD83D" stroke="black" stroke-width="0.0199954" stroke-linecap="round" stroke-linejoin="round"/>
<path d="M2.58373 4.36308C2.67568 4.36308 2.75022 4.28854 2.75022 4.19658C2.75022 4.10463 2.67568 4.03009 2.58373 4.03009C2.49178 4.03009 2.41724 4.10463 2.41724 4.19658C2.41724 4.28854 2.49178 4.36308 2.58373 4.36308Z" fill="#FFD83D" stroke="black" stroke-width="0.0199954" stroke-linecap="round" stroke-linejoin="round"/>
<path d="M2.36889 4.67117C2.46084 4.67117 2.53538 4.59663 2.53538 4.50467C2.53538 4.41272 2.46084 4.33818 2.36889 4.33818C2.27693 4.33818 2.20239 4.41272 2.20239 4.50467C2.20239 4.59663 2.27693 4.67117 2.36889 4.67117Z" fill="#FFD83D" stroke="black" stroke-width="0.0199954" stroke-linecap="round" stroke-linejoin="round"/>
<path d="M2.26818 5.03297C2.36013 5.03297 2.43467 4.95843 2.43467 4.86648C2.43467 4.77452 2.36013 4.69998 2.26818 4.69998C2.17623 4.69998 2.10168 4.77452 2.10168 4.86648C2.10168 4.95843 2.17623 5.03297 2.26818 5.03297Z" fill="#FFD83D" stroke="black" stroke-width="0.0199954" stroke-linecap="round" stroke-linejoin="round"/>
<path d="M2.27208 5.40859C2.36404 5.40859 2.43858 5.33405 2.43858 5.2421C2.43858 5.15015 2.36404 5.07561 2.27208 5.07561C2.18013 5.07561 2.10559 5.15015 2.10559 5.2421C2.10559 5.33405 2.18013 5.40859 2.27208 5.40859Z" fill="#FFD83D" stroke="black" stroke-width="0.0199954" stroke-linecap="round" stroke-linejoin="round"/>
<path d="M2.34142 5.77667C2.43337 5.77667 2.50791 5.70213 2.50791 5.61017C2.50791 5.51822 2.43337 5.44368 2.34142 5.44368C2.24947 5.44368 2.17493 5.51822 2.17493 5.61017C2.17493 5.70213 2.24947 5.77667 2.34142 5.77667Z" fill="#FFD83D" stroke="black" stroke-width="0.0199954" stroke-linecap="round" stroke-linejoin="round"/>
<path d="M5.20486 4.34011L5.18937 4.55695C4.77512 4.49348 4.18788 4.26266 3.64051 4.26266C3.13475 4.26266 2.74217 4.46497 2.74217 4.97514C2.74217 5.47794 2.9551 5.93518 3.23781 6.40009L2.94352 6.53948C2.68055 6.02826 2.46338 5.59407 2.46338 5.00611C2.46338 4.51406 2.85039 4.03033 3.5166 4.03033C4.10707 4.03033 4.70935 4.2293 5.20486 4.34011Z" fill="#FFD83D" stroke="black" stroke-width="0.0199954" stroke-linecap="round" stroke-linejoin="round"/>
<path d="M5.62834 4.4328L5.69029 6.53925H7.82772C8.09069 6.02803 8.30786 5.59383 8.30786 5.00588C8.30786 4.51383 7.92085 4.12303 7.36306 4.12303C6.77259 4.12303 6.12384 4.322 5.62834 4.4328Z" fill="#FFD83D"/>
<path d="M8.05151 4.53072V5.74657Z" fill="#FFD83D"/>
<path d="M8.05151 4.53072V5.74657" stroke="black" stroke-width="0.0149983" stroke-linecap="round" stroke-linejoin="round"/>
<path d="M7.87781 4.40617V6.02507Z" fill="#FFD83D"/>
<path d="M7.87781 4.40617V6.02507" stroke="black" stroke-width="0.0149983" stroke-linecap="round" stroke-linejoin="round"/>
<path d="M7.70825 4.32129V6.24996Z" fill="#FFD83D"/>
<path d="M7.70825 4.32129V6.24996" stroke="black" stroke-width="0.0149983" stroke-linecap="round" stroke-linejoin="round"/>
<path d="M7.53442 4.28117V5.79381Z" fill="#FFD83D"/>
<path d="M7.53442 4.28117V5.79381" stroke="black" stroke-width="0.0149983" stroke-linecap="round" stroke-linejoin="round"/>
<path d="M7.36487 4.27437V5.80201Z" fill="#FFD83D"/>
<path d="M7.36487 4.27437V5.80201" stroke="black" stroke-width="0.0149983" stroke-linecap="round" stroke-linejoin="round"/>
<path d="M7.19116 4.22031V5.80048Z" fill="#FFD83D"/>
<path d="M7.19116 4.22031V5.80048" stroke="black" stroke-width="0.0149983" stroke-linecap="round" stroke-linejoin="round"/>
<path d="M7.02148 4.22058V5.80076Z" fill="#FFD83D"/>
<path d="M7.02148 4.22058V5.80076" stroke="black" stroke-width="0.0149983" stroke-linecap="round" stroke-linejoin="round"/>
<path d="M6.84778 4.23579V5.81597Z" fill="#FFD83D"/>
<path d="M6.84778 4.23579V5.81597" stroke="black" stroke-width="0.0149983" stroke-linecap="round" stroke-linejoin="round"/>
<path d="M6.67822 4.25148V5.83165Z" fill="#FFD83D"/>
<path d="M6.67822 4.25148V5.83165" stroke="black" stroke-width="0.0149983" stroke-linecap="round" stroke-linejoin="round"/>
<path d="M6.50452 4.35196V5.93213Z" fill="#FFD83D"/>
<path d="M6.50452 4.35196V5.93213" stroke="black" stroke-width="0.0149983" stroke-linecap="round" stroke-linejoin="round"/>
<path d="M6.33496 4.36821V6.14974Z" fill="#FFD83D"/>
<path d="M6.33496 4.36821V6.14974" stroke="black" stroke-width="0.0149983" stroke-linecap="round" stroke-linejoin="round"/>
<path d="M6.16113 4.36745V5.94762Z" fill="#FFD83D"/>
<path d="M6.16113 4.36745V5.94762" stroke="black" stroke-width="0.0149983" stroke-linecap="round" stroke-linejoin="round"/>
<path d="M5.99158 4.36821V5.94838Z" fill="#FFD83D"/>
<path d="M5.99158 4.36821V5.94838" stroke="black" stroke-width="0.0149983" stroke-linecap="round" stroke-linejoin="round"/>
<path d="M6.97299 4.2863C6.61023 4.34614 5.8134 4.71895 5.90428 5.22336C6.03307 5.93818 6.45053 5.65131 7.00397 5.54862L7.42216 5.68802C7.57179 5.84075 7.79214 5.98068 7.94103 5.79644H8.18884V6.76447H5.44737V4.4257L6.97299 4.2863Z" fill="black" stroke="black" stroke-width="0.0149983" stroke-linecap="round" stroke-linejoin="round"/>
<path d="M5.74684 4.28567C5.65488 4.28567 5.58034 4.21113 5.58034 4.11918C5.58034 4.02722 5.65488 3.95268 5.74684 3.95268C5.83879 3.95268 5.91333 4.02722 5.91333 4.11918C5.91333 4.21113 5.83879 4.28567 5.74684 4.28567Z" fill="#FFD83D" stroke="black" stroke-width="0.0199954" stroke-linecap="round" stroke-linejoin="round"/>
<path d="M6.12257 4.19624C6.03062 4.19624 5.95608 4.1217 5.95608 4.02974C5.95608 3.93779 6.03062 3.86325 6.12257 3.86325C6.21452 3.86325 6.28906 3.93779 6.28906 4.02974C6.28906 4.1217 6.21452 4.19624 6.12257 4.19624Z" fill="#FFD83D" stroke="black" stroke-width="0.0199954" stroke-linecap="round" stroke-linejoin="round"/>
<path d="M6.50257 4.10011C6.41062 4.10011 6.33608 4.02557 6.33608 3.93361C6.33608 3.84166 6.41062 3.76712 6.50257 3.76712C6.59453 3.76712 6.66907 3.84166 6.66907 3.93361C6.66907 4.02557 6.59453 4.10011 6.50257 4.10011Z" fill="#FFD83D" stroke="black" stroke-width="0.0199954" stroke-linecap="round" stroke-linejoin="round"/>
<path d="M6.8816 4.03671C6.78965 4.03671 6.71511 3.96217 6.71511 3.87021C6.71511 3.77826 6.78965 3.70372 6.8816 3.70372C6.97355 3.70372 7.0481 3.77826 7.0481 3.87021C7.0481 3.96217 6.97355 4.03671 6.8816 4.03671Z" fill="#FFD83D" stroke="black" stroke-width="0.0199954" stroke-linecap="round" stroke-linejoin="round"/>
<path d="M7.26271 3.99912C7.17075 3.99912 7.09621 3.92458 7.09621 3.83263C7.09621 3.74068 7.17075 3.66614 7.26271 3.66614C7.35466 3.66614 7.4292 3.74068 7.4292 3.83263C7.4292 3.92458 7.35466 3.99912 7.26271 3.99912Z" fill="#FFD83D" stroke="black" stroke-width="0.0199954" stroke-linecap="round" stroke-linejoin="round"/>
<path d="M7.63783 4.02114C7.54588 4.02114 7.47133 3.9466 7.47133 3.85465C7.47133 3.7627 7.54588 3.68816 7.63783 3.68816C7.72978 3.68816 7.80432 3.7627 7.80432 3.85465C7.80432 3.9466 7.72978 4.02114 7.63783 4.02114Z" fill="#FFD83D" stroke="black" stroke-width="0.0199954" stroke-linecap="round" stroke-linejoin="round"/>
<path d="M7.99488 4.14245C7.90293 4.14245 7.82839 4.06791 7.82839 3.97596C7.82839 3.88401 7.90293 3.80946 7.99488 3.80946C8.08684 3.80946 8.16138 3.88401 8.16138 3.97596C8.16138 4.06791 8.08684 4.14245 7.99488 4.14245Z" fill="#FFD83D" stroke="black" stroke-width="0.0199954" stroke-linecap="round" stroke-linejoin="round"/>
<path d="M8.29273 4.36308C8.20078 4.36308 8.12624 4.28854 8.12624 4.19658C8.12624 4.10463 8.20078 4.03009 8.29273 4.03009C8.38469 4.03009 8.45923 4.10463 8.45923 4.19658C8.45923 4.28854 8.38469 4.36308 8.29273 4.36308Z" fill="#FFD83D" stroke="black" stroke-width="0.0199954" stroke-linecap="round" stroke-linejoin="round"/>
<path d="M8.50758 4.67117C8.41563 4.67117 8.34109 4.59663 8.34109 4.50467C8.34109 4.41272 8.41563 4.33818 8.50758 4.33818C8.59953 4.33818 8.67407 4.41272 8.67407 4.50467C8.67407 4.59663 8.59953 4.67117 8.50758 4.67117Z" fill="#FFD83D" stroke="black" stroke-width="0.0199954" stroke-linecap="round" stroke-linejoin="round"/>
<path d="M8.60829 5.03297C8.51633 5.03297 8.44179 4.95843 8.44179 4.86648C8.44179 4.77452 8.51633 4.69998 8.60829 4.69998C8.70024 4.69998 8.77478 4.77452 8.77478 4.86648C8.77478 4.95843 8.70024 5.03297 8.60829 5.03297Z" fill="#FFD83D" stroke="black" stroke-width="0.0199954" stroke-linecap="round" stroke-linejoin="round"/>
<path d="M8.60438 5.40858C8.51243 5.40858 8.43789 5.33404 8.43789 5.24209C8.43789 5.15013 8.51243 5.07559 8.60438 5.07559C8.69633 5.07559 8.77087 5.15013 8.77087 5.24209C8.77087 5.33404 8.69633 5.40858 8.60438 5.40858Z" fill="#FFD83D" stroke="black" stroke-width="0.0199954" stroke-linecap="round" stroke-linejoin="round"/>
<path d="M8.53504 5.77667C8.44309 5.77667 8.36855 5.70213 8.36855 5.61017C8.36855 5.51822 8.44309 5.44368 8.53504 5.44368C8.627 5.44368 8.70154 5.51822 8.70154 5.61017C8.70154 5.70213 8.627 5.77667 8.53504 5.77667Z" fill="#FFD83D" stroke="black" stroke-width="0.0199954" stroke-linecap="round" stroke-linejoin="round"/>
<path d="M5.67173 4.34011L5.68722 4.55695C6.10146 4.49348 6.6887 4.26266 7.23608 4.26266C7.74184 4.26266 8.13441 4.46497 8.13441 4.97514C8.13441 5.47794 7.92148 5.93518 7.63878 6.40009L7.93306 6.53948C8.19603 6.02826 8.41321 5.59407 8.41321 5.00611C8.41321 4.51406 8.02619 4.03033 7.35999 4.03033C6.76952 4.03033 6.16723 4.2293 5.67173 4.34011Z" fill="#FFD83D" stroke="black" stroke-width="0.0199954" stroke-linecap="round" stroke-linejoin="round"/>
<path d="M5.43648 2.10205L5.2627 2.4275L5.43648 2.75189L5.61026 2.4275L5.43648 2.10205ZM5.43648 2.92356L5.2627 3.24796L5.43648 3.5734L5.61026 3.24796L5.43648 2.92356Z" fill="#FFD83D" stroke="black" stroke-width="0.0199954" stroke-linecap="round" stroke-linejoin="round"/>
<path d="M4.81873 2.83745L5.09278 3.01123L5.36595 2.83745L5.09278 2.66367L4.81873 2.83745ZM5.51052 2.83745L5.78369 3.01123L6.05775 2.83745L5.78369 2.66367L5.51052 2.83745Z" fill="#FFD83D" stroke="black" stroke-width="0.0199954" stroke-linecap="round" stroke-linejoin="round"/>
<path d="M5.44012 2.97302C5.51282 2.97302 5.57176 2.91408 5.57176 2.84138C5.57176 2.76867 5.51282 2.70973 5.44012 2.70973C5.36741 2.70973 5.30847 2.76867 5.30847 2.84138C5.30847 2.91408 5.36741 2.97302 5.44012 2.97302Z" fill="#FFD83D" stroke="black" stroke-width="0.0199954" stroke-linecap="round" stroke-linejoin="round"/>
<path d="M5.43659 4.03473C5.6312 4.03473 5.78896 3.87697 5.78896 3.68237C5.78896 3.48776 5.6312 3.33 5.43659 3.33C5.24199 3.33 5.08423 3.48776 5.08423 3.68237C5.08423 3.87697 5.24199 4.03473 5.43659 4.03473Z" fill="#FFD83D" stroke="black" stroke-width="0.0199954" stroke-linecap="round" stroke-linejoin="round"/>
<path d="M5.35189 3.3403C5.35189 3.44527 5.35115 3.50626 5.35084 3.56358C5.26589 3.56735 5.18213 3.57628 5.10017 3.58992M5.78056 3.58992C5.6986 3.57628 5.61484 3.56735 5.52989 3.56358C5.52989 3.50635 5.52989 3.44553 5.52989 3.3403M5.09912 3.76791C5.21016 3.74936 5.32406 3.73947 5.44037 3.73947C5.55667 3.73947 5.67057 3.74936 5.78161 3.76791" stroke="black" stroke-width="0.0149983" stroke-linecap="round" stroke-linejoin="round"/>
<path d="M5.09388 4.27773C5.06045 4.85345 4.99248 5.43978 4.76843 5.86599L5.13285 5.71853C5.26013 5.23561 5.28687 4.61164 5.32559 4.31669L5.09388 4.27773ZM5.78269 4.27773L5.55098 4.31669C5.5897 4.61164 5.61644 5.23561 5.74372 5.71853L6.10813 5.86599C5.88408 5.43978 5.81612 4.85345 5.78269 4.27773Z" fill="#FFD83D" stroke="black" stroke-width="0.0199954" stroke-linecap="round" stroke-linejoin="round"/>
<path d="M5.43772 5.52475C5.0025 5.52475 4.6828 5.72989 4.6636 6.25253C4.55721 6.06531 4.10716 5.47649 3.68726 5.55529C3.43753 5.60216 3.21686 5.94847 3.25439 6.34521C3.04762 5.75103 2.44191 5.65366 2 6.00502C2.39238 6.32764 2.56692 7.28017 2.89735 7.69334H5.43772H7.97809C8.30851 7.28017 8.48411 6.32764 8.87649 6.00502C8.43458 5.65366 7.82887 5.75103 7.6221 6.34521C7.65963 5.94847 7.43791 5.60216 7.18817 5.55529C6.76828 5.47649 6.31928 6.06531 6.21289 6.25253C6.19369 5.72989 5.87294 5.52475 5.43772 5.52475Z" fill="#FFD83D" stroke="black" stroke-width="0.0199954" stroke-linecap="round" stroke-linejoin="round"/>
<path d="M7.97113 7.69404C7.97113 7.88213 6.83663 8.089 5.43875 8.089C4.04088 8.089 2.90637 7.88213 2.90637 7.69404C2.90637 7.50595 4.04088 7.4075 5.43875 7.4075C6.83663 7.4075 7.97113 7.50595 7.97113 7.69404Z" fill="black" stroke="black" stroke-width="0.0149983" stroke-linecap="round" stroke-linejoin="round"/>
<path d="M5.43682 4.28772C5.50204 4.28772 5.55492 4.23485 5.55492 4.16962C5.55492 4.1044 5.50204 4.05153 5.43682 4.05153C5.3716 4.05153 5.31873 4.1044 5.31873 4.16962C5.31873 4.23485 5.3716 4.28772 5.43682 4.28772Z" fill="#FFD83D" stroke="black" stroke-width="0.0149983" stroke-linecap="round" stroke-linejoin="round"/>
<path d="M5.44006 4.55156C5.50956 4.55156 5.5659 4.49522 5.5659 4.42571C5.5659 4.35621 5.50956 4.29987 5.44006 4.29987C5.37055 4.29987 5.31421 4.35621 5.31421 4.42571C5.31421 4.49522 5.37055 4.55156 5.44006 4.55156Z" fill="#FFD83D" stroke="black" stroke-width="0.0149983" stroke-linecap="round" stroke-linejoin="round"/>
<path d="M5.43874 4.83728C5.51467 4.83728 5.57622 4.77573 5.57622 4.69981C5.57622 4.62388 5.51467 4.56233 5.43874 4.56233C5.36282 4.56233 5.30127 4.62388 5.30127 4.69981C5.30127 4.77573 5.36282 4.83728 5.43874 4.83728Z" fill="#FFD83D" stroke="black" stroke-width="0.0149983" stroke-linecap="round" stroke-linejoin="round"/>
<path d="M5.4388 5.16255C5.52541 5.16255 5.59562 5.09234 5.59562 5.00573C5.59562 4.91912 5.52541 4.84891 5.4388 4.84891C5.35219 4.84891 5.28198 4.91912 5.28198 5.00573C5.28198 5.09234 5.35219 5.16255 5.4388 5.16255Z" fill="#FFD83D" stroke="black" stroke-width="0.0149983" stroke-linecap="round" stroke-linejoin="round"/>
<path d="M5.44076 5.51884C5.53593 5.51884 5.61308 5.44169 5.61308 5.34652C5.61308 5.25135 5.53593 5.17419 5.44076 5.17419C5.34558 5.17419 5.26843 5.25135 5.26843 5.34652C5.26843 5.44169 5.34558 5.51884 5.44076 5.51884Z" fill="#FFD83D" stroke="black" stroke-width="0.0149983" stroke-linecap="round" stroke-linejoin="round"/>
<path d="M5.36848 5.67766C5.34985 5.67743 5.33222 5.69313 5.33689 5.72295C5.34238 5.75812 5.34926 5.8239 5.35584 5.8683C5.36329 5.91862 5.39262 5.90639 5.40008 5.86724C5.40754 5.82811 5.40453 5.80301 5.4064 5.73033C5.40733 5.69399 5.38712 5.67789 5.36848 5.67766ZM5.5054 5.67766C5.48676 5.6779 5.46655 5.69399 5.46748 5.73032C5.46935 5.80301 5.46635 5.82811 5.4738 5.86724C5.48126 5.90639 5.5106 5.91862 5.51804 5.86829C5.52463 5.8239 5.53151 5.75812 5.537 5.72295C5.54166 5.69313 5.52404 5.67743 5.5054 5.67766ZM5.24631 5.69662C5.22926 5.69899 5.21158 5.71619 5.2126 5.73454C5.21446 5.76808 5.22374 5.80831 5.22735 5.85882C5.23107 5.911 5.26785 5.89073 5.27159 5.86092C5.27531 5.83111 5.27952 5.78704 5.2758 5.72927C5.2744 5.7076 5.26494 5.69807 5.25368 5.69662C5.25133 5.69632 5.24874 5.69628 5.24631 5.69662ZM5.6202 5.69662C5.60894 5.69807 5.59948 5.7076 5.59808 5.72927C5.59436 5.78704 5.59858 5.83111 5.6023 5.86092C5.60603 5.89073 5.64281 5.911 5.64653 5.85882C5.65014 5.80831 5.65942 5.76808 5.66128 5.73454C5.6623 5.71619 5.64462 5.69899 5.62757 5.69662C5.62514 5.69628 5.62255 5.69632 5.6202 5.69662ZM5.09991 5.7556C5.0843 5.75963 5.06997 5.7784 5.07463 5.79984C5.08395 5.8427 5.09254 5.8901 5.09254 5.9336C5.09254 5.97087 5.12437 5.95757 5.12624 5.93149C5.12809 5.90539 5.13151 5.85015 5.13151 5.79984C5.13151 5.76227 5.11552 5.75157 5.09991 5.7556ZM5.76344 5.7556C5.75236 5.75867 5.74238 5.77166 5.74238 5.79984C5.74238 5.85015 5.74579 5.90539 5.74764 5.93149C5.74951 5.95757 5.78135 5.97087 5.78135 5.9336C5.78135 5.8901 5.78994 5.8427 5.79925 5.79984C5.80391 5.7784 5.78958 5.75963 5.77397 5.7556C5.77007 5.75459 5.76713 5.75458 5.76344 5.7556ZM3.7718 5.76136C3.75312 5.76074 3.74002 5.78607 3.75284 5.81402C3.77333 5.85876 3.7951 5.88698 3.81603 5.93514C3.83467 5.97801 3.86326 5.95128 3.85395 5.92145C3.84462 5.89163 3.8345 5.85842 3.80655 5.79507C3.79607 5.7713 3.783 5.76174 3.7718 5.76136ZM7.10209 5.76136C7.09088 5.76174 7.07782 5.7713 7.06733 5.79507C7.03938 5.85842 7.02926 5.89163 7.01993 5.92145C7.01062 5.95128 7.03921 5.97801 7.05785 5.93514C7.07878 5.88698 7.10055 5.85876 7.12104 5.81402C7.13386 5.78607 7.12077 5.76074 7.10209 5.76136ZM3.90661 5.76347C3.89286 5.76766 3.88453 5.7851 3.89292 5.8056C3.9097 5.8466 3.93392 5.88863 3.95084 5.93304C3.96575 5.97217 3.9989 5.96107 3.98771 5.92567C3.97653 5.89026 3.9732 5.86953 3.95084 5.80244C3.93966 5.7689 3.92035 5.75928 3.90661 5.76347ZM6.95674 5.76347C6.94499 5.76598 6.93143 5.77728 6.92304 5.80244C6.90068 5.86953 6.89736 5.89026 6.88618 5.92567C6.87498 5.96107 6.90814 5.97217 6.92304 5.93304C6.93996 5.88863 6.96418 5.8466 6.98097 5.8056C6.98935 5.7851 6.98103 5.76766 6.96727 5.76347C6.96384 5.76242 6.96066 5.76263 6.95674 5.76347ZM4.07512 5.79612C4.0578 5.79942 4.04438 5.82585 4.05617 5.85826C4.07108 5.89926 4.0923 5.93806 4.11093 5.98465C4.12957 6.03124 4.16052 6.02184 4.15306 5.99202C4.14561 5.9622 4.13647 5.91279 4.11409 5.83825C4.10431 5.80563 4.0886 5.79355 4.07512 5.79612ZM6.79876 5.79612C6.78528 5.79355 6.76957 5.80563 6.75979 5.83825C6.73741 5.91279 6.72828 5.9622 6.72082 5.99202C6.71336 6.02184 6.74431 6.03124 6.76295 5.98465C6.78159 5.93806 6.8028 5.89926 6.81772 5.85826C6.8295 5.82585 6.81608 5.79942 6.79876 5.79612ZM3.65805 5.81929C3.63928 5.82121 3.62218 5.85182 3.63382 5.87511C3.65248 5.91239 3.66428 5.92507 3.68227 5.96464C3.70091 6.00563 3.72133 5.97388 3.71387 5.94778C3.70641 5.92169 3.69685 5.89131 3.68754 5.85405C3.68071 5.82675 3.66931 5.81814 3.65805 5.81929ZM7.21583 5.81929C7.20457 5.81814 7.19317 5.82675 7.18634 5.85405C7.17703 5.89131 7.16747 5.92169 7.16001 5.94778C7.15256 5.97388 7.17297 6.00563 7.19161 5.96464C7.2096 5.92507 7.22141 5.91239 7.24006 5.87511C7.2517 5.85182 7.2346 5.82121 7.21583 5.81929ZM4.95667 5.91358C4.937 5.91357 4.91598 5.93968 4.92297 5.96414C4.93415 6.00328 4.95143 6.03798 4.96404 6.08842C4.97522 6.13314 5.00699 6.11087 5.00512 6.08105C5.00325 6.05123 4.99814 6.01066 4.98511 5.94729C4.98022 5.92353 4.96848 5.9136 4.95667 5.91358ZM5.91721 5.91358C5.90541 5.9136 5.89367 5.92353 5.88877 5.94729C5.87574 6.01066 5.87063 6.05123 5.86876 6.08105C5.8669 6.11087 5.89866 6.13314 5.90984 6.08842C5.92245 6.03798 5.93973 6.00328 5.95091 5.96414C5.9579 5.93968 5.93689 5.91357 5.91721 5.91358ZM5.43694 5.95361C5.4127 5.95361 5.40935 5.98615 5.4085 6.01259C5.40572 6.09925 5.36975 6.18341 5.33899 6.22534C5.30825 6.26728 5.26297 6.25612 5.22103 6.23376C5.17909 6.2114 5.15411 6.19465 5.10939 6.16109C5.06465 6.12755 5.03074 6.14716 5.08411 6.22323C5.23973 6.44501 5.4085 6.63457 5.4085 6.9963C5.4085 7.04307 5.41668 7.05738 5.43694 7.05738C5.45721 7.05738 5.46643 7.04307 5.46643 6.9963C5.46643 6.63457 5.63415 6.44501 5.78977 6.22323C5.84314 6.14716 5.80923 6.12755 5.76449 6.16109C5.71977 6.19465 5.69479 6.2114 5.65285 6.23376C5.61091 6.25612 5.56564 6.26728 5.53489 6.22534C5.50413 6.18341 5.46816 6.09925 5.46538 6.01259C5.46453 5.98615 5.46118 5.95361 5.43694 5.95361ZM4.24785 5.89934C4.24573 5.89927 4.24342 5.89979 4.24153 5.90039C4.23248 5.90324 4.22645 5.91416 4.22995 5.93304C4.2362 5.96682 4.25961 6.03302 4.26892 6.06469C4.27824 6.09638 4.3172 6.08964 4.30789 6.04678C4.29856 6.00392 4.29906 5.99097 4.28788 5.94252C4.28176 5.91602 4.2627 5.89974 4.24785 5.89934ZM6.62603 5.89934C6.61118 5.89974 6.59212 5.91602 6.58601 5.94252C6.57483 5.99097 6.57532 6.00392 6.566 6.04679C6.55668 6.08964 6.59564 6.09638 6.60496 6.06469C6.61428 6.03302 6.63768 5.96682 6.64393 5.93304C6.64743 5.91417 6.6414 5.90324 6.63235 5.90039C6.63046 5.8998 6.62815 5.89927 6.62603 5.89934ZM3.54114 5.91303C3.52163 5.91455 3.50764 5.93906 3.52745 5.97517C3.54881 6.01416 3.58546 6.06307 3.60223 6.09102C3.619 6.11897 3.64801 6.10011 3.6275 6.06469C3.60701 6.02928 3.60013 5.98862 3.5759 5.9383C3.56681 5.91943 3.55284 5.91211 3.54114 5.91303ZM7.33274 5.91303C7.32104 5.91211 7.30707 5.91943 7.29799 5.9383C7.27376 5.98862 7.26687 6.02928 7.24638 6.06469C7.22587 6.10011 7.25488 6.11897 7.27165 6.09102C7.28842 6.06307 7.32507 6.01416 7.34643 5.97517C7.36624 5.93906 7.35225 5.91455 7.33274 5.91303ZM2.47317 6.02523C2.45067 6.02403 2.44361 6.06467 2.46475 6.09158C2.49551 6.13071 2.51691 6.15147 2.55216 6.18321C2.58013 6.20837 2.58826 6.17572 2.57428 6.15056C2.56031 6.1254 2.54009 6.09982 2.51214 6.05788C2.49682 6.03489 2.4834 6.02577 2.47317 6.02523ZM8.40071 6.02523C8.39048 6.02577 8.37706 6.03489 8.36174 6.05788C8.33379 6.09982 8.31357 6.1254 8.2996 6.15056C8.28562 6.17572 8.29375 6.20837 8.32172 6.18321C8.35697 6.15147 8.37838 6.13071 8.40914 6.09158C8.43027 6.06467 8.42322 6.02403 8.40071 6.02523ZM2.64274 6.05893C2.6248 6.05917 2.61297 6.07241 2.62694 6.10316C2.64696 6.14718 2.67335 6.19705 2.69014 6.2306C2.70691 6.26415 2.75802 6.27541 2.73753 6.22323C2.71703 6.17105 2.71299 6.14425 2.69435 6.09579C2.68503 6.07156 2.66068 6.0587 2.64274 6.05893ZM8.23114 6.05893C8.2132 6.05869 8.18885 6.07156 8.17953 6.09579C8.16089 6.14425 8.15686 6.17105 8.13635 6.22323C8.11586 6.27541 8.16697 6.26415 8.18375 6.2306C8.20053 6.19705 8.22692 6.14718 8.24694 6.10316C8.26091 6.07241 8.24908 6.05916 8.23114 6.05893ZM2.31414 6.07051C2.28806 6.07078 2.28581 6.09693 2.30887 6.1137C2.33963 6.13606 2.37628 6.16088 2.41209 6.18953C2.45401 6.22307 2.47026 6.19222 2.4479 6.16425C2.42554 6.1363 2.40375 6.10796 2.34784 6.07999C2.33386 6.07301 2.32283 6.07043 2.31414 6.07051ZM8.55975 6.07051C8.55105 6.07041 8.54002 6.07301 8.52604 6.07999C8.47013 6.10796 8.44835 6.1363 8.42599 6.16425C8.40363 6.19222 8.41987 6.22307 8.4618 6.18953C8.4976 6.16088 8.53425 6.13606 8.56501 6.1137C8.58807 6.09693 8.58582 6.07078 8.55975 6.07051ZM4.86399 6.09474C4.8494 6.09678 4.83681 6.11335 4.84292 6.13476C4.8541 6.17389 4.8668 6.21536 4.87452 6.25588C4.88198 6.29503 4.92727 6.2955 4.91981 6.26009C4.91237 6.22469 4.90862 6.18038 4.89558 6.12634C4.89069 6.10607 4.88048 6.09633 4.87031 6.09474C4.86819 6.0944 4.86607 6.09444 4.86399 6.09474ZM6.00358 6.09474C5.99341 6.09633 5.98319 6.10607 5.9783 6.12634C5.96526 6.18038 5.96152 6.22469 5.95407 6.26009C5.94662 6.2955 5.9919 6.29503 5.99936 6.25588C6.00709 6.21536 6.01978 6.17389 6.03096 6.13476C6.03707 6.11335 6.02449 6.09678 6.00989 6.09474C6.00781 6.09444 6.00569 6.0944 6.00358 6.09474ZM3.84973 6.02783C3.83828 6.031 3.83168 6.0529 3.84026 6.08365C3.88779 6.25417 3.90235 6.34398 3.89397 6.38592C3.88559 6.42785 3.86258 6.4336 3.83183 6.41963C3.80108 6.40565 3.76499 6.38548 3.73704 6.36591C3.70909 6.34633 3.68002 6.36975 3.72019 6.40278C3.92425 6.57051 4.06571 6.76219 4.12041 6.99469C4.13159 7.0422 4.16145 7.04779 4.15306 6.99469C4.10681 6.70181 4.09792 6.46105 4.16781 6.31009C4.19407 6.25336 4.16761 6.19888 4.12568 6.29113C4.09773 6.35264 4.05249 6.3769 4.01614 6.32378C3.97981 6.27068 3.90474 6.12899 3.88238 6.06469C3.87399 6.04058 3.86365 6.02942 3.855 6.02783C3.8532 6.02749 3.85137 6.02738 3.84973 6.02783ZM7.01888 6.02783C7.01024 6.02942 6.99989 6.04058 6.9915 6.06469C6.96914 6.12899 6.89407 6.27068 6.85774 6.32378C6.82139 6.3769 6.77615 6.35264 6.7482 6.29113C6.70626 6.19888 6.67981 6.25336 6.70607 6.31009C6.77596 6.46105 6.76707 6.70181 6.72082 6.99469C6.71243 7.04779 6.74229 7.0422 6.75347 6.99469C6.80818 6.76219 6.94963 6.57051 7.15369 6.40278C7.19386 6.36975 7.16479 6.34633 7.13684 6.36591C7.10889 6.38548 7.0728 6.40565 7.04205 6.41963C7.01131 6.4336 6.9883 6.42785 6.97991 6.38592C6.97153 6.34398 6.9861 6.25417 7.03363 6.08365C7.0422 6.0529 7.0356 6.031 7.02415 6.02783C7.02251 6.02738 7.02068 6.02749 7.01888 6.02783ZM2.8239 6.10948C2.80549 6.10972 2.79023 6.12261 2.79862 6.15056C2.81206 6.19534 2.83986 6.24373 2.84917 6.27168C2.8585 6.29963 2.88847 6.28659 2.88288 6.24746C2.87729 6.20833 2.87454 6.185 2.86708 6.14213C2.86335 6.12071 2.8423 6.10925 2.8239 6.10948ZM8.04999 6.10948C8.03158 6.10925 8.01053 6.12071 8.0068 6.14213C7.99935 6.185 7.9966 6.20833 7.99101 6.24746C7.98542 6.28659 8.01538 6.29963 8.02471 6.27168C8.03402 6.24373 8.06182 6.19534 8.07526 6.15056C8.08365 6.12261 8.06839 6.10972 8.04999 6.10948ZM3.45688 6.051C3.43548 6.04716 3.4324 6.10237 3.45056 6.12472C3.47479 6.15456 3.50844 6.19061 3.54219 6.2311C3.57014 6.26466 3.58741 6.23483 3.57063 6.20688C3.55386 6.17891 3.52899 6.1492 3.48427 6.07838C3.47308 6.06068 3.46402 6.05228 3.45688 6.051ZM7.417 6.051C7.40987 6.05228 7.4008 6.06068 7.38962 6.07838C7.3449 6.1492 7.32002 6.17891 7.30325 6.20688C7.28647 6.23483 7.30374 6.26466 7.33169 6.2311C7.36544 6.19061 7.39909 6.15456 7.42332 6.12472C7.44148 6.10237 7.4384 6.04716 7.417 6.051ZM2.96819 6.18426C2.95491 6.18333 2.94364 6.1941 2.94923 6.22113C2.95702 6.25875 2.96834 6.28999 2.97767 6.32539C2.98698 6.3608 3.01137 6.35474 3.01137 6.32118C3.01137 6.28764 3.00537 6.25021 2.99978 6.21481C2.99699 6.1971 2.98147 6.1852 2.96819 6.18426ZM7.90569 6.18426C7.89241 6.1852 7.87689 6.1971 7.8741 6.21481C7.86851 6.25021 7.86251 6.28764 7.86251 6.32118C7.86251 6.35474 7.8869 6.3608 7.89622 6.32539C7.90554 6.28999 7.91686 6.25875 7.92465 6.22113C7.93024 6.1941 7.91897 6.18333 7.90569 6.18426ZM3.40949 6.23215C3.38863 6.2353 3.37028 6.25547 3.39474 6.28692C3.43387 6.33723 3.47672 6.37255 3.49164 6.39119C3.50654 6.40983 3.5443 6.40295 3.52008 6.36381C3.49531 6.32382 3.45785 6.27566 3.44108 6.24585C3.4348 6.23466 3.422 6.23026 3.40949 6.23215ZM7.45597 6.23215C7.4468 6.23312 7.43751 6.23746 7.4328 6.24585C7.41603 6.27566 7.37857 6.32382 7.35381 6.36381C7.32958 6.40295 7.36734 6.40983 7.38224 6.39119C7.39716 6.37255 7.44001 6.33723 7.47914 6.28692C7.50361 6.25547 7.48525 6.2353 7.46439 6.23215C7.46127 6.23168 7.45903 6.23182 7.45597 6.23215ZM2.71331 6.37279C2.69685 6.3713 2.69117 6.38457 2.71331 6.41492C2.76362 6.48387 2.81912 6.58821 2.82284 6.63294C2.82658 6.67767 2.80446 6.67717 2.78387 6.67717C2.72237 6.67717 2.69232 6.63228 2.63642 6.61924C2.58051 6.6062 2.57239 6.6356 2.6122 6.66453C2.81719 6.81362 3.02266 6.97997 3.10511 7.13111C3.13865 7.19261 3.18399 7.2151 3.15882 7.15639C3.08174 6.97651 3.06306 6.82419 3.07983 6.73194C3.09661 6.63969 3.11949 6.57757 3.11669 6.52445C3.1139 6.47135 3.08378 6.47497 3.0714 6.52445C3.06302 6.55801 3.04677 6.60246 3.03559 6.61924C3.02441 6.63601 2.97946 6.64542 2.93659 6.58765C2.89372 6.52988 2.78558 6.41864 2.75017 6.39069C2.73689 6.38021 2.72318 6.37369 2.71331 6.37279ZM8.16057 6.37279C8.1507 6.37369 8.13699 6.38021 8.12371 6.39069C8.0883 6.41864 7.98016 6.52988 7.93729 6.58765C7.89443 6.64542 7.84947 6.63601 7.83829 6.61924C7.82711 6.60246 7.81086 6.55801 7.80248 6.52445C7.79011 6.47497 7.75998 6.47135 7.75719 6.52445C7.7544 6.57757 7.77727 6.63969 7.79405 6.73194C7.81082 6.82419 7.79214 6.97651 7.71506 7.15639C7.68989 7.2151 7.73523 7.19261 7.76878 7.13111C7.85122 6.97997 8.05669 6.81362 8.26168 6.66453C8.30149 6.6356 8.29337 6.6062 8.23746 6.61924C8.18156 6.63228 8.15151 6.67717 8.09001 6.67717C8.06942 6.67717 8.0473 6.67767 8.05104 6.63294C8.05476 6.58821 8.11026 6.48387 8.16057 6.41492C8.18271 6.38457 8.17703 6.3713 8.16057 6.37279Z" fill="black"/>
<path d="M3.01562 7.47893L3.08134 7.68702ZM3.15079 7.43949L3.20902 7.6498ZM3.2968 7.41548L3.33681 7.63ZM3.4323 7.38837L3.47512 7.60235ZM3.60606 7.37122L3.64087 7.58664ZM3.7909 7.37145L3.8284 7.58642ZM3.97134 7.31043L3.99842 7.52696ZM4.1411 7.32138L4.16818 7.53791ZM4.30538 7.29948L4.33246 7.51601ZM4.47028 7.28246L4.48518 7.50017ZM4.6465 7.2824L4.65942 7.50023ZM4.80626 7.2714L4.81727 7.48934ZM4.98243 7.2604L4.99157 7.47843ZM5.18504 7.25492L5.19418 7.47295ZM7.85822 7.47893L7.79251 7.68702ZM7.72305 7.43949L7.66482 7.6498ZM7.57704 7.41548L7.53703 7.63ZM7.44154 7.38837L7.39873 7.60235ZM7.26778 7.37122L7.23297 7.58664ZM7.08294 7.37145L7.04545 7.58642ZM6.9025 7.31043L6.87542 7.52696ZM6.73274 7.32138L6.70566 7.53791ZM6.56846 7.29948L6.54138 7.51601ZM6.40356 7.28246L6.38867 7.50017ZM6.22734 7.2824L6.21442 7.50023ZM6.06758 7.2714L6.05657 7.48934ZM5.89142 7.2604L5.88227 7.47843ZM5.6888 7.25492L5.67966 7.47295ZM5.43692 7.24074V7.48081Z" fill="#FFD83D"/>
<path d="M3.01562 7.47893L3.08134 7.68702M3.15079 7.43949L3.20902 7.6498M3.2968 7.41548L3.33681 7.63M3.4323 7.38837L3.47512 7.60235M3.60606 7.37122L3.64087 7.58664M3.7909 7.37145L3.8284 7.58642M3.97134 7.31043L3.99842 7.52696M4.1411 7.32138L4.16818 7.53791M4.30538 7.29948L4.33246 7.51601M4.47028 7.28246L4.48518 7.50017M4.6465 7.2824L4.65942 7.50023M4.80626 7.2714L4.81727 7.48934M4.98243 7.2604L4.99157 7.47843M5.18504 7.25492L5.19418 7.47295M7.85822 7.47893L7.79251 7.68702M7.72305 7.43949L7.66482 7.6498M7.57704 7.41548L7.53703 7.63M7.44154 7.38837L7.39873 7.60235M7.26778 7.37122L7.23297 7.58664M7.08294 7.37145L7.04545 7.58642M6.9025 7.31043L6.87542 7.52696M6.73274 7.32138L6.70566 7.53791M6.56846 7.29948L6.54138 7.51601M6.40356 7.28246L6.38867 7.50017M6.22734 7.2824L6.21442 7.50023M6.06758 7.2714L6.05657 7.48934M5.89142 7.2604L5.88227 7.47843M5.6888 7.25492L5.67966 7.47295M5.43692 7.24074V7.48081" stroke="black" stroke-width="0.0149983" stroke-linecap="round" stroke-linejoin="round"/>
</g>
<defs>
<clipPath id="clip0_1073_21604">
<rect width="24" height="24" rx="2" fill="white"/>
</clipPath>
</defs>
</svg>
