<svg width="24" height="24" viewBox="0 0 24 24" fill="none" xmlns="http://www.w3.org/2000/svg">
<g clip-path="url(#clip0_1073_21488)">
<rect width="8" height="24" fill="#41479B"/>
<rect x="8" width="8" height="24" fill="#FFE15A"/>
<rect x="16" width="8" height="24" fill="#FF4B55"/>
<path d="M13.5112 14.5641L13.717 14.3962L12.779 13.2458L12.5732 13.4136L13.5112 14.5641Z" fill="#FFCD5A"/>
<path d="M12.8841 14.0032L13.2959 13.6677L12.8833 13.1612L12.4715 13.4967L12.8841 14.0032Z" fill="#FFBE5A"/>
<path d="M11.6333 13.4129L11.4275 13.2451L10.4895 14.3956L10.6953 14.5634L11.6333 13.4129Z" fill="#FFCD5A"/>
<path d="M11.7345 13.4968L11.3228 13.1614L10.9101 13.6679L11.3219 14.0033L11.7345 13.4968Z" fill="#FFBE5A"/>
<path d="M11.7721 13.6765L11.1082 15.0043L12.0376 15.6683V13.8093L11.7721 13.6765Z" fill="#FFE15A"/>
<path d="M12.3031 13.6765L12.9671 15.0043L12.0376 15.6683V13.8093L12.3031 13.6765Z" fill="#FFCD5A"/>
<path d="M10.1787 13.6765V10.2241H10.5771C10.5771 10.2241 10.5771 12.4814 10.5771 12.8798C10.5771 13.2781 10.1787 13.6765 10.1787 13.6765Z" fill="#FFBE5A"/>
<path d="M9.91309 14.3406V10.2244H10.3114C10.3114 10.2244 10.3114 13.1456 10.3114 13.5439C10.3114 13.9423 9.91309 14.3406 9.91309 14.3406Z" fill="#FFCD5A"/>
<path d="M9.64771 14.8715V10.2241H10.046C10.046 10.2241 10.046 13.6765 10.046 14.0748C10.046 14.4732 9.64771 14.8715 9.64771 14.8715Z" fill="#FFE15A"/>
<path d="M10.5771 10.3569C10.5771 10.3569 10.5771 12.2491 10.5771 12.8798C10.5771 13.5437 11.5398 13.4552 12.0378 13.942C12.5357 13.4551 13.4984 13.5437 13.4984 12.8798C13.4984 12.2491 13.4984 10.3569 13.4984 10.3569H10.5771Z" fill="#FF4B55"/>
<path d="M10.5771 11.8176C10.5771 12.238 10.5771 12.6458 10.5771 12.8799C10.5771 13.5438 11.5398 13.4553 12.0378 13.9421C12.5357 13.4552 13.4984 13.5438 13.4984 12.8799C13.4984 12.6458 13.4984 12.238 13.4984 11.8176H10.5771Z" fill="#41479B"/>
<path d="M12.0378 13.5438L11.6394 13.2782V13.1454L11.7722 13.0127V12.216L11.3739 11.9504L11.7722 11.4193H11.905L12.0378 11.552L12.1706 11.4193H12.3033L12.7017 11.9504L12.3033 12.216V13.0127L12.4361 13.1454V13.2782L12.0378 13.5438Z" fill="#FFE15A"/>
<path d="M11.5066 10.4898C11.5066 10.4898 10.9755 10.6226 10.9755 11.1537C10.9755 11.6848 11.5066 11.9504 11.5066 11.9504L11.7722 11.552C10.9755 11.2865 11.5066 10.4898 11.5066 10.4898Z" fill="#FFE15A"/>
<path d="M12.5689 10.4898C12.5689 10.4898 13.1 10.6226 13.1 11.1537C13.1 11.6848 12.5689 11.9504 12.5689 11.9504L12.3033 11.552C13.1 11.2865 12.5689 10.4898 12.5689 10.4898Z" fill="#FFE15A"/>
<path d="M10.71 11.8176L10.9756 11.9504L11.2411 11.8176L10.9756 11.6848L10.71 11.8176Z" fill="#FFE15A"/>
<path d="M12.8345 11.8176L13.1001 11.9504L13.3656 11.8176L13.1001 11.6848L12.8345 11.8176Z" fill="#FFE15A"/>
<path d="M12.0399 10.5553L12.1364 10.6542L12.2746 10.6526L12.273 10.7907L12.3718 10.8873L12.273 10.9839L12.2746 11.122L12.1364 11.1204L12.0399 11.2193L11.9433 11.1204L11.8052 11.122L11.8068 10.9839L11.7079 10.8873L11.8068 10.7907L11.8052 10.6526L11.9433 10.6542L12.0399 10.5553Z" fill="#FFE15A"/>
<path d="M11.1381 12.3976L11.2339 12.5041L11.367 12.4513C11.4359 12.424 11.5006 12.499 11.4635 12.5632L11.3918 12.6872L11.4831 12.7975C11.5304 12.8546 11.4791 12.9393 11.4066 12.9239L11.2665 12.894L11.1898 13.015C11.1501 13.0776 11.0537 13.055 11.046 12.9813L11.0312 12.8388L10.8924 12.8032C10.8206 12.7848 10.8123 12.6861 10.8801 12.656L11.011 12.5978L11.0019 12.4549C10.9972 12.3808 11.0885 12.3425 11.1381 12.3976Z" fill="#FFE15A"/>
<path d="M12.9069 12.6994C12.9362 12.5483 13.0608 12.4415 13.2061 12.4253C13.1763 12.4093 13.1446 12.3961 13.1097 12.3893C12.9237 12.3532 12.7437 12.4747 12.7076 12.6607C12.6716 12.8467 12.7931 13.0267 12.9791 13.0628C13.014 13.0696 13.0484 13.0691 13.082 13.0654C12.9532 12.9962 12.8776 12.8504 12.9069 12.6994Z" fill="#FFE15A"/>
<path d="M11.5067 10.357L11.7722 9.02917L11.2411 8.63083L11.3739 8.49803H11.6394C11.6394 8.49803 11.7722 8.36523 12.0378 8.36523C12.3033 8.36523 12.5689 8.49803 12.5689 8.89637C12.5689 9.29472 12.7017 10.357 12.7017 10.357H11.5067Z" fill="#FFE15A"/>
<path d="M10.577 9.82593C10.2837 9.82593 10.0459 10.0637 10.0459 10.3571H11.1081C11.1081 10.0637 10.8704 9.82593 10.577 9.82593Z" fill="#FFAA5A"/>
<path d="M10.4444 10.3569H9.64771V9.47307C9.64771 9.30118 9.78706 9.16187 9.95891 9.16187H10.1331C10.305 9.16187 10.4443 9.30122 10.4443 9.47307V10.3569H10.4444Z" fill="#FFBE5A"/>
<path d="M13.8968 13.6764V10.2241H13.4984C13.4984 10.2241 13.4984 12.4814 13.4984 12.8798C13.4984 13.2781 13.8968 13.6764 13.8968 13.6764Z" fill="#FFBE5A"/>
<path d="M14.161 14.3411V10.2249H13.7627C13.7627 10.2249 13.7627 13.1461 13.7627 13.5444C13.7627 13.9427 14.161 14.3411 14.161 14.3411Z" fill="#FFCD5A"/>
<path d="M14.4264 14.8722V10.2249H14.0281C14.0281 10.2249 14.0281 13.6772 14.0281 14.0755C14.0281 14.4739 14.4264 14.8722 14.4264 14.8722Z" fill="#FFE15A"/>
<path d="M13.4984 9.82593C13.7917 9.82593 14.0295 10.0637 14.0295 10.3571H12.9673C12.9672 10.0637 13.205 9.82593 13.4984 9.82593Z" fill="#FFAA5A"/>
<path d="M13.6311 10.3569H14.4278V9.47307C14.4278 9.30118 14.2884 9.16187 14.1165 9.16187H13.9423C13.7704 9.16187 13.6311 9.30122 13.6311 9.47307V10.3569Z" fill="#FFBE5A"/>
<path d="M15.1686 11.8692L14.9985 11.7656L13.1391 14.8192L13.3092 14.9228L15.1686 11.8692Z" fill="#FFAA5A"/>
<path d="M13.5456 14.7469L13.8772 14.332L13.553 14.0729L13.2213 14.4877L13.5456 14.7469Z" fill="#FFE15A"/>
<path d="M15.2228 11.9045L14.9392 11.7319L14.5409 12.3864L14.8245 12.5589L15.2228 11.9045Z" fill="#FFCD5A"/>
<path d="M11.0274 14.817L9.15308 11.9177L9.04155 11.9898L10.9158 14.8891L11.0274 14.817Z" fill="#73AF00"/>
<path d="M10.3339 13.2924C10.2862 13.3464 10.2547 13.4283 10.2467 13.5227C10.1812 13.4566 10.106 13.4145 10.0359 13.4032C10.0175 13.4717 10.025 13.5576 10.0584 13.6444C9.96904 13.6129 9.88143 13.6082 9.81262 13.6294C9.83198 13.7273 9.91172 13.8335 10.0339 13.9064C10.1561 13.9793 10.2875 13.999 10.3828 13.9696L10.41 13.9519C10.476 13.8771 10.5119 13.7493 10.4956 13.6079C10.4793 13.4666 10.4152 13.3503 10.3339 13.2924Z" fill="#73AF00"/>
<path d="M10.3945 14.0932C10.4679 14.0932 10.5273 14.0338 10.5273 13.9604C10.5273 13.8871 10.4679 13.8276 10.3945 13.8276C10.3212 13.8276 10.2617 13.8871 10.2617 13.9604C10.2617 14.0338 10.3212 14.0932 10.3945 14.0932Z" fill="#FF4B55"/>
<path d="M9.8252 12.5125C9.77758 12.5665 9.74599 12.6483 9.73802 12.7427C9.67253 12.6766 9.59735 12.6345 9.52727 12.6232C9.5088 12.6917 9.51635 12.7776 9.54972 12.8644C9.46038 12.8329 9.37277 12.8282 9.30396 12.8494C9.32331 12.9472 9.40305 13.0535 9.52525 13.1264C9.64745 13.1993 9.7788 13.219 9.8741 13.1896L9.90133 13.1719C9.96728 13.0971 10.0032 12.9692 9.98692 12.8279C9.97061 12.6865 9.90649 12.5702 9.8252 12.5125Z" fill="#73AF00"/>
<path d="M9.88963 13.3127C9.96297 13.3127 10.0224 13.2533 10.0224 13.1799C10.0224 13.1066 9.96297 13.0471 9.88963 13.0471C9.81629 13.0471 9.75684 13.1066 9.75684 13.1799C9.75684 13.2533 9.81629 13.3127 9.88963 13.3127Z" fill="#FF4B55"/>
<path d="M9.32252 11.731C9.27489 11.785 9.2433 11.8668 9.23533 11.9613C9.16985 11.8952 9.09466 11.853 9.02458 11.8418C9.00611 11.9103 9.01361 11.9961 9.04703 12.083C8.95769 12.0515 8.87008 12.0467 8.80127 12.0679C8.82063 12.1658 8.90036 12.272 9.02257 12.3449C9.14477 12.4178 9.27611 12.4376 9.37141 12.4081L9.39864 12.3905C9.4646 12.3157 9.50055 12.1878 9.48424 12.0464C9.46797 11.9051 9.4038 11.7888 9.32252 11.731Z" fill="#73AF00"/>
<path d="M9.38646 12.532C9.4598 12.532 9.51926 12.4725 9.51926 12.3992C9.51926 12.3258 9.4598 12.2664 9.38646 12.2664C9.31312 12.2664 9.25366 12.3258 9.25366 12.3992C9.25366 12.4725 9.31312 12.532 9.38646 12.532Z" fill="#FF4B55"/>
<path d="M10.9859 14.4883L10.6543 14.0734L10.3301 14.3326L10.6617 14.7475L10.9859 14.4883Z" fill="#FFE15A"/>
<path d="M11.3739 8.09962H11.2411V9.0291H11.3739V8.09962Z" fill="#FFE15A"/>
<path d="M11.5067 8.23274H11.1084V8.36554H11.5067V8.23274Z" fill="#FFE15A"/>
<path d="M11.241 8.63084L11.6393 8.92963V8.49805H11.3738L11.241 8.63084Z" fill="#FF875A"/>
<path d="M11.3719 8.09956V8.23236H11.5047V8.36516H11.3719V8.49795H11.6375C11.6375 8.49795 11.7702 8.36516 12.0358 8.36516C12.3013 8.36516 12.5669 8.49795 12.5669 8.8963C12.5669 9.29464 12.6997 10.3569 12.6997 10.3569H12.9653C12.9653 10.0636 13.2031 9.82578 13.4964 9.82578C13.5425 9.82578 13.5865 9.83352 13.6292 9.84458V9.56023C13.6292 9.34025 13.8076 9.16189 14.0276 9.16189C14.2475 9.16189 14.4259 9.34025 14.4259 9.56023V10.2241V10.3569V12.7019L14.5974 12.4202L14.5407 12.3857L14.939 11.7312L14.9957 11.7657V11.7657L15.0808 11.8175L15.2226 11.9038L14.8242 12.5582L14.7675 12.5237L14.4259 13.0849V14.8715C14.4259 14.8715 14.1088 14.5535 14.041 14.2017C13.9925 14.1394 13.9366 14.0599 13.8874 13.9696L13.7354 14.2192L13.8767 14.3322L13.5451 14.747L13.457 14.6767L13.3069 14.9233L13.1368 14.8197L13.3002 14.5513L13.2208 14.4879L13.3338 14.3466L12.9854 13.9194L12.8824 14.0032L12.5726 13.623C12.4902 13.6562 12.4086 13.6926 12.3302 13.7342L12.9652 15.0043L12.0357 15.6682L11.1063 15.0043L11.7413 13.7342C11.6945 13.7094 11.6468 13.6858 11.5981 13.6643L11.3219 14.0032L11.219 13.9194L10.8706 14.3466L10.9835 14.4879L10.8708 14.5781L11.0249 14.8165L10.9134 14.8886L10.7665 14.6614L10.6593 14.7471L10.3277 14.3322L10.4767 14.2131L10.3977 14.0909C10.3958 14.091 10.394 14.091 10.3921 14.091C10.3487 14.091 10.3062 14.0716 10.2809 14.0325C10.2701 14.0158 10.2643 13.9977 10.2617 13.9793C10.2367 13.9778 10.2114 13.9742 10.185 13.9679C10.1357 14.0589 10.0794 14.1391 10.0306 14.2018C9.96279 14.5535 9.64568 14.8715 9.64568 14.8715V13.1778C9.60556 13.1652 9.56511 13.1492 9.52531 13.1255C9.40311 13.0526 9.32342 12.9463 9.30406 12.8485C9.332 12.8398 9.36298 12.8355 9.39598 12.8355C9.44426 12.8355 9.49672 12.8448 9.54982 12.8636C9.53253 12.8186 9.5225 12.774 9.51908 12.7318L9.38848 12.5298C9.38661 12.5299 9.38478 12.5299 9.3829 12.5299C9.3395 12.5299 9.29698 12.5105 9.27172 12.4714C9.26093 12.4548 9.25512 12.4366 9.2525 12.4182C9.179 12.4138 9.09847 12.3913 9.02075 12.3449C8.89854 12.272 8.81886 12.1657 8.79945 12.0679C8.82739 12.0593 8.85837 12.055 8.89137 12.055C8.93965 12.055 8.99211 12.0643 9.04522 12.083C9.01184 11.9961 9.00429 11.9102 9.02276 11.8417C9.09279 11.853 9.16803 11.8951 9.23351 11.9612C9.24148 11.8668 9.27307 11.785 9.3207 11.7309C9.40198 11.7888 9.46611 11.9051 9.48242 12.0464C9.49282 12.1363 9.48026 12.219 9.45406 12.2878C9.46976 12.2978 9.48392 12.3106 9.4947 12.3272C9.52109 12.368 9.52015 12.4171 9.5 12.4577L9.63059 12.6597C9.63565 12.6625 9.64062 12.6659 9.64568 12.669V10.3569V10.2241V9.56023C9.64568 9.34025 9.82404 9.16189 10.044 9.16189C10.264 9.16189 10.4424 9.34025 10.4424 9.56023V9.84458C10.4851 9.83352 10.529 9.82578 10.5752 9.82578C10.8685 9.82578 11.1063 10.0636 11.1063 10.3569H11.5047L11.7702 9.02909L11.6374 8.92953L11.3719 8.73036V9.02914H11.2391V8.36525H11.1063V8.23245H11.2391V8.09966H11.3719M13.5034 14.1344L13.5525 14.073L13.5786 14.0939L13.7926 13.7423C13.7739 13.6773 13.762 13.6106 13.762 13.5437C13.762 13.5372 13.762 13.5282 13.762 13.5203C13.6461 13.3679 13.4965 13.124 13.4965 12.8797C13.4965 13.1594 13.3248 13.3051 13.0899 13.417L13.2942 13.6678L13.1913 13.7516L13.5034 14.1344ZM10.581 14.1297L10.652 14.073L10.701 14.1344L11.0132 13.7516L10.9103 13.6678L11.0793 13.4604C10.7956 13.3419 10.5753 13.1968 10.5753 12.8797C10.5753 13.0574 10.4959 13.235 10.4081 13.3773C10.4498 13.4385 10.4813 13.5168 10.4917 13.6075C10.5021 13.6974 10.4896 13.7801 10.4634 13.8489C10.4791 13.8588 10.4932 13.8716 10.504 13.8883C10.5304 13.9291 10.5295 13.9781 10.5093 14.0187L10.581 14.1297ZM11.3719 8H11.2391C11.1841 8 11.1395 8.04458 11.1395 8.09956V8.13275H11.1063C11.0513 8.13275 11.0067 8.17733 11.0067 8.23236V8.36516C11.0067 8.42014 11.0513 8.46477 11.1063 8.46477H11.1395V9.02909C11.1395 9.08408 11.1841 9.12866 11.2391 9.12866H11.3719C11.4269 9.12866 11.4715 9.08408 11.4715 9.02909V8.92953L11.5777 9.00922L11.6603 9.07114L11.4231 10.2574H11.1981C11.1503 9.9567 10.8892 9.72622 10.5753 9.72622C10.5642 9.72622 10.5532 9.72655 10.5421 9.72725V9.56023C10.5421 9.28569 10.3187 9.06228 10.0442 9.06228C9.76962 9.06228 9.54622 9.28564 9.54622 9.56023V10.2241V10.3569V11.884C9.51026 11.7848 9.45181 11.7019 9.37854 11.6498C9.36111 11.6374 9.3409 11.6314 9.32084 11.6313C9.29309 11.6313 9.26567 11.6428 9.24608 11.6651C9.21542 11.6998 9.1902 11.7423 9.1714 11.7901C9.12781 11.7664 9.08295 11.7505 9.0387 11.7434C9.03336 11.7425 9.02806 11.7421 9.02281 11.7421C8.97851 11.7421 8.93862 11.7717 8.92676 11.8158C8.91509 11.859 8.9112 11.9065 8.91486 11.9559C8.90703 11.9555 8.89925 11.9553 8.89151 11.9553C8.84839 11.9553 8.80761 11.9612 8.7702 11.9727C8.72145 11.9877 8.69197 12.0372 8.70186 12.0872C8.72759 12.2173 8.82776 12.3456 8.96979 12.4304C9.03533 12.4695 9.10648 12.4963 9.17872 12.5094C9.18162 12.5149 9.18476 12.5202 9.18814 12.5254C9.22086 12.576 9.27209 12.6107 9.33073 12.6237L9.40329 12.736C9.4009 12.7359 9.39847 12.7359 9.39608 12.7359C9.35295 12.7359 9.31217 12.7418 9.27476 12.7533C9.22606 12.7684 9.19653 12.8178 9.20647 12.8678C9.2322 12.998 9.33237 13.1263 9.4744 13.211C9.49714 13.2245 9.52072 13.2365 9.54622 13.2473V14.8715C9.54622 14.9118 9.5705 14.9481 9.60776 14.9635C9.62004 14.9686 9.63298 14.9711 9.64578 14.9711C9.67175 14.9711 9.69725 14.9609 9.71633 14.9418C9.72987 14.9283 10.0422 14.6117 10.1236 14.2444C10.157 14.2003 10.188 14.156 10.2161 14.1116C10.2482 14.1486 10.2915 14.1741 10.34 14.1849L10.3443 14.1915L10.2656 14.2544C10.2449 14.2709 10.2317 14.2949 10.2288 14.3211C10.2259 14.3474 10.2335 14.3737 10.25 14.3944L10.5816 14.8092C10.5981 14.8299 10.6221 14.8431 10.6483 14.846C10.652 14.8465 10.6557 14.8467 10.6594 14.8467C10.6819 14.8467 10.7038 14.839 10.7216 14.8249L10.7427 14.8079L10.8298 14.9426C10.8441 14.9648 10.8667 14.9804 10.8925 14.9859C10.8995 14.9874 10.9064 14.9881 10.9134 14.9881C10.9325 14.9881 10.9512 14.9827 10.9675 14.9722L11.0319 14.9306L11.0173 14.9598C10.9954 15.0036 11.0086 15.0568 11.0485 15.0853L11.978 15.7492C11.9952 15.7616 12.0155 15.7678 12.0358 15.7678C12.0561 15.7678 12.0764 15.7616 12.0937 15.7492L13.0232 15.0853C13.0631 15.0568 13.0763 15.0036 13.0544 14.9598L12.4639 13.7788C12.489 13.767 12.515 13.7553 12.5424 13.7435L12.8053 14.0661C12.825 14.0903 12.8536 14.1028 12.8825 14.1028C12.9047 14.1028 12.9269 14.0955 12.9454 14.0805L12.9712 14.0595L13.2059 14.3473L13.1432 14.4258C13.1267 14.4464 13.1191 14.4727 13.122 14.499C13.1249 14.5252 13.1382 14.5492 13.1588 14.5657L13.1697 14.5744L13.0519 14.768C13.0233 14.8149 13.0382 14.8762 13.0851 14.9048L13.2552 15.0084C13.271 15.0179 13.2889 15.0229 13.307 15.0229C13.3149 15.0229 13.3228 15.022 13.3306 15.0201C13.3562 15.0139 13.3784 14.9977 13.3921 14.9751L13.4834 14.8251C13.5017 14.8396 13.5235 14.8467 13.5452 14.8467C13.5744 14.8467 13.6033 14.8339 13.623 14.8092L13.9547 14.3944C13.9669 14.3791 13.9738 14.3613 13.9759 14.3432C14.0841 14.6668 14.3432 14.9294 14.3555 14.9418C14.3746 14.9609 14.4001 14.971 14.4261 14.971C14.4389 14.971 14.4518 14.9685 14.4641 14.9635C14.5014 14.9481 14.5257 14.9117 14.5257 14.8715V13.1128L14.8039 12.6557C14.8107 12.6571 14.8175 12.6578 14.8243 12.6578C14.8579 12.6578 14.8907 12.6408 14.9095 12.61L15.3078 11.9555C15.3215 11.933 15.3258 11.9059 15.3195 11.8802C15.3133 11.8546 15.2971 11.8324 15.2745 11.8187L15.1327 11.7324L15.0477 11.6806L14.9909 11.646C14.9747 11.6362 14.9569 11.6315 14.9392 11.6315C14.9056 11.6315 14.8728 11.6486 14.8541 11.6794L14.5256 12.219V10.3568V10.224V9.56014C14.5256 9.28559 14.3022 9.06219 14.0277 9.06219C13.7531 9.06219 13.5297 9.28555 13.5297 9.56014V9.72716C13.5186 9.72645 13.5076 9.72613 13.4966 9.72613C13.1826 9.72613 12.9216 9.95661 12.8737 10.2573H12.788C12.7567 9.99584 12.6666 9.21791 12.6666 8.89625C12.6666 8.4312 12.3408 8.26555 12.0359 8.26555C11.8102 8.26555 11.6645 8.35161 11.602 8.39834H11.5987C11.6024 8.38798 11.6044 8.37678 11.6044 8.36516V8.23236C11.6044 8.17738 11.5598 8.13275 11.5048 8.13275H11.4716V8.09956C11.4715 8.04458 11.4269 8 11.3719 8ZM10.5238 13.3772C10.5493 13.3323 10.5716 13.2881 10.5907 13.2445C10.6737 13.3558 10.7931 13.4351 10.9203 13.4978L10.8331 13.6048C10.8164 13.6253 10.8085 13.6516 10.8112 13.6779C10.8139 13.7042 10.8269 13.7283 10.8474 13.745L10.873 13.7658L10.6956 13.9835C10.6855 13.9785 10.6745 13.9753 10.663 13.974C10.6594 13.9736 10.6557 13.9734 10.652 13.9734C10.6421 13.9734 10.6323 13.9748 10.6229 13.9777C10.6274 13.9276 10.6156 13.8774 10.5876 13.8342C10.5843 13.829 10.5807 13.8239 10.5769 13.819C10.5946 13.7478 10.5994 13.6719 10.5906 13.5961C10.5816 13.5183 10.5588 13.4437 10.5238 13.3772ZM13.244 13.4485C13.3317 13.3973 13.4169 13.3326 13.4815 13.2455C13.5323 13.3617 13.5992 13.4673 13.6624 13.5535C13.6632 13.6089 13.6708 13.666 13.6855 13.7267L13.5343 13.9751C13.5255 13.9767 13.517 13.9795 13.5088 13.9834L13.3314 13.7658L13.3571 13.745C13.3775 13.7283 13.3905 13.7041 13.3932 13.6779C13.3959 13.6516 13.388 13.6253 13.3714 13.6048L13.244 13.4485ZM11.3219 14.1028C11.3509 14.1028 11.3795 14.0903 11.3992 14.0661L11.5671 13.86L11.1125 14.7691C11.1113 14.7668 11.11 14.7646 11.1085 14.7623L11.0033 14.5996L11.0457 14.5656C11.0663 14.5491 11.0795 14.5251 11.0825 14.4989C11.0854 14.4726 11.0778 14.4463 11.0613 14.4257L10.9986 14.3472L11.2333 14.0594L11.2591 14.0804C11.2775 14.0954 11.2998 14.1028 11.3219 14.1028ZM13.8661 14.1962L13.8878 14.1605C13.9068 14.1886 13.927 14.2165 13.9481 14.2444C13.95 14.2527 13.9519 14.2611 13.954 14.2694C13.9496 14.264 13.9445 14.2589 13.9389 14.2544L13.8661 14.1962Z" fill="#FFAA5A"/>
</g>
<defs>
<clipPath id="clip0_1073_21488">
<rect width="24" height="24" rx="2" fill="white"/>
</clipPath>
</defs>
</svg>
