<svg width="24" height="24" viewBox="0 0 24 24" fill="none" xmlns="http://www.w3.org/2000/svg">
<g clip-path="url(#clip0_1073_21444)">
<rect width="24" height="24" fill="#C02026"/>
<path d="M8.10058 9.2227L-0.761885 1.83332C-1.18119 2.56687 -1.43784 3.40731 -1.48437 4.30029C-1.48714 4.32655 -1.48529 4.34959 -1.48714 4.37401C-1.49175 4.42331 -1.49774 4.474 -1.49175 4.52699L7.64903 9.8664C7.78127 9.63417 7.92779 9.41715 8.10058 9.2227Z" fill="#F8E625"/>
<path d="M15.3683 15.2697L24.2248 22.6545C24.6422 21.9274 24.8989 21.087 24.9449 20.1912C24.9468 20.165 24.9449 20.1419 24.9468 20.1184C24.9514 20.0682 24.9583 20.0194 24.9532 19.9673L15.8115 14.6251C15.6807 14.8592 15.5323 15.0762 15.3683 15.2697Z" fill="#F8E625"/>
<path d="M11.7323 7.52149C12.006 7.52149 12.2714 7.54223 12.534 7.59061L14.0002 -0.985716V-1H9.46252V-0.985716L10.9305 7.59061C11.1969 7.54223 11.4613 7.52149 11.7323 7.52149Z" fill="#F8E625"/>
<path d="M11.7323 16.9815C11.4613 16.9815 11.1969 16.9492 10.9305 16.9032L9.46252 25.4777V25.4919H14.0002V25.4777L12.534 16.9032C12.2778 16.9492 12.006 16.9815 11.7323 16.9815Z" fill="#F8E625"/>
<path d="M15.8123 9.8664L24.954 4.52699C24.9613 4.44866 24.954 4.3777 24.9457 4.30029C24.8996 3.40731 24.6434 2.56687 24.2255 1.83332L15.3625 9.2227C15.5335 9.42452 15.6819 9.63417 15.8123 9.8664Z" fill="#F8E625"/>
<path d="M7.65037 14.6251L-1.4904 19.9673C-1.49961 20.0447 -1.4904 20.1138 -1.48303 20.1912C-1.43603 21.0865 -1.17984 21.9274 -0.754086 22.6545L8.10239 15.2794C7.92914 15.0762 7.78261 14.8592 7.65037 14.6251Z" fill="#F8E625"/>
<path d="M16.4604 12.2439C16.4604 12.4328 16.454 12.6102 16.4314 12.7973L24.963 13.7935V10.705L16.4314 11.7011C16.454 11.8804 16.4604 12.0596 16.4604 12.2439Z" fill="#F8E625"/>
<path d="M6.99477 12.2436C6.99477 12.0593 7.01182 11.8801 7.03532 11.6939L-1.5 10.6978V13.7937L7.03486 12.7975C7.01182 12.61 6.99477 12.4326 6.99477 12.2436Z" fill="#F8E625"/>
<path d="M11.7374 8.4629C9.64502 8.4629 7.95215 10.1558 7.95215 12.2435C7.95215 14.3368 9.64502 16.0269 11.7374 16.0269C12.9119 16.0269 13.9592 15.4924 14.6522 14.6529C15.1913 13.9977 15.5152 13.1591 15.5152 12.2435C15.5152 11.4598 15.2775 10.7327 14.8711 10.1295C14.1914 9.12364 13.0414 8.4629 11.7374 8.4629Z" fill="#F8E625"/>
</g>
<defs>
<clipPath id="clip0_1073_21444">
<rect width="24" height="24" rx="2" fill="white"/>
</clipPath>
</defs>
</svg>
