<svg width="24" height="24" viewBox="0 0 24 24" fill="none" xmlns="http://www.w3.org/2000/svg">
<g clip-path="url(#clip0_1073_21465)">
<rect x="0.5" y="0.5" width="23" height="23" rx="3.5" fill="#C8414B" stroke="#E6B432"/>
<path d="M18.1448 15.2718C18.201 15.8393 17.728 16.3123 17.1605 16.2561C16.7405 16.2145 16.4009 15.8748 16.3593 15.4549C16.3031 14.8874 16.7761 14.4144 17.3436 14.4706C17.7635 14.5122 18.1032 14.8518 18.1448 15.2718Z" fill="#41479B"/>
<path d="M18.8268 10.212C18.1665 10.7671 17.7224 10.7905 17.7224 10.7905C18.897 10.3113 18.7742 9.39965 18.7742 9.39965C18.219 10.1301 17.6522 10.3347 17.6522 10.3347C18.8327 9.53405 18.6457 8.45883 18.6457 8.45883C18.26 9.31205 17.772 9.64514 17.772 9.64514C18.7538 8.33906 18.2716 7.49756 18.2716 7.49756C17.886 8.70722 17.5616 9.05784 17.5616 9.05784C18.3155 7.04175 17.6698 6.46026 17.6698 6.46026C17.6698 7.54139 17.2665 8.1608 17.2665 8.1608C17.6873 6.7349 17.027 5.91675 17.027 5.91675C17.027 5.91675 17.0208 7.0792 16.7969 7.68815C16.7431 7.60659 16.7114 7.61733 16.7114 7.61733C16.5975 8.364 16.1962 8.88965 16.023 9.08751C15.9846 8.90142 15.8688 8.84442 15.8688 8.84442C15.8688 8.84442 15.8479 9.02709 15.684 9.29653C15.5767 9.47306 15.0693 9.88467 14.9875 10.247C14.9219 10.5375 15.2095 10.7788 15.303 10.8373C15.3966 10.8957 15.4959 11.0009 15.455 11.1704C15.414 11.3398 15.1102 11.3223 14.894 11.3165C14.6777 11.3106 14.6485 11.6671 14.409 11.6554L14.3684 11.9212L14.2746 11.9418C14.2746 11.9418 13.2928 13.8981 13.2092 14.5638L12.4864 14.6592L11.7635 14.5638C11.6799 13.8981 10.6982 11.9418 10.6982 11.9418L10.6044 11.9212L10.5638 11.6554C10.3242 11.6671 10.295 11.3107 10.0788 11.3165C9.86255 11.3223 9.55866 11.3399 9.51778 11.1704C9.47686 11.0009 9.57619 10.8957 9.6697 10.8373C9.76322 10.7788 10.0509 10.5375 9.98527 10.247C9.90347 9.88472 9.39609 9.47306 9.2887 9.29653C9.12478 9.02714 9.10392 8.84442 9.10392 8.84442C9.10392 8.84442 8.98819 8.90137 8.94975 9.08751C8.7765 8.88965 8.3752 8.364 8.26139 7.61733C8.26139 7.61733 8.22966 7.60659 8.17589 7.68815C7.95197 7.0792 7.94583 5.91675 7.94583 5.91675C7.94583 5.91675 7.28545 6.7349 7.70625 8.1608C7.70625 8.1608 7.30303 7.54134 7.30303 6.46026C7.30303 6.46026 6.65728 7.0417 7.41117 9.05784C7.41117 9.05784 7.08684 8.70722 6.70116 7.49756C6.70116 7.49756 6.21905 8.33906 7.2008 9.64514C7.2008 9.64514 6.71283 9.31205 6.32714 8.45883C6.32714 8.45883 6.14016 9.53409 7.32056 10.3347C7.32056 10.3347 6.7537 10.1302 6.19856 9.39965C6.19856 9.39965 6.07584 10.3113 7.25044 10.7905C7.25044 10.7905 6.8063 10.7671 6.14597 10.212C6.14597 10.212 6.02911 11.0184 7.56019 11.4333C7.56019 11.4333 6.93487 11.4217 6.29794 10.995C6.29794 10.995 6.28041 11.7898 7.58944 11.9476C7.58944 11.9476 7.15697 12.0119 6.67195 11.8365C6.67195 11.8365 6.68948 12.4793 7.82902 12.5612C7.82902 12.5612 7.37906 12.5962 7.08684 12.5261C7.08684 12.5261 7.11605 13.1865 8.016 13.0755C8.016 13.0755 7.71211 13.1748 7.61278 13.204C7.61278 13.204 7.63031 13.7431 8.56823 13.5503C8.56823 13.5503 8.40169 13.654 8.17378 13.6891C8.17378 13.6891 8.36663 14.1391 9.14972 13.9404L8.98903 14.1157C8.98903 14.1157 9.59386 14.4663 10.0584 13.9842L9.89189 14.2822C9.89189 14.2822 10.2863 14.4313 10.5318 14.0456C10.5318 14.0456 10.4646 14.6241 9.64645 14.7293C9.64645 14.7293 9.6757 14.852 9.71077 14.8987C9.71077 14.8987 9.65817 14.9981 9.18483 15.0799C9.18483 15.0799 9.28416 15.2318 9.38934 15.2786C9.38934 15.2786 9.18483 15.4539 9.07378 15.489C9.07378 15.489 9.24909 15.5767 9.36014 15.5942C9.36014 15.5942 9.1147 15.8338 8.81081 15.8396C8.50692 15.8455 7.96345 15.8104 7.96345 15.8104C7.96345 15.8104 7.95759 15.5182 7.81734 15.267C7.67709 15.0157 7.63031 14.9967 7.63031 14.9967C7.63031 14.9967 7.66102 14.7951 7.57336 14.7118C7.4857 14.6285 7.43752 14.589 7.43752 14.589C7.43752 14.589 7.48425 14.1858 7.35572 13.9345C7.22714 13.6832 6.77133 13.134 6.74798 12.7249C6.72459 12.3158 6.74213 12.1639 6.74213 12.1639L6.60187 12.1989L6.50841 12.0061L6.66619 11.9886L6.60187 11.6964L6.38564 11.7782L6.35644 11.5269L6.09933 11.6321L6.22791 11.86L6 11.9243L6.13439 12.1931L6.3097 12.0821L6.35644 12.3158C6.35644 12.3158 6.25125 12.3392 6.1928 12.4327C6.1928 12.4327 6.48192 12.6247 6.56681 12.8535C6.70125 13.2157 6.66033 14.0339 6.85317 14.2793C7.04602 14.5248 7.19794 14.6943 7.19794 14.6943C7.19794 14.6943 7.14389 14.8608 7.20525 14.9529C7.26661 15.045 7.35427 15.0712 7.35427 15.0712C7.35427 15.0712 7.30167 15.4438 7.43756 15.6892C7.57341 15.9347 7.65234 15.996 7.65234 15.996C7.65234 15.996 7.15706 16.2985 7.50769 16.6491C7.50769 16.6491 7.46095 16.9676 7.79405 17.0436C7.79405 17.0436 7.81158 17.2949 8.09794 17.2656C8.09794 17.2656 8.23819 17.2247 8.27325 17.2948C8.30831 17.3649 8.27325 17.7682 8.27325 17.7682C8.27325 17.7682 8.40183 17.7565 8.48362 17.698L8.74073 17.8266L8.74659 17.5402L9.06802 17.4117C9.06802 17.4117 8.92777 17.4351 8.64141 17.1662C8.64141 17.1662 8.68814 17.137 8.7232 16.9091C8.7232 16.9091 8.95111 16.7279 8.99784 16.5818C9.04458 16.4357 9.366 16.1143 9.74002 16.0091L9.79116 16.237C9.79116 16.237 10.3259 15.7637 10.5494 15.7374L10.7335 15.9799C10.7335 15.9799 11.4231 14.9572 11.727 14.7761C11.7036 14.8579 11.8731 14.8696 11.4961 15.2903C11.1192 15.7111 11.3529 16.0442 11.3529 16.0442C11.1192 16.237 11.166 16.4123 11.1367 16.611C11.1075 16.8097 10.3303 17.324 10.3303 17.324C10.5757 17.6337 10.8504 17.5636 10.8504 17.5636C10.6984 17.663 10.7452 17.9961 10.7452 17.9961C10.9673 18.0545 11.1893 17.9551 11.1893 17.9551C11.1134 18.1655 11.2302 18.3116 11.2302 18.3116C11.3705 18.224 11.6919 18.1714 11.6919 18.1714C11.651 18.5337 11.8847 18.7266 11.8847 18.7266L12.0892 18.5045C12.1243 18.9135 12.4867 19.1473 12.4867 19.1473C12.4867 19.1473 12.849 18.9135 12.8841 18.5045L13.0886 18.7266C13.0886 18.7266 13.3223 18.5337 13.2814 18.1714C13.2814 18.1714 13.6028 18.224 13.7431 18.3116C13.7431 18.3116 13.86 18.1656 13.784 17.9551C13.784 17.9551 14.0061 18.0545 14.2282 17.9961C14.2282 17.9961 14.2749 17.663 14.123 17.5636C14.123 17.5636 14.3976 17.6337 14.6431 17.324C14.6431 17.324 13.8659 16.8097 13.8367 16.611C13.8075 16.4123 13.8542 16.237 13.6204 16.0442C13.6204 16.0442 13.8542 15.7111 13.4772 15.2903C13.1003 14.8696 13.2698 14.8579 13.2464 14.7761C13.5503 14.9572 14.2399 15.9799 14.2399 15.9799L14.424 15.7374C14.6475 15.7637 15.1822 16.237 15.1822 16.237L15.2333 16.0091L15.243 15.9986C15.5218 16.1487 15.9822 16.3518 16.1684 16.4941C16.3671 16.6461 16.5307 16.6578 17.0099 16.4941C17.4891 16.3305 18.3806 16.0789 18.2488 15.7812C18.2416 15.7649 18.2334 15.7541 18.2256 15.7414C18.2465 15.6645 18.2551 15.5303 18.1143 15.413C18.1143 15.413 18.116 15.4457 18.1148 15.4876L17.658 15.3173C17.6429 15.2769 17.6204 15.2373 17.5767 15.2026C17.5767 15.2026 17.5774 15.2377 17.5711 15.285L17.454 15.2413L17.6878 14.5834C17.6701 14.5735 17.6502 14.568 17.6318 14.5593C17.6365 14.4997 17.6479 14.4173 17.6652 14.3312C17.7223 14.3512 17.7745 14.3759 17.8123 14.4068L17.8783 14.1659C17.8783 14.1659 17.8074 14.1613 17.7137 14.1437C17.7374 14.0711 17.7654 14.0058 17.7988 13.9637L17.4891 13.8702C17.4891 13.8702 17.4971 13.964 17.4916 14.0812C17.4325 14.0572 17.376 14.0267 17.3305 13.9877L17.2579 14.255C17.2829 14.2564 17.3674 14.2638 17.4654 14.2812C17.4477 14.3596 17.4165 14.4292 17.3718 14.4815C17.3607 14.48 17.3505 14.4761 17.3393 14.475L17.1123 15.1139L16.4964 14.8844C16.47 14.9259 16.4497 14.9712 16.4306 15.017C16.4339 15.0103 16.4368 14.9999 16.4402 14.9957C16.4402 14.9957 16.2019 15.1203 16.2052 15.3034C16.1614 15.32 16.1229 15.3529 16.1011 15.41C16.031 15.5941 16.4605 16.0061 16.3553 16.0587C16.2521 16.1103 15.7125 15.6659 15.6261 15.5913C15.7373 15.5697 15.8995 15.4889 15.8995 15.4889C15.7885 15.4538 15.584 15.2785 15.584 15.2785C15.6892 15.2318 15.7885 15.0798 15.7885 15.0798C15.3151 14.998 15.2625 14.8987 15.2625 14.8987C15.2976 14.8519 15.3268 14.7292 15.3268 14.7292C14.5087 14.624 14.4415 14.0455 14.4415 14.0455C14.6869 14.4312 15.0814 14.2822 15.0814 14.2822L14.9148 13.9841C15.3794 14.4662 15.9842 14.1156 15.9842 14.1156L15.8235 13.9403C16.6066 14.139 16.7995 13.689 16.7995 13.689C16.5716 13.6539 16.405 13.5502 16.405 13.5502C17.343 13.743 17.3605 13.2039 17.3605 13.2039C17.2612 13.1747 16.9573 13.0754 16.9573 13.0754C17.8572 13.1864 17.8864 12.526 17.8864 12.526C17.5942 12.5962 17.1443 12.5611 17.1443 12.5611C18.2838 12.4793 18.3013 11.8365 18.3013 11.8365C17.8162 12.0118 17.3838 11.9475 17.3838 11.9475C18.6929 11.7897 18.6753 10.995 18.6753 10.995C18.0383 11.4216 17.4131 11.4332 17.4131 11.4332C18.9437 11.0184 18.8268 10.212 18.8268 10.212ZM17.4988 15.993C17.4364 15.8915 17.5852 15.8009 17.6522 15.7043L17.9112 15.8009C17.8232 15.9057 17.5632 16.0975 17.4988 15.993ZM17.3258 15.5827C17.2418 15.7128 17.1833 15.8589 16.9247 15.8659C16.6004 15.8746 16.5478 15.5854 16.4776 15.4276C16.4572 15.3816 16.422 15.3468 16.3815 15.3231C16.3813 15.2948 16.3828 15.2636 16.3853 15.2323L17.3258 15.5827Z" fill="#E6B432"/>
<path d="M12.3899 9.40847C12.3899 9.40847 11.9736 9.05343 11.8508 8.86059C11.8508 8.86059 11.9911 8.80364 12.0612 8.71598C12.0612 8.71598 11.6843 8.51437 11.4827 8.30836C11.4827 8.30836 11.6142 8.28647 11.715 8.20317C11.715 8.20317 11.3765 8.142 11.2048 7.86478C11.5962 7.73118 11.4652 7.36603 11.4652 7.36603C11.3863 7.47122 11.062 7.6027 10.7113 7.45368C10.3607 7.30467 9.97503 7.40986 9.97503 7.6027C9.97503 7.6027 9.18613 7.37479 9.38333 8.1374C9.38333 8.1374 9.51046 7.8525 9.79096 7.95768C10.0715 8.06287 10.3564 8.42226 10.3564 8.42226C10.3564 8.42226 10.1811 8.51868 9.85672 8.4135C9.85672 8.4135 9.98821 8.91754 10.5799 8.66334C10.5799 8.66334 10.8137 8.78897 10.8253 9.15712C10.8253 9.15712 10.9247 9.10453 10.989 8.98767C10.989 8.98767 11.0825 9.34415 10.9598 9.63632C10.9598 9.63632 11.1234 9.60712 11.176 9.55453C11.176 9.55453 11.2228 9.86423 11.0182 10.1155C11.0182 10.1155 11.9167 10.5436 12.4865 10.0746C12.4865 10.0746 12.2717 9.82917 12.2016 9.60126C12.2015 9.60131 12.3198 9.55308 12.3899 9.40847Z" fill="#E6B432"/>
<path d="M14.9977 7.6027C14.9977 7.40986 14.612 7.30467 14.2614 7.45368C13.9108 7.6027 13.5864 7.47122 13.5075 7.36603C13.5075 7.36603 13.3765 7.73118 13.7679 7.86478C13.5962 8.142 13.2578 8.20317 13.2578 8.20317C13.3585 8.28647 13.49 8.30836 13.49 8.30836C13.2884 8.51437 12.9115 8.71598 12.9115 8.71598C12.9816 8.80364 13.1219 8.86059 13.1219 8.86059C12.9991 9.05343 12.5827 9.40847 12.5827 9.40847C12.6529 9.55312 12.7712 9.60131 12.7712 9.60131C12.7011 9.82922 12.4863 10.0747 12.4863 10.0747C13.0561 10.5436 13.9546 10.1156 13.9546 10.1156C13.7501 9.86428 13.7968 9.55457 13.7968 9.55457C13.8494 9.60717 14.013 9.63637 14.013 9.63637C13.8903 9.3442 13.9838 8.98772 13.9838 8.98772C14.0481 9.10458 14.1475 9.15717 14.1475 9.15717C14.1592 8.78901 14.3929 8.66339 14.3929 8.66339C14.9846 8.91759 15.1161 8.41354 15.1161 8.41354C14.7918 8.51873 14.6165 8.42231 14.6165 8.42231C14.6165 8.42231 14.9013 8.06292 15.1819 7.95773C15.4624 7.85254 15.5895 8.13745 15.5895 8.13745C15.7867 7.37479 14.9977 7.6027 14.9977 7.6027Z" fill="#E6B432"/>
<path d="M14.6417 12.2593C14.5647 11.8114 14.4984 11.4246 14.6916 10.9813L14.7276 10.8985L13.9624 10.0197L13.8719 10.0499C13.8641 10.0525 13.0643 10.314 12.5514 10.0576L12.4875 10.0256L12.4235 10.0576C11.9131 10.3134 11.1111 10.0525 11.1029 10.0497L11.0124 10.0199L10.2473 10.8985L10.2833 10.9813C10.4765 11.4246 10.4102 11.8114 10.3333 12.2593C10.2608 12.6822 10.1786 13.1617 10.3232 13.7464C10.4803 14.3811 11.009 14.6067 11.4755 14.8059C11.835 14.9594 12.1745 15.1043 12.3665 15.4085L12.4874 15.6002L12.6083 15.4085C12.8003 15.1043 13.1398 14.9594 13.4994 14.8059C13.9658 14.6067 14.4946 14.3811 14.6516 13.7464C14.7963 13.1617 14.7141 12.6822 14.6417 12.2593ZM10.58 10.9517L11.1053 10.3487C11.3432 10.414 11.9862 10.5556 12.4875 10.3428C12.9886 10.5556 13.6316 10.414 13.8697 10.3487L14.3949 10.9517C14.2104 11.4374 14.2831 11.8608 14.3597 12.3076C14.4171 12.6423 14.4742 12.9872 14.4263 13.3844H10.5487C10.5008 12.9872 10.5579 12.6423 10.6152 12.3076C10.6919 11.8608 10.7645 11.4374 10.58 10.9517ZM13.3872 14.5429C13.0622 14.6817 12.7278 14.8244 12.4875 15.0952C12.2472 14.8244 11.9128 14.6817 11.5878 14.5429C11.1317 14.3481 10.7382 14.178 10.6085 13.7001H14.3665C14.2368 14.1779 13.8433 14.3481 13.3872 14.5429Z" fill="#E6B432"/>
<path d="M10.5766 10.9514L11.1019 10.3484C11.3397 10.4137 11.9828 10.5553 12.4841 10.3425C12.9851 10.5553 13.6282 10.4137 13.8663 10.3484L14.3915 10.9514C14.207 11.4371 14.2796 11.8606 14.3563 12.3073C14.4137 12.6421 14.4708 12.987 14.4229 13.3842H10.5453C10.4974 12.987 10.5544 12.6421 10.6118 12.3073C10.6885 11.8606 10.7611 11.4371 10.5766 10.9514Z" fill="#41479B"/>
<path d="M10.5869 13.616C10.5914 13.6365 10.5943 13.6562 10.5995 13.677C10.7223 14.1734 11.1227 14.3442 11.5864 14.5422C11.9115 14.681 12.2458 14.8237 12.4861 15.0945C12.7264 14.8237 13.0607 14.681 13.3858 14.5422C13.8495 14.3443 14.2499 14.1734 14.3727 13.677C14.3779 13.6562 14.3807 13.6365 14.3853 13.616H10.5869Z" fill="#73AF00"/>
<path d="M14.1997 11.9586C14.1997 11.7001 13.954 11.6593 13.7306 11.6637C13.5072 11.6682 13.1804 11.6274 13.1721 11.4537C13.167 11.3455 13.3487 11.3354 13.467 11.3733C13.5357 11.3953 13.963 11.4716 14.097 11.1857C14.097 11.1857 13.9407 11.1907 13.7759 11.1537C13.6488 11.1251 13.1275 11.1901 13.0337 11.3912C12.9398 11.5922 13.2424 11.7928 13.5909 11.7928C13.9393 11.7928 13.9871 11.8626 13.9844 11.9476C13.9808 12.0592 13.7045 12.0909 13.5457 12.0894C13.2957 11.9986 12.7123 12.0697 12.7095 12.0586C12.7061 12.0452 12.5749 11.8198 12.5749 11.8198C12.5749 11.8198 12.8137 11.803 12.844 11.7592C12.8743 11.7155 12.6628 11.5476 12.6628 11.5476C12.6628 11.5476 12.8406 11.4767 12.8474 11.4262C12.8548 11.3707 12.703 11.2393 12.703 11.2393C12.703 11.2393 12.7616 11.1815 12.8058 11.083C12.8373 11.0125 12.5868 10.9936 12.5868 10.9936C12.6003 10.94 12.5951 10.888 12.5288 10.864C12.4775 10.8455 12.2875 10.9177 12.1579 10.9177C12.0284 10.9177 11.9792 11.0115 11.9792 11.0115C11.9792 11.0115 11.7513 11.0383 11.7201 11.0651C11.6888 11.092 11.729 11.2662 11.729 11.2662C11.6129 11.2483 11.5593 11.1456 11.5593 11.1456C11.5012 11.4092 11.7737 11.436 11.7737 11.436L11.8184 11.5789C11.8184 11.5789 11.8184 11.5789 11.9301 11.5923C12.0418 11.6057 11.9882 11.713 11.8139 11.713C11.6397 11.713 11.5657 11.9208 11.5657 11.9208C11.4446 11.9242 11.3773 11.8266 11.3504 11.7021C11.3208 11.5651 11.3382 11.3546 11.3606 11.2211C11.3875 11.0596 11.3067 11.0125 11.3067 11.0125L11.2529 11.1471C11.2495 11.0092 11.1284 10.9957 11.1284 10.9957L11.1082 11.1639C11.0477 11.0529 10.9434 11.1033 10.9434 11.1033C10.9434 11.1033 11.0443 11.4667 11.0409 11.4868C11.0375 11.507 11.0039 11.5238 10.9568 11.4734C10.9097 11.4229 10.8761 11.4565 10.8761 11.4565C10.9265 11.8199 11.1214 11.7666 11.1214 11.7666C11.1214 11.7666 11.1301 11.8803 11.1889 12.1114C11.2518 12.3581 11.5101 12.3116 11.5101 12.3116C11.5101 12.3921 11.5726 12.5082 11.5905 12.7763C11.6084 13.0443 11.3627 13.232 11.3627 13.232C11.1393 13.2275 11.1616 13.4464 11.1616 13.4464H11.7782C11.7782 12.8763 12.0232 12.7786 12.0232 12.7786C12.3865 12.7954 12.7364 12.644 12.7364 12.644C12.6826 12.8627 12.7767 12.9535 12.7767 12.9535C12.9248 12.9333 12.8508 13.2259 12.807 13.2259C12.7633 13.2259 12.6725 13.2259 12.6186 13.2259C12.5648 13.2259 12.4101 13.3941 12.4101 13.3941H13.0492C13.0492 13.3941 13.1468 13.2528 13.1804 13.1822C13.214 13.1116 13.1064 13.014 13.0997 12.94C13.093 12.866 13.2107 12.8189 13.2107 12.8189C13.3352 12.9938 13.6211 13.0039 13.6211 13.0039L13.6144 12.8727C13.6144 12.8727 13.7624 12.9232 13.796 12.9669C13.8296 13.0106 13.8229 13.2124 13.6447 13.236C13.4664 13.2595 13.4529 13.3873 13.4529 13.3873C13.4529 13.3873 13.8599 13.3873 13.9407 13.3873C14.0214 13.3873 14.0853 13.236 14.0853 13.1788C14.0853 13.1216 14.0853 12.7482 14.0853 12.6675C14.0853 12.5867 14.0181 12.5968 13.86 12.58C13.7163 12.5647 13.7301 12.4076 13.6709 12.2252C13.8786 12.2183 14.1997 12.1728 14.1997 11.9586Z" fill="#E6B432"/>
<path d="M14.1641 5.84556C14.1241 5.49283 13.8429 5.04363 12.7718 4.83311C12.7682 4.71934 12.6982 4.62283 12.5982 4.58223V4.38569H12.7735V4.17531H12.5982V4H12.3878V4.17531H12.2125V4.38569H12.3878V4.58223C12.2878 4.62287 12.2177 4.71934 12.2142 4.83311C11.1431 5.04367 10.8619 5.49283 10.8219 5.84556C10.772 6.28539 11.087 6.70248 11.371 6.86233V7.0855H13.615V6.86233C13.899 6.70248 14.214 6.28544 14.1641 5.84556ZM12.9894 6.5245H12.6753V5.2308C12.9342 5.34775 13.0944 5.52709 13.1409 5.77342C13.199 6.08013 13.0764 6.39288 12.9894 6.5245ZM11.845 5.77328C11.8916 5.527 12.0518 5.34761 12.3106 5.23075V6.5245H11.9965C11.9094 6.39283 11.7868 6.07998 11.845 5.77328ZM11.5854 5.41797C11.5337 5.52128 11.5009 5.62464 11.4841 5.71956C11.4333 6.00695 11.4916 6.29898 11.5877 6.5245H11.514C11.3566 6.41613 11.1544 6.14964 11.1843 5.88667C11.2051 5.70273 11.3446 5.54486 11.5854 5.41797ZM13.472 6.5245H13.3981C13.4943 6.29903 13.5526 6.00705 13.5019 5.7197C13.4851 5.62473 13.4522 5.52128 13.4006 5.41792C13.6414 5.54477 13.7809 5.70269 13.8017 5.88667C13.8315 6.14969 13.6293 6.41617 13.472 6.5245Z" fill="#E6B432"/>
</g>
<defs>
<clipPath id="clip0_1073_21465">
<rect width="24" height="24" rx="2" fill="white"/>
</clipPath>
</defs>
</svg>
