<svg width="24" height="24" viewBox="0 0 24 24" fill="none" xmlns="http://www.w3.org/2000/svg">
<g clip-path="url(#clip0_1073_21250)">
<mask id="mask0_1073_21250" style="mask-type:luminance" maskUnits="userSpaceOnUse" x="0" y="0" width="24" height="24">
<path d="M20.9924 0.751328H2.99243C1.74979 0.751328 0.742432 1.75869 0.742432 3.00133V21.0013C0.742432 22.244 1.74979 23.2513 2.99243 23.2513H20.9924C22.2351 23.2513 23.2424 22.244 23.2424 21.0013V3.00133C23.2424 1.75869 22.2351 0.751328 20.9924 0.751328Z" fill="white"/>
</mask>
<g mask="url(#mask0_1073_21250)">
<path d="M0.277832 0.283539H8.09283V23.7285H0.277832V0.283539Z" fill="#27AE60"/>
<path d="M8.0918 0.283539V23.7285H15.9068H23.7218V0.283539H15.9068H8.0918Z" fill="#E74C3C"/>
<path fill-rule="evenodd" clip-rule="evenodd" d="M12.202 15.1911C10.6443 15.1442 3.50138 10.6856 3.45239 9.97556L3.84682 9.31778C4.55535 10.3473 11.8576 14.6834 12.5748 14.5297L12.202 15.1909" fill="#FFFF00"/>
<path d="M12.202 15.1911C10.6443 15.1442 3.50138 10.6856 3.45239 9.97556L3.84682 9.31778C4.55535 10.3473 11.8576 14.6834 12.5748 14.5297L12.202 15.1909" stroke="black" stroke-width="0.006303" stroke-linecap="round" stroke-linejoin="round"/>
<path fill-rule="evenodd" clip-rule="evenodd" d="M3.76372 9.2285C3.62398 9.60458 5.62765 10.8433 8.0384 12.3096C10.4491 13.7757 12.5277 14.6817 12.6818 14.5518C12.6912 14.535 12.7576 14.4208 12.7515 14.4217C12.7226 14.4652 12.6523 14.479 12.5426 14.4474C11.8913 14.2595 10.1927 13.4798 8.08896 12.2041C5.98531 10.9283 4.15505 9.75259 3.87058 9.25305C3.8508 9.21845 3.8367 9.15528 3.83956 9.10617L3.83265 9.10606L3.77208 9.21193L3.76376 9.22853L3.76372 9.2285ZM12.2385 15.2118C12.2121 15.2597 12.1629 15.2613 12.0693 15.2511C11.4867 15.1866 9.71864 14.3268 7.62659 13.0744C5.19233 11.6173 3.18191 10.2896 3.40002 9.94254L3.45936 9.83763L3.47105 9.84127C3.27492 10.4293 7.43868 12.8101 7.68381 12.9619C10.093 14.4545 12.1241 15.3261 12.3039 15.0996L12.2385 15.2121V15.212L12.2385 15.2118Z" fill="#FFFF00" stroke="black" stroke-width="0.006303" stroke-linecap="round" stroke-linejoin="round"/>
<path fill-rule="evenodd" clip-rule="evenodd" d="M8.17697 10.4061C9.73606 10.3938 11.66 10.1931 12.7672 9.75181L12.5287 9.36422C11.8742 9.72644 9.93971 9.96462 8.16379 10.0002C6.06334 9.98092 4.58072 9.78533 3.83785 9.28688L3.61267 9.69961C4.97825 10.2775 6.37759 10.4002 8.17697 10.4061Z" fill="#FFFF00" stroke="black" stroke-width="0.006303" stroke-linecap="round" stroke-linejoin="round"/>
<path fill-rule="evenodd" clip-rule="evenodd" d="M12.8312 9.76061C12.7931 9.82155 12.071 10.0706 11.0073 10.2543C10.286 10.3643 9.34519 10.4583 8.17111 10.4594C7.05566 10.4605 6.14445 10.3811 5.45459 10.2876C4.33795 10.1125 3.76164 9.86889 3.54858 9.7828C3.56896 9.74229 3.58205 9.71386 3.6017 9.67603C4.21503 9.92023 4.79403 10.0675 5.47233 10.1718C6.15765 10.2647 7.05788 10.3452 8.16782 10.3441C9.33643 10.343 10.2669 10.2418 10.984 10.1351C12.0748 9.9592 12.6706 9.73278 12.7543 9.62764L12.8313 9.76061H12.8312H12.8312ZM12.6218 9.36757C12.5036 9.46252 11.9145 9.67144 10.878 9.83697C10.1863 9.9361 9.30681 10.0248 8.18311 10.0259C7.11556 10.027 6.24338 9.95502 5.57998 9.85838C4.52738 9.72091 3.96715 9.47293 3.76518 9.40063C3.78528 9.36589 3.80575 9.33142 3.82675 9.29681C3.98391 9.37594 4.52455 9.59541 5.59153 9.74656C6.24741 9.83956 7.12093 9.90886 8.18317 9.90777C9.30156 9.90663 10.1711 9.81619 10.8584 9.71759C11.9002 9.57425 12.4608 9.30782 12.5459 9.2411L12.6219 9.36748L12.6218 9.36757Z" fill="#FFFF00" stroke="black" stroke-width="0.006303" stroke-linecap="round" stroke-linejoin="round"/>
<path fill-rule="evenodd" clip-rule="evenodd" d="M3.05828 12.2847C4.01724 12.8005 6.14713 13.0604 8.16266 13.0783C9.99782 13.0812 12.3886 12.7946 13.2827 12.3208L13.2581 11.8046C12.9784 12.2417 10.4163 12.661 8.14275 12.6438C5.8692 12.6267 3.75798 12.2755 3.0542 11.8209L3.05829 12.2845" fill="#FFFF00"/>
<path d="M3.05828 12.2847C4.01724 12.8005 6.14713 13.0604 8.16266 13.0783C9.99782 13.0812 12.3886 12.7946 13.2827 12.3208L13.2581 11.8046C12.9784 12.2417 10.4163 12.661 8.14275 12.6438C5.8692 12.6267 3.75798 12.2755 3.0542 11.8209L3.05829 12.2845" stroke="black" stroke-width="0.006303" stroke-linecap="round" stroke-linejoin="round"/>
<path fill-rule="evenodd" clip-rule="evenodd" d="M13.3301 12.21L13.3302 12.3331C13.1958 12.4938 12.3533 12.7366 11.2967 12.9076C10.4926 13.0309 9.44422 13.1239 8.13788 13.1239C6.89683 13.1239 5.90714 13.0354 5.13963 12.9176C3.92642 12.7409 3.1504 12.4315 2.99463 12.3392L2.99531 12.1956C3.46323 12.5067 4.73096 12.7343 5.15665 12.8039C5.91916 12.921 6.90297 13.0088 8.13784 13.0088C9.43804 13.0088 10.4805 12.9164 11.2796 12.794C12.0376 12.6845 13.1175 12.3997 13.3301 12.2101L13.3301 12.21ZM13.3306 11.7721L13.3307 11.8952C13.1963 12.0558 12.3538 12.2986 11.2972 12.4696C10.4931 12.5929 9.44474 12.6859 8.1384 12.6859C6.89734 12.6859 5.90765 12.5975 5.14014 12.4796C3.92693 12.303 3.15092 11.9936 2.99515 11.9013L2.99583 11.7577C3.46374 12.0687 4.73147 12.2963 5.15717 12.3659C5.91968 12.483 6.90349 12.5709 8.13836 12.5709C9.43856 12.5709 10.4811 12.4785 11.2801 12.3559C12.0381 12.2464 13.118 11.9617 13.3306 11.772L13.3306 11.7721Z" fill="#FFFF00" stroke="black" stroke-width="0.006303" stroke-linecap="round" stroke-linejoin="round"/>
<path fill-rule="evenodd" clip-rule="evenodd" d="M8.15715 15.1022C5.95172 15.089 4.06201 14.501 3.66296 14.4038L3.95395 14.8594C4.65881 15.1559 6.50237 15.5977 8.17831 15.5488C9.8543 15.4999 11.319 15.3701 12.3512 14.8676L12.6495 14.3955C11.9461 14.7268 9.55228 15.0988 8.15715 15.1022Z" fill="#FFFF00" stroke="black" stroke-width="0.006303" stroke-linecap="round" stroke-linejoin="round"/>
<path fill-rule="evenodd" clip-rule="evenodd" d="M12.462 14.7628C12.4182 14.8298 12.3735 14.8959 12.3282 14.9603C11.8413 15.1319 11.0742 15.3121 10.7505 15.3647C10.0893 15.501 9.06621 15.6016 8.15825 15.602C6.20454 15.5734 4.60533 15.191 3.85298 14.8648L3.79228 14.7604L3.80219 14.7447L3.90514 14.7846C5.24309 15.2633 6.74577 15.4543 8.16926 15.4886C9.07356 15.4917 9.97884 15.3849 10.7109 15.254C11.8334 15.0291 12.2873 14.8595 12.4266 14.7827L12.462 14.7628ZM12.7207 14.3361C12.7219 14.3374 12.723 14.3387 12.7241 14.3401C12.6913 14.3954 12.6575 14.4517 12.6229 14.5083C12.3633 14.6011 11.6586 14.8073 10.6296 14.9512C9.95157 15.0436 9.53015 15.133 8.18143 15.1592C5.65409 15.0949 4.01776 14.6007 3.62903 14.4788L3.57141 14.3683C5.0361 14.7507 6.53223 15.0176 8.18151 15.0449C9.41545 15.0186 9.94041 14.9277 10.6128 14.8361C11.8127 14.6495 12.4173 14.4519 12.5987 14.3949C12.5964 14.3916 12.5938 14.3882 12.5908 14.3846L12.7209 14.336L12.7207 14.3361Z" fill="#FFFF00" stroke="black" stroke-width="0.00605" stroke-linecap="round" stroke-linejoin="round"/>
<path fill-rule="evenodd" clip-rule="evenodd" d="M12.749 11.8764C12.7561 13.3272 12.0137 14.6291 11.4157 15.2035C10.5696 16.0161 9.4479 16.5388 8.1379 16.5628C6.67507 16.5897 5.29578 15.6361 4.92582 15.2171C4.2025 14.398 3.6136 13.3579 3.59473 11.9561C3.68433 10.3727 4.30593 9.26974 5.20699 8.51337C6.10804 7.757 7.3078 7.38864 8.30698 7.41499C9.45981 7.44541 10.8065 8.01095 11.737 9.13367C12.3466 9.86926 12.6106 10.6676 12.749 11.8764ZM8.15033 6.9088C10.9597 6.9088 13.2703 9.19498 13.2703 11.9982C13.2703 14.8013 10.9597 17.0876 8.15033 17.0876C5.34095 17.0876 3.04956 14.8014 3.04956 11.9982C3.04956 9.19498 5.34095 6.9088 8.15033 6.9088Z" fill="#FFFF00" stroke="black" stroke-width="0.006303" stroke-linecap="round" stroke-linejoin="round"/>
<path fill-rule="evenodd" clip-rule="evenodd" d="M8.16397 6.89163C10.9759 6.89163 13.2692 9.18529 13.2692 11.9975C13.2692 14.8096 10.9758 17.1032 8.16397 17.1032C5.35206 17.1032 3.05872 14.8096 3.05872 11.9975C3.05872 9.18529 5.35211 6.89163 8.16397 6.89163ZM3.17107 11.9975C3.17107 14.7437 5.42621 16.9909 8.16397 16.9909C10.9018 16.9909 13.1569 14.7437 13.1569 11.9975C13.1569 9.25115 10.9017 7.00396 8.16397 7.00396C5.42621 7.00396 3.17107 9.25126 3.17107 11.9975Z" fill="#FFFF00" stroke="black" stroke-width="0.006303" stroke-linecap="round" stroke-linejoin="round"/>
<path fill-rule="evenodd" clip-rule="evenodd" d="M8.17001 7.31586C10.7343 7.31586 12.8464 9.42069 12.8464 11.9928C12.8464 14.5649 10.7342 16.6697 8.17001 16.6697C5.60581 16.6697 3.49365 14.5649 3.49365 11.9928C3.49365 9.42069 5.60586 7.31586 8.17001 7.31586ZM3.60596 11.9928C3.60596 14.5031 5.66737 16.5573 8.17001 16.5573C10.6726 16.5573 12.7341 14.5031 12.7341 11.9928C12.7341 9.48238 10.6727 7.42818 8.17001 7.42818C5.66737 7.42818 3.60596 9.48238 3.60596 11.9928Z" fill="#FFFF00" stroke="black" stroke-width="0.006303" stroke-linecap="round" stroke-linejoin="round"/>
<path fill-rule="evenodd" clip-rule="evenodd" d="M8.37137 6.87103H7.93384L7.93435 17.1299H8.37339L8.37137 6.87103Z" fill="#FFFF00" stroke="black" stroke-width="0.006303" stroke-linecap="round" stroke-linejoin="round"/>
<path fill-rule="evenodd" clip-rule="evenodd" d="M8.33181 6.81239H8.44317L8.44413 17.1893H8.33267L8.33181 6.81239ZM7.89758 6.81249H8.00981L8.00997 17.1894H7.89765V6.81249H7.89758Z" fill="#FFFF00" stroke="black" stroke-width="0.006303" stroke-linecap="round" stroke-linejoin="round"/>
<path fill-rule="evenodd" clip-rule="evenodd" d="M13.2746 12.1949V11.8157L12.9658 11.528L11.2126 11.0639L8.68608 10.8061L5.64389 10.9608L3.47827 11.4764L3.04102 11.8002V12.1796L4.14858 11.6827L6.77827 11.2702H9.30483L11.1611 11.4764L12.4501 11.7858L13.2746 12.1949Z" fill="#FFFF00" stroke="black" stroke-width="0.006303" stroke-linecap="round" stroke-linejoin="round"/>
<path fill-rule="evenodd" clip-rule="evenodd" d="M8.16563 11.2068C9.37131 11.2046 10.5411 11.321 11.469 11.5017C12.4264 11.6931 13.1003 11.9325 13.3306 12.2015L13.3304 12.3346C13.0525 12 12.1458 11.7546 11.4474 11.6144C10.5266 11.4353 9.36466 11.3196 8.16563 11.3218C6.90039 11.3242 5.72223 11.444 4.81489 11.6211C4.08683 11.7655 3.11585 12.0525 2.99463 12.3356V12.197C3.0612 12.001 3.78421 11.7082 4.79849 11.5052C5.71264 11.3269 6.89296 11.2091 8.16563 11.2068ZM8.16614 10.7689C9.37183 10.7667 10.5416 10.8832 11.4695 11.0638C12.427 11.2553 13.1008 11.4947 13.3312 11.7636L13.3309 11.8967C13.0531 11.5622 12.1464 11.3168 11.4479 11.1766C10.5271 10.9974 9.36518 10.8817 8.16614 10.8841C6.9009 10.8863 5.72847 11.0063 4.82102 11.1832C4.11843 11.3164 3.10781 11.6148 2.99509 11.8979V11.7591C3.06167 11.5653 3.79931 11.262 4.79901 11.0673C5.71316 10.889 6.89348 10.7713 8.16614 10.7689Z" fill="#FFFF00" stroke="black" stroke-width="0.006303" stroke-linecap="round" stroke-linejoin="round"/>
<path fill-rule="evenodd" clip-rule="evenodd" d="M8.14365 8.5353C10.0437 8.5258 11.701 8.80097 12.4592 9.18937L12.7357 9.66782C12.0767 9.31266 10.2888 8.94337 8.14643 8.99859C6.40083 9.00932 4.53566 9.19077 3.59985 9.69005L3.93003 9.13786C4.69806 8.73959 6.50929 8.53752 8.14372 8.53541" fill="#FFFF00"/>
<path d="M8.14365 8.5353C10.0437 8.5258 11.701 8.80097 12.4592 9.18937L12.7357 9.66782C12.0767 9.31266 10.2888 8.94337 8.14643 8.99859C6.40083 9.00932 4.53566 9.19077 3.59985 9.69005L3.93003 9.13786C4.69806 8.73959 6.50929 8.53752 8.14372 8.53541" stroke="black" stroke-width="0.006303" stroke-linecap="round" stroke-linejoin="round"/>
<path fill-rule="evenodd" clip-rule="evenodd" d="M8.16642 8.93022C9.25011 8.92736 10.2972 8.98848 11.13 9.13873C11.9056 9.28307 12.6452 9.49971 12.7509 9.61622L12.8329 9.7611C12.5757 9.59316 11.9357 9.40617 11.1139 9.25032C10.2886 9.09521 9.24217 9.04382 8.16452 9.04664C6.94135 9.04246 5.99105 9.10703 5.17549 9.24924C4.31295 9.41063 3.71452 9.64119 3.56689 9.75074L3.64724 9.59758C3.93409 9.45124 4.38923 9.27484 5.15406 9.13714C5.99746 8.98307 6.95787 8.93687 8.16649 8.93023L8.16642 8.93022ZM8.16595 8.49275C9.20303 8.49002 10.227 8.54782 11.0252 8.6913C11.6547 8.81385 12.2773 9.00517 12.5052 9.17543L12.6252 9.36597C12.4213 9.13937 11.6539 8.92463 10.9765 8.80435C10.1845 8.66775 9.20301 8.61368 8.16593 8.60503C7.07755 8.60808 6.07172 8.67475 5.29122 8.81686C4.54661 8.95856 4.0661 9.12632 3.86279 9.25733L3.96824 9.09817C4.24881 8.95046 4.70207 8.81481 5.27292 8.7039C6.0592 8.56074 7.07118 8.4958 8.16595 8.49275Z" fill="#FFFF00" stroke="black" stroke-width="0.006303" stroke-linecap="round" stroke-linejoin="round"/>
<path fill-rule="evenodd" clip-rule="evenodd" d="M10.701 14.1199C9.76167 13.9446 8.82061 13.9191 8.16329 13.9268C4.99699 13.9639 3.97414 14.577 3.84931 14.7626L3.61267 14.3768C4.4188 13.7925 6.143 13.4648 8.18044 13.4984C9.2384 13.5157 10.1514 13.5859 10.9194 13.7347L10.701 14.12" fill="#FFFF00"/>
<path d="M10.701 14.1199C9.76167 13.9446 8.82061 13.9191 8.16329 13.9268C4.99699 13.9639 3.97414 14.577 3.84931 14.7626L3.61267 14.3768C4.4188 13.7925 6.143 13.4648 8.18044 13.4984C9.2384 13.5157 10.1514 13.5859 10.9194 13.7347L10.701 14.12" stroke="black" stroke-width="0.006303" stroke-linecap="round" stroke-linejoin="round"/>
<path fill-rule="evenodd" clip-rule="evenodd" d="M8.14889 13.872C9.02968 13.8852 9.89423 13.9215 10.7287 14.0772L10.6683 14.1838C9.89325 14.0408 9.06702 13.986 8.15188 13.9905C6.98332 13.9813 5.80141 14.0905 4.77243 14.3858C4.44775 14.4762 3.91025 14.6849 3.85544 14.8574L3.79532 14.7582C3.81265 14.6563 4.13751 14.4447 4.74479 14.2741C5.92341 13.9366 7.02587 13.8797 8.1489 13.8719L8.14889 13.872ZM8.18886 13.4288C9.10142 13.4458 10.0438 13.488 10.9598 13.6695L10.8969 13.7805C10.0697 13.6163 9.27943 13.5616 8.19425 13.5449C7.02197 13.547 5.77849 13.6306 4.64788 13.9593C4.28287 14.0656 3.65288 14.2955 3.63189 14.4775L3.57178 14.371C3.58546 14.2057 4.13082 13.9901 4.62149 13.8473C5.76081 13.5161 7.00752 13.4309 8.18886 13.4288Z" fill="#FFFF00" stroke="black" stroke-width="0.00605" stroke-linecap="round" stroke-linejoin="round"/>
<path fill-rule="evenodd" clip-rule="evenodd" d="M12.6827 14.4355L12.3023 15.0258L11.2091 14.0549L8.37315 12.1471L5.17628 10.394L3.51648 9.82628L3.8702 9.1704L3.99034 9.10492L5.02159 9.36273L8.42471 11.1159L10.3841 12.3534L12.0341 13.5393L12.7044 14.3127L12.6827 14.4355Z" fill="#FFFF00" stroke="black" stroke-width="0.006303" stroke-linecap="round" stroke-linejoin="round"/>
<path fill-rule="evenodd" clip-rule="evenodd" d="M3.45724 9.84191C3.74836 9.64446 5.88784 10.5976 8.12648 11.9474C10.3592 13.3011 12.4926 14.8308 12.3001 15.1171L12.2367 15.2168L12.2077 15.2397C12.2139 15.2352 12.246 15.196 12.2045 15.0898C12.1094 14.7768 10.596 13.5692 8.08498 12.0531C5.63705 10.5934 3.59693 9.71361 3.39294 9.96509L3.45724 9.84191ZM12.7612 14.4272C12.9453 14.0636 10.9608 12.5687 8.50046 11.1132C5.98354 9.68666 4.16952 8.84696 3.83818 9.09735L3.76456 9.23137C3.76392 9.23873 3.76724 9.22223 3.7828 9.21022C3.84305 9.15765 3.94291 9.1612 3.98797 9.16038C4.55851 9.16893 6.18799 9.91881 8.47422 11.2295C9.47598 11.8129 12.706 13.8845 12.6937 14.467C12.6946 14.5171 12.6978 14.5274 12.679 14.5522L12.7612 14.4272Z" fill="#FFFF00"/>
<path d="M12.7612 14.4272C12.9453 14.0636 10.9608 12.5687 8.50046 11.1132C5.98354 9.68666 4.16952 8.84696 3.83818 9.09735L3.76456 9.23137C3.76392 9.23873 3.76724 9.22223 3.7828 9.21022C3.84305 9.15765 3.94291 9.1612 3.98797 9.16038C4.55851 9.16893 6.18799 9.91881 8.47422 11.2295C9.47598 11.8129 12.706 13.8845 12.6937 14.467C12.6946 14.5171 12.6978 14.5274 12.679 14.5522L12.7612 14.4272ZM12.7612 14.4272L12.7612 14.4271M3.45724 9.84191C3.74836 9.64446 5.88784 10.5976 8.12648 11.9474C10.3592 13.3011 12.4926 14.8308 12.3001 15.1171L12.2367 15.2168L12.2077 15.2397C12.2139 15.2352 12.246 15.196 12.2045 15.0898C12.1094 14.7768 10.596 13.5692 8.08498 12.0531C5.63705 10.5934 3.59693 9.71361 3.39294 9.96509L3.45724 9.84191Z" stroke="black" stroke-width="0.006303" stroke-linecap="round" stroke-linejoin="round"/>
<path d="M5.11022 12.5598C5.11022 13.3988 5.45377 14.1576 6.01035 14.7122C6.56799 15.2679 7.32581 15.6186 8.16612 15.6186C9.01077 15.6186 9.7773 15.2756 10.3326 14.722C10.8878 14.1684 11.232 13.4044 11.2321 12.5625H11.232V8.47934L5.1095 8.47206L5.11013 12.5598L5.11022 12.5598Z" fill="white" stroke="black" stroke-width="0.00737"/>
<path d="M5.22409 12.5656V12.5679C5.22409 13.3701 5.55622 14.1006 6.08905 14.6309C6.62293 15.1622 7.35821 15.4926 8.16258 15.4926C8.97113 15.4926 9.70492 15.1646 10.2365 14.6353C10.768 14.106 11.0975 13.3755 11.0976 12.5705H11.0975V8.6092L5.22759 8.60825L5.224 12.5656M9.91732 9.79423L9.91753 12.3152L9.91539 12.5818C9.91539 12.652 9.91121 12.732 9.90302 12.8001C9.85532 13.1987 9.67202 13.5461 9.40054 13.8163C9.08273 14.1327 8.64407 14.3289 8.16062 14.3289C7.6797 14.3289 7.25111 14.1259 6.93194 13.8081C6.60453 13.4823 6.41476 13.0354 6.41476 12.5734L6.41408 9.78781L9.91724 9.79413L9.91732 9.79423Z" fill="#E74C3C"/>
<path d="M5.22409 12.5656V12.5679C5.22409 13.3701 5.55622 14.1006 6.08905 14.6309C6.62293 15.1622 7.35821 15.4926 8.16258 15.4926C8.97113 15.4926 9.70492 15.1646 10.2365 14.6353C10.768 14.106 11.0975 13.3755 11.0976 12.5705H11.0975V8.6092L5.22759 8.60825L5.224 12.5656M9.91732 9.79423L9.91753 12.3152L9.91539 12.5818C9.91539 12.652 9.91121 12.732 9.90302 12.8001C9.85532 13.1987 9.67202 13.5461 9.40054 13.8163C9.08273 14.1327 8.64407 14.3289 8.16062 14.3289C7.6797 14.3289 7.25111 14.1259 6.93194 13.8081C6.60453 13.4823 6.41476 13.0354 6.41476 12.5734L6.41408 9.78781L9.91724 9.79413L9.91732 9.79423Z" stroke="black" stroke-width="0.005577"/>
<path d="M5.60852 9.6428C5.61548 9.35812 5.81747 9.29073 5.81893 9.28973C5.82038 9.28877 6.03711 9.36231 6.03638 9.64544L5.60852 9.6428Z" fill="#FFFF00"/>
<path d="M5.43286 9.29505L5.39771 9.6222L5.6112 9.62266C5.61325 9.352 5.81611 9.30697 5.82102 9.30797C5.82561 9.30771 6.0267 9.36782 6.03206 9.62266H6.2461L6.20745 9.29301L5.43287 9.29497L5.43286 9.29505Z" fill="#FFFF00" stroke="black" stroke-width="0.0055"/>
<path d="M5.38564 9.62389H6.25942C6.27784 9.62389 6.29289 9.64208 6.29289 9.66431C6.29289 9.68651 6.27784 9.7046 6.25942 9.7046H5.38564C5.36723 9.7046 5.35217 9.68651 5.35217 9.66431C5.35217 9.64208 5.36723 9.62389 5.38564 9.62389Z" fill="#FFFF00" stroke="black" stroke-width="0.0055"/>
<path d="M5.70459 9.62207C5.70554 9.45126 5.82123 9.40292 5.82182 9.40302C5.82187 9.40302 5.9426 9.45286 5.94356 9.62207H5.70459Z" fill="#FFFF00" stroke="black" stroke-width="0.0055"/>
<path d="M5.40186 9.15893H6.23949C6.25713 9.15893 6.27159 9.17534 6.27159 9.19526C6.27159 9.21523 6.25713 9.2316 6.23949 9.2316H5.40186C5.38421 9.2316 5.36975 9.21532 5.36975 9.19526C5.36975 9.17534 5.38421 9.15893 5.40186 9.15893Z" fill="#FFFF00" stroke="black" stroke-width="0.0055"/>
<path d="M5.41949 9.23215H6.22067C6.23754 9.23215 6.25136 9.24847 6.25136 9.26844C6.25136 9.28845 6.23754 9.30477 6.22067 9.30477H5.41949C5.40262 9.30477 5.38879 9.28845 5.38879 9.26844C5.38879 9.24847 5.40262 9.23215 5.41949 9.23215Z" fill="#FFFF00" stroke="black" stroke-width="0.0055"/>
<path d="M5.68184 8.68637L5.74509 8.68647V8.7314H5.79125V8.68547L5.85605 8.68568V8.73142H5.90234V8.68549H5.96718L5.96708 8.78922C5.96708 8.8055 5.95399 8.81605 5.9388 8.81605H5.71134C5.69606 8.81605 5.68196 8.80382 5.68192 8.78891L5.68176 8.6864L5.68184 8.68637Z" fill="#FFFF00" stroke="black" stroke-width="0.0055"/>
<path d="M5.91645 8.8248L5.93073 9.15745L5.70886 9.15663L5.72355 8.82394L5.91645 8.8248Z" fill="#FFFF00" stroke="black" stroke-width="0.0055"/>
<path d="M5.64968 8.97958L5.65645 9.15889L5.44373 9.159L5.44973 8.97959L5.64968 8.97958Z" fill="#FFFF00" stroke="black" stroke-width="0.0055"/>
<path d="M6.19448 8.97958L6.20125 9.15889L5.98853 9.159L5.99453 8.97959L6.19448 8.97958Z" fill="#FFFF00" stroke="black" stroke-width="0.0055"/>
<path d="M5.40657 8.84903L5.46841 8.84918V8.89416H5.51366V8.84814L5.57705 8.84834V8.89418H5.62239V8.84816L5.68582 8.84826L5.68572 8.95199C5.68572 8.96818 5.67289 8.97873 5.65807 8.97873H5.43548C5.42056 8.97873 5.4067 8.96659 5.40665 8.95163L5.40649 8.84908L5.40657 8.84903Z" fill="#FFFF00" stroke="black" stroke-width="0.0055"/>
<path d="M5.9565 8.84887L6.01834 8.84902V8.894H6.06359V8.84798L6.12698 8.84818V8.89402H6.17232V8.848L6.23575 8.8481L6.23564 8.95183C6.23564 8.96802 6.22282 8.97857 6.208 8.97857H5.98541C5.97049 8.97857 5.95662 8.96643 5.95658 8.95147L5.95642 8.84892L5.9565 8.84887Z" fill="#FFFF00" stroke="black" stroke-width="0.0055"/>
<path d="M5.80081 8.93073C5.79944 8.89839 5.84601 8.89803 5.84547 8.93073V9.00995H5.80081L5.80081 8.93073Z" fill="black"/>
<path d="M5.52612 9.0456C5.52597 9.01436 5.56928 9.01372 5.56873 9.0456V9.10681H5.52614L5.52612 9.0456Z" fill="black"/>
<path d="M6.07544 9.0456C6.07529 9.01436 6.11859 9.01372 6.11805 9.0456V9.10681H6.07546L6.07544 9.0456Z" fill="black"/>
<path d="M5.60852 12.0312C5.61548 11.7465 5.81747 11.6791 5.81893 11.6781C5.82038 11.6772 6.03711 11.7507 6.03638 12.0338L5.60852 12.0312Z" fill="#FFFF00"/>
<path d="M5.43286 11.6834L5.39771 12.0106L5.6112 12.011C5.61325 11.7404 5.81611 11.6953 5.82102 11.6963C5.82561 11.6961 6.0267 11.7562 6.03206 12.011H6.2461L6.20745 11.6814L5.43287 11.6833L5.43286 11.6834Z" fill="#FFFF00" stroke="black" stroke-width="0.0055"/>
<path d="M5.38564 12.0123H6.25942C6.27784 12.0123 6.29289 12.0305 6.29289 12.0527C6.29289 12.0749 6.27784 12.093 6.25942 12.093H5.38564C5.36723 12.093 5.35217 12.0749 5.35217 12.0527C5.35217 12.0305 5.36723 12.0123 5.38564 12.0123Z" fill="#FFFF00" stroke="black" stroke-width="0.0055"/>
<path d="M5.70459 12.0105C5.70554 11.8396 5.82123 11.7913 5.82182 11.7914C5.82187 11.7914 5.9426 11.8412 5.94356 12.0105H5.70459Z" fill="#FFFF00" stroke="black" stroke-width="0.0055"/>
<path d="M5.40186 11.5473H6.23949C6.25713 11.5473 6.27159 11.5637 6.27159 11.5836C6.27159 11.6036 6.25713 11.62 6.23949 11.62H5.40186C5.38421 11.62 5.36975 11.6037 5.36975 11.5836C5.36975 11.5637 5.38421 11.5473 5.40186 11.5473Z" fill="#FFFF00" stroke="black" stroke-width="0.0055"/>
<path d="M5.41949 11.6205H6.22067C6.23754 11.6205 6.25136 11.6369 6.25136 11.6568C6.25136 11.6768 6.23754 11.6932 6.22067 11.6932H5.41949C5.40262 11.6932 5.38879 11.6768 5.38879 11.6568C5.38879 11.6369 5.40262 11.6205 5.41949 11.6205Z" fill="#FFFF00" stroke="black" stroke-width="0.0055"/>
<path d="M5.68184 11.0748L5.74509 11.0749V11.1198H5.79125V11.0739L5.85605 11.0741V11.1198H5.90234V11.0739H5.96718L5.96708 11.1776C5.96708 11.1939 5.95399 11.2044 5.9388 11.2044H5.71134C5.69606 11.2044 5.68196 11.1922 5.68192 11.1773L5.68176 11.0748L5.68184 11.0748Z" fill="#FFFF00" stroke="black" stroke-width="0.0055"/>
<path d="M5.91645 11.2132L5.93073 11.5458L5.70886 11.545L5.72355 11.2123L5.91645 11.2132Z" fill="#FFFF00" stroke="black" stroke-width="0.0055"/>
<path d="M5.64968 11.368L5.65645 11.5473L5.44373 11.5474L5.44973 11.368L5.64968 11.368Z" fill="#FFFF00" stroke="black" stroke-width="0.0055"/>
<path d="M6.19448 11.368L6.20125 11.5473L5.98853 11.5474L5.99453 11.368L6.19448 11.368Z" fill="#FFFF00" stroke="black" stroke-width="0.0055"/>
<path d="M5.40657 11.2374L5.46841 11.2376V11.2825H5.51366V11.2365L5.57705 11.2367V11.2826H5.62239V11.2365L5.68582 11.2366L5.68572 11.3404C5.68572 11.3566 5.67289 11.3671 5.65807 11.3671H5.43548C5.42056 11.3671 5.4067 11.355 5.40665 11.34L5.40649 11.2375L5.40657 11.2374Z" fill="#FFFF00" stroke="black" stroke-width="0.0055"/>
<path d="M5.9565 11.2373L6.01834 11.2374V11.2824H6.06359V11.2364L6.12698 11.2366V11.2824H6.17232V11.2364L6.23575 11.2365L6.23564 11.3402C6.23564 11.3564 6.22282 11.367 6.208 11.367H5.98541C5.97049 11.367 5.95662 11.3548 5.95658 11.3399L5.95642 11.2373L5.9565 11.2373Z" fill="#FFFF00" stroke="black" stroke-width="0.0055"/>
<path d="M5.80081 11.3191C5.79944 11.2868 5.84601 11.2864 5.84547 11.3191V11.3983H5.80081L5.80081 11.3191Z" fill="black"/>
<path d="M5.52612 11.434C5.52597 11.4027 5.56928 11.4021 5.56873 11.434V11.4952H5.52614L5.52612 11.434Z" fill="black"/>
<path d="M6.07544 11.434C6.07529 11.4027 6.11859 11.4021 6.11805 11.434V11.4952H6.07546L6.07544 11.434Z" fill="black"/>
<path d="M6.54133 14.5168C6.34412 14.3112 6.43868 14.1203 6.43899 14.1185C6.43934 14.1168 6.64434 14.0148 6.84485 14.2149L6.54133 14.5168Z" fill="#FFFF00"/>
<path d="M6.17552 14.3949L6.38301 14.6505L6.53386 14.4992C6.34313 14.3069 6.45418 14.1312 6.45835 14.1284C6.4614 14.125 6.64584 14.0246 6.83056 14.2004L6.98146 14.0484L6.72016 13.8435L6.17547 14.3948L6.17552 14.3949Z" fill="#FFFF00" stroke="black" stroke-width="0.00550309"/>
<path d="M6.37382 14.6616L6.98983 14.0412C7.00281 14.0281 7.02634 14.0303 7.04213 14.0459C7.05788 14.0616 7.06012 14.085 7.04714 14.0981L6.43113 14.7185C6.41814 14.7316 6.39468 14.7295 6.37892 14.7139C6.36313 14.6982 6.36083 14.6747 6.37382 14.6616Z" fill="#FFFF00" stroke="black" stroke-width="0.00550309"/>
<path d="M6.59266 14.4349C6.47206 14.3138 6.5193 14.1976 6.51978 14.1973C6.51981 14.1972 6.64032 14.1466 6.76113 14.2653L6.59266 14.4349Z" fill="#FFFF00" stroke="black" stroke-width="0.00550309"/>
<path d="M6.05706 14.3209L6.64759 13.7262C6.66003 13.7136 6.68188 13.7149 6.69602 13.729C6.71019 13.7431 6.71162 13.7649 6.69918 13.7774L6.10865 14.3721C6.09621 14.3846 6.07446 14.3834 6.06022 14.3693C6.04608 14.3553 6.04462 14.3334 6.05706 14.3209Z" fill="#FFFF00" stroke="black" stroke-width="0.00550309"/>
<path d="M6.12003 14.3605L6.68486 13.7917C6.69675 13.7797 6.71809 13.7814 6.73226 13.7955C6.74647 13.8096 6.74832 13.8309 6.73642 13.8429L6.17159 14.4117C6.1597 14.4237 6.13836 14.422 6.12415 14.4079C6.10998 14.3938 6.10813 14.3725 6.12003 14.3605Z" fill="#FFFF00" stroke="black" stroke-width="0.00550309"/>
<path d="M5.91622 13.7913L5.96089 13.7465L5.99279 13.7782L6.02533 13.7454L5.99272 13.713L6.03854 13.6671L6.07103 13.6994L6.10366 13.6665L6.07105 13.6341L6.11677 13.5881L6.19034 13.6613C6.2019 13.6728 6.20016 13.6895 6.18945 13.7003L6.02909 13.8618C6.01832 13.8727 5.9997 13.874 5.98908 13.8636L5.91619 13.7914L5.91622 13.7913Z" fill="#FFFF00" stroke="black" stroke-width="0.00550309"/>
<path d="M6.18126 13.7206L6.42751 13.945L6.27052 14.1019L6.04466 13.8569L6.18126 13.7206Z" fill="#FFFF00" stroke="black" stroke-width="0.00550309"/>
<path d="M6.0971 14.021L6.22919 14.1426L6.07929 14.2937L5.95614 14.1629L6.0971 14.021Z" fill="#FFFF00" stroke="black" stroke-width="0.00550309"/>
<path d="M6.48699 13.6325L6.61908 13.7541L6.46918 13.9052L6.34604 13.7744L6.48699 13.6325Z" fill="#FFFF00" stroke="black" stroke-width="0.00550309"/>
<path d="M5.83809 14.0991L5.8818 14.0553L5.91373 14.087L5.94563 14.0549L5.91295 14.0224L5.95779 13.9776L5.99034 14.0099L6.0223 13.9777L5.98963 13.9453L6.03442 13.9003L6.10799 13.9735C6.11949 13.9849 6.11794 14.0015 6.10749 14.012L5.95056 14.17C5.94004 14.1806 5.92165 14.1819 5.91099 14.1714L5.83807 14.0992L5.83809 14.0991Z" fill="#FFFF00" stroke="black" stroke-width="0.00550309"/>
<path d="M6.22261 13.7111L6.26632 13.6673L6.29825 13.6991L6.33015 13.6669L6.29748 13.6345L6.34231 13.5896L6.37486 13.6219L6.40682 13.5897L6.37415 13.5573L6.41894 13.5123L6.49251 13.5855C6.50401 13.597 6.50246 13.6135 6.49201 13.624L6.33508 13.7821C6.32457 13.7927 6.30617 13.7939 6.29551 13.7834L6.22259 13.7112L6.22261 13.7111Z" fill="#FFFF00" stroke="black" stroke-width="0.00550309"/>
<path d="M6.17066 13.8788C6.14674 13.857 6.17931 13.8237 6.20214 13.8471L6.25838 13.9029L6.2269 13.9347L6.17066 13.8788Z" fill="black"/>
<path d="M6.06025 14.1541C6.03798 14.1322 6.06804 14.101 6.09028 14.1239L6.13371 14.167L6.1037 14.1972L6.06025 14.1541Z" fill="black"/>
<path d="M6.44478 13.765C6.4225 13.7431 6.45256 13.7119 6.4748 13.7348L6.51823 13.7779L6.48822 13.8081L6.44478 13.765Z" fill="black"/>
<path d="M7.95911 9.64252C7.96606 9.35785 8.16806 9.29045 8.16951 9.28945C8.17097 9.2885 8.38769 9.36203 8.38697 9.64516L7.95911 9.64252Z" fill="#FFFF00"/>
<path d="M7.78369 9.29491L7.74854 9.62206L7.96203 9.62253C7.96408 9.35186 8.16694 9.30684 8.17185 9.30784C8.17644 9.30758 8.37753 9.36768 8.38289 9.62253H8.59693L8.55828 9.29288L7.78371 9.29483L7.78369 9.29491Z" fill="#FFFF00" stroke="black" stroke-width="0.0055"/>
<path d="M7.73623 9.62361H8.61001C8.62842 9.62361 8.64347 9.6418 8.64347 9.66404C8.64347 9.68623 8.62842 9.70433 8.61001 9.70433H7.73623C7.71781 9.70433 7.70276 9.68623 7.70276 9.66404C7.70276 9.6418 7.71781 9.62361 7.73623 9.62361Z" fill="#FFFF00" stroke="black" stroke-width="0.0055"/>
<path d="M8.05615 9.62168C8.05711 9.45087 8.17279 9.40253 8.17339 9.40263C8.17343 9.40263 8.29416 9.45247 8.29512 9.62168H8.05615Z" fill="#FFFF00" stroke="black" stroke-width="0.0055"/>
<path d="M7.75317 9.15898H8.59081C8.60845 9.15898 8.62291 9.1754 8.62291 9.19532C8.62291 9.21528 8.60845 9.23165 8.59081 9.23165H7.75317C7.73553 9.23165 7.72107 9.21537 7.72107 9.19532C7.72107 9.1754 7.73553 9.15898 7.75317 9.15898Z" fill="#FFFF00" stroke="black" stroke-width="0.0055"/>
<path d="M7.77007 9.23222H8.57125C8.58812 9.23222 8.60195 9.24855 8.60195 9.26851C8.60195 9.28852 8.58812 9.30485 8.57125 9.30485H7.77007C7.7532 9.30485 7.73938 9.28852 7.73938 9.26851C7.73938 9.24855 7.7532 9.23222 7.77007 9.23222Z" fill="#FFFF00" stroke="black" stroke-width="0.0055"/>
<path d="M8.0334 8.68582L8.09666 8.68592V8.73085H8.14281V8.68492L8.20761 8.68513V8.73088H8.2539V8.68495H8.31875L8.31864 8.78867C8.31864 8.80495 8.30555 8.8155 8.29036 8.8155H8.0629C8.04762 8.8155 8.03353 8.80327 8.03348 8.78836L8.03333 8.68586L8.0334 8.68582Z" fill="#FFFF00" stroke="black" stroke-width="0.0055"/>
<path d="M8.2674 8.82454L8.28168 9.15719L8.05981 9.15637L8.0745 8.82367L8.2674 8.82454Z" fill="#FFFF00" stroke="black" stroke-width="0.0055"/>
<path d="M8.00099 8.97869L8.00777 9.158L7.79504 9.1581L7.80105 8.9787L8.00099 8.97869Z" fill="#FFFF00" stroke="black" stroke-width="0.0055"/>
<path d="M8.54494 8.97931L8.55172 9.15862L8.33899 9.15872L8.34499 8.97932L8.54494 8.97931Z" fill="#FFFF00" stroke="black" stroke-width="0.0055"/>
<path d="M7.75777 8.84859L7.81961 8.84875V8.89372H7.86486V8.8477L7.92825 8.84791V8.89375H7.97358V8.84773L8.03702 8.84783L8.03691 8.95156C8.03691 8.96775 8.02409 8.9783 8.00927 8.9783H7.78668C7.77176 8.9783 7.75789 8.96616 7.75785 8.95119L7.75769 8.84865L7.75777 8.84859Z" fill="#FFFF00" stroke="black" stroke-width="0.0055"/>
<path d="M8.30708 8.84859L8.36893 8.84875V8.89372H8.41417V8.8477L8.47756 8.84791V8.89375H8.5229V8.84773L8.58633 8.84783L8.58623 8.95156C8.58623 8.96775 8.57341 8.9783 8.55858 8.9783H8.33599C8.32108 8.9783 8.30721 8.96616 8.30716 8.95119L8.30701 8.84865L8.30708 8.84859Z" fill="#FFFF00" stroke="black" stroke-width="0.0055"/>
<path d="M8.1514 8.93045C8.15003 8.89812 8.1966 8.89776 8.19605 8.93045V9.00967H8.1514L8.1514 8.93045Z" fill="black"/>
<path d="M7.87671 9.04532C7.87655 9.01408 7.91986 9.01344 7.91932 9.04532V9.10653H7.87673L7.87671 9.04532Z" fill="black"/>
<path d="M8.42603 9.04532C8.42587 9.01408 8.46918 9.01344 8.46863 9.04532V9.10653H8.42604L8.42603 9.04532Z" fill="black"/>
<path d="M10.7355 9.6428C10.7285 9.35812 10.5265 9.29073 10.5251 9.28973C10.5236 9.28877 10.3069 9.36231 10.3076 9.64544L10.7355 9.6428Z" fill="#FFFF00"/>
<path d="M10.9109 9.29519L10.946 9.62234L10.7325 9.6228C10.7305 9.35213 10.5276 9.30711 10.5227 9.30811C10.5181 9.30785 10.3171 9.36795 10.3117 9.6228H10.0977L10.1363 9.29315L10.9109 9.29511L10.9109 9.29519Z" fill="#FFFF00" stroke="black" stroke-width="0.0055"/>
<path d="M10.9584 9.62389H10.0846C10.0662 9.62389 10.0511 9.64208 10.0511 9.66431C10.0511 9.68651 10.0662 9.7046 10.0846 9.7046H10.9584C10.9768 9.7046 10.9918 9.68651 10.9918 9.66431C10.9918 9.64208 10.9768 9.62389 10.9584 9.62389Z" fill="#FFFF00" stroke="black" stroke-width="0.0055"/>
<path d="M10.6384 9.62195C10.6375 9.45115 10.5218 9.40281 10.5212 9.4029C10.5211 9.4029 10.4004 9.45274 10.3995 9.62195H10.6384Z" fill="#FFFF00" stroke="black" stroke-width="0.0055"/>
<path d="M10.9414 9.15926H10.1038C10.0861 9.15926 10.0717 9.17567 10.0717 9.19559C10.0717 9.21555 10.0861 9.23193 10.1038 9.23193H10.9414C10.959 9.23193 10.9735 9.21565 10.9735 9.19559C10.9735 9.17567 10.959 9.15926 10.9414 9.15926Z" fill="#FFFF00" stroke="black" stroke-width="0.0055"/>
<path d="M10.9245 9.2325H10.1233C10.1065 9.2325 10.0926 9.24882 10.0926 9.26879C10.0926 9.2888 10.1065 9.30512 10.1233 9.30512H10.9245C10.9414 9.30512 10.9552 9.2888 10.9552 9.26879C10.9552 9.24882 10.9414 9.2325 10.9245 9.2325Z" fill="#FFFF00" stroke="black" stroke-width="0.0055"/>
<path d="M10.6612 8.68609L10.5979 8.6862V8.73113H10.5518V8.6852L10.487 8.6854V8.73115H10.4407V8.68522H10.3758L10.3759 8.78895C10.3759 8.80523 10.389 8.81578 10.4042 8.81578H10.6317C10.647 8.81578 10.6611 8.80355 10.6611 8.78863L10.6613 8.68613L10.6612 8.68609Z" fill="#FFFF00" stroke="black" stroke-width="0.0055"/>
<path d="M10.4272 8.82481L10.4129 9.15746L10.6348 9.15664L10.6201 8.82394L10.4272 8.82481Z" fill="#FFFF00" stroke="black" stroke-width="0.0055"/>
<path d="M10.6936 8.97897L10.6868 9.15827L10.8995 9.15838L10.8935 8.97898L10.6936 8.97897Z" fill="#FFFF00" stroke="black" stroke-width="0.0055"/>
<path d="M10.1495 8.97958L10.1427 9.15889L10.3555 9.159L10.3495 8.97959L10.1495 8.97958Z" fill="#FFFF00" stroke="black" stroke-width="0.0055"/>
<path d="M10.9368 8.84887L10.875 8.84902V8.894H10.8297V8.84798L10.7663 8.84818V8.89402H10.721V8.848L10.6576 8.8481L10.6577 8.95183C10.6577 8.96802 10.6705 8.97857 10.6853 8.97857H10.9079C10.9228 8.97857 10.9367 8.96643 10.9367 8.95147L10.9369 8.84892L10.9368 8.84887Z" fill="#FFFF00" stroke="black" stroke-width="0.0055"/>
<path d="M10.3875 8.84887L10.3257 8.84902V8.894H10.2804V8.84798L10.217 8.84818V8.89402H10.1717V8.848L10.1082 8.8481L10.1084 8.95183C10.1084 8.96802 10.1212 8.97857 10.136 8.97857H10.3586C10.3735 8.97857 10.3874 8.96643 10.3874 8.95147L10.3876 8.84892L10.3875 8.84887Z" fill="#FFFF00" stroke="black" stroke-width="0.0055"/>
<path d="M10.5432 8.93073C10.5445 8.89839 10.498 8.89803 10.4985 8.93073V9.00995H10.5432L10.5432 8.93073Z" fill="black"/>
<path d="M10.8179 9.0456C10.818 9.01436 10.7747 9.01372 10.7753 9.0456V9.10681H10.8179L10.8179 9.0456Z" fill="black"/>
<path d="M10.2686 9.0456C10.2687 9.01436 10.2254 9.01372 10.2259 9.0456V9.10681H10.2685L10.2686 9.0456Z" fill="black"/>
<path d="M10.7355 12.0312C10.7285 11.7465 10.5265 11.6791 10.5251 11.6781C10.5236 11.6772 10.3069 11.7507 10.3076 12.0338L10.7355 12.0312Z" fill="#FFFF00"/>
<path d="M10.9109 11.6836L10.946 12.0107L10.7325 12.0112C10.7305 11.7405 10.5276 11.6955 10.5227 11.6965C10.5181 11.6962 10.3171 11.7563 10.3117 12.0112H10.0977L10.1363 11.6815L10.9109 11.6835L10.9109 11.6836Z" fill="#FFFF00" stroke="black" stroke-width="0.0055"/>
<path d="M10.9584 12.0123H10.0846C10.0662 12.0123 10.0511 12.0305 10.0511 12.0527C10.0511 12.0749 10.0662 12.093 10.0846 12.093H10.9584C10.9768 12.093 10.9918 12.0749 10.9918 12.0527C10.9918 12.0305 10.9768 12.0123 10.9584 12.0123Z" fill="#FFFF00" stroke="black" stroke-width="0.0055"/>
<path d="M10.6384 12.0103C10.6375 11.8395 10.5218 11.7912 10.5212 11.7913C10.5211 11.7913 10.4004 11.8411 10.3995 12.0103H10.6384Z" fill="#FFFF00" stroke="black" stroke-width="0.0055"/>
<path d="M10.9414 11.5476H10.1038C10.0861 11.5476 10.0717 11.5641 10.0717 11.584C10.0717 11.6039 10.0861 11.6203 10.1038 11.6203H10.9414C10.959 11.6203 10.9735 11.604 10.9735 11.584C10.9735 11.5641 10.959 11.5476 10.9414 11.5476Z" fill="#FFFF00" stroke="black" stroke-width="0.0055"/>
<path d="M10.9245 11.6209H10.1233C10.1065 11.6209 10.0926 11.6372 10.0926 11.6572C10.0926 11.6772 10.1065 11.6935 10.1233 11.6935H10.9245C10.9414 11.6935 10.9552 11.6772 10.9552 11.6572C10.9552 11.6372 10.9414 11.6209 10.9245 11.6209Z" fill="#FFFF00" stroke="black" stroke-width="0.0055"/>
<path d="M10.6612 11.0745L10.5979 11.0746V11.1195H10.5518V11.0736L10.487 11.0738V11.1195H10.4407V11.0736H10.3758L10.3759 11.1773C10.3759 11.1936 10.389 11.2042 10.4042 11.2042H10.6317C10.647 11.2042 10.6611 11.1919 10.6611 11.177L10.6613 11.0745L10.6612 11.0745Z" fill="#FFFF00" stroke="black" stroke-width="0.0055"/>
<path d="M10.4272 11.2132L10.4129 11.5458L10.6348 11.545L10.6201 11.2123L10.4272 11.2132Z" fill="#FFFF00" stroke="black" stroke-width="0.0055"/>
<path d="M10.6936 11.3673L10.6868 11.5466L10.8995 11.5468L10.8935 11.3674L10.6936 11.3673Z" fill="#FFFF00" stroke="black" stroke-width="0.0055"/>
<path d="M10.1495 11.368L10.1427 11.5473L10.3555 11.5474L10.3495 11.368L10.1495 11.368Z" fill="#FFFF00" stroke="black" stroke-width="0.0055"/>
<path d="M10.9368 11.2373L10.875 11.2374V11.2824H10.8297V11.2364L10.7663 11.2366V11.2824H10.721V11.2364L10.6576 11.2365L10.6577 11.3402C10.6577 11.3564 10.6705 11.367 10.6853 11.367H10.9079C10.9228 11.367 10.9367 11.3548 10.9367 11.3399L10.9369 11.2373L10.9368 11.2373Z" fill="#FFFF00" stroke="black" stroke-width="0.0055"/>
<path d="M10.3875 11.2373L10.3257 11.2374V11.2824H10.2804V11.2364L10.217 11.2366V11.2824H10.1717V11.2364L10.1082 11.2365L10.1084 11.3402C10.1084 11.3564 10.1212 11.367 10.136 11.367H10.3586C10.3735 11.367 10.3874 11.3548 10.3874 11.3399L10.3876 11.2373L10.3875 11.2373Z" fill="#FFFF00" stroke="black" stroke-width="0.0055"/>
<path d="M10.5432 11.3191C10.5445 11.2868 10.498 11.2864 10.4985 11.3191V11.3983H10.5432L10.5432 11.3191Z" fill="black"/>
<path d="M10.8179 11.434C10.818 11.4027 10.7747 11.4021 10.7753 11.434V11.4952H10.8179L10.8179 11.434Z" fill="black"/>
<path d="M10.2686 11.434C10.2687 11.4027 10.2254 11.4021 10.2259 11.434V11.4952H10.2685L10.2686 11.434Z" fill="black"/>
<path d="M9.79424 14.5162C9.99145 14.3105 9.89689 14.1196 9.89658 14.1179C9.89623 14.1161 9.69123 14.0141 9.49072 14.2142L9.79424 14.5162Z" fill="#FFFF00"/>
<path d="M10.1599 14.3954L9.95244 14.651L9.80159 14.4998C9.99232 14.3075 9.88127 14.1317 9.8771 14.129C9.87405 14.1255 9.68961 14.0251 9.50489 14.201L9.35399 14.049L9.61529 13.844L10.16 14.3954L10.1599 14.3954Z" fill="#FFFF00" stroke="black" stroke-width="0.00550309"/>
<path d="M9.96115 14.6618L9.34513 14.0415C9.33215 14.0284 9.30862 14.0305 9.29283 14.0462C9.27708 14.0618 9.27484 14.0853 9.28782 14.0984L9.90384 14.7188C9.91682 14.7318 9.94028 14.7298 9.95604 14.7141C9.97183 14.6984 9.97413 14.6749 9.96115 14.6618Z" fill="#FFFF00" stroke="black" stroke-width="0.00550309"/>
<path d="M9.74267 14.435C9.86327 14.3139 9.81603 14.1977 9.81554 14.1973C9.81551 14.1973 9.69501 14.1467 9.57419 14.2653L9.74267 14.435Z" fill="#FFFF00" stroke="black" stroke-width="0.00550309"/>
<path d="M10.2779 14.3206L9.68737 13.7259C9.67493 13.7134 9.65308 13.7147 9.63894 13.7287C9.62477 13.7428 9.62334 13.7646 9.63578 13.7771L10.2263 14.3719C10.2387 14.3844 10.2605 14.3832 10.2747 14.369C10.2889 14.355 10.2903 14.3332 10.2779 14.3206Z" fill="#FFFF00" stroke="black" stroke-width="0.00550309"/>
<path d="M10.2148 14.3605L9.64998 13.7917C9.63809 13.7797 9.61675 13.7814 9.60257 13.7955C9.58837 13.8096 9.58652 13.8309 9.59842 13.8429L10.1632 14.4117C10.1751 14.4237 10.1965 14.422 10.2107 14.4079C10.2249 14.3938 10.2267 14.3725 10.2148 14.3605Z" fill="#FFFF00" stroke="black" stroke-width="0.00550309"/>
<path d="M10.4189 13.7913L10.3742 13.7464L10.3423 13.7781L10.3098 13.7453L10.3424 13.7129L10.2965 13.6671L10.2641 13.6993L10.2314 13.6665L10.264 13.6341L10.2183 13.588L10.1447 13.6612C10.1332 13.6727 10.1349 13.6895 10.1456 13.7002L10.306 13.8617C10.3168 13.8726 10.3354 13.874 10.346 13.8635L10.4189 13.7913L10.4189 13.7913Z" fill="#FFFF00" stroke="black" stroke-width="0.00550309"/>
<path d="M10.1536 13.7206L9.90733 13.945L10.0643 14.1019L10.2902 13.8569L10.1536 13.7206Z" fill="#FFFF00" stroke="black" stroke-width="0.00550309"/>
<path d="M10.2381 14.0209L10.106 14.1425L10.2559 14.2936L10.3791 14.1628L10.2381 14.0209Z" fill="#FFFF00" stroke="black" stroke-width="0.00550309"/>
<path d="M9.8487 13.633L9.71662 13.7546L9.86651 13.9057L9.98966 13.775L9.8487 13.633Z" fill="#FFFF00" stroke="black" stroke-width="0.00550309"/>
<path d="M10.4967 14.0991L10.453 14.0553L10.4211 14.087L10.3892 14.0549L10.4219 14.0224L10.377 13.9776L10.3445 14.0099L10.3125 13.9777L10.3452 13.9453L10.3004 13.9003L10.2268 13.9735C10.2154 13.9849 10.2169 14.0015 10.2274 14.012L10.3843 14.17C10.3948 14.1806 10.4132 14.1819 10.4238 14.1714L10.4968 14.0992L10.4967 14.0991Z" fill="#FFFF00" stroke="black" stroke-width="0.00550309"/>
<path d="M10.1133 13.7107L10.0696 13.6669L10.0377 13.6986L10.0058 13.6665L10.0385 13.6341L9.99362 13.5892L9.96108 13.6215L9.92912 13.5893L9.96179 13.5569L9.917 13.5119L9.84342 13.5851C9.83193 13.5965 9.83348 13.6131 9.84393 13.6236L10.0009 13.7816C10.0114 13.7922 10.0298 13.7935 10.0404 13.783L10.1133 13.7108L10.1133 13.7107Z" fill="#FFFF00" stroke="black" stroke-width="0.00550309"/>
<path d="M10.1642 13.8788C10.1881 13.857 10.1555 13.8237 10.1327 13.8471L10.0765 13.9029L10.1079 13.9347L10.1642 13.8788Z" fill="black"/>
<path d="M10.2746 14.1541C10.2969 14.1322 10.2668 14.101 10.2446 14.1239L10.2011 14.167L10.2311 14.1972L10.2746 14.1541Z" fill="black"/>
<path d="M9.89055 13.7646C9.91283 13.7427 9.88277 13.7115 9.86053 13.7343L9.8171 13.7775L9.8471 13.8077L9.89055 13.7646Z" fill="black"/>
<path d="M7.79336 12.1162V12.1164C7.79336 12.2305 7.83715 12.3344 7.90741 12.4098C7.9778 12.4854 8.07475 12.5324 8.18079 12.5324C8.28738 12.5324 8.38415 12.4857 8.45422 12.4104C8.52425 12.3352 8.56777 12.2314 8.56777 12.1169V11.5617L7.79474 11.561L7.79336 12.1162Z" fill="#356BA0"/>
<path d="M7.97067 11.8493C8.01298 11.8493 8.04729 11.815 8.04729 11.7727C8.04729 11.7304 8.01298 11.6961 7.97067 11.6961C7.92835 11.6961 7.89404 11.7304 7.89404 11.7727C7.89404 11.815 7.92835 11.8493 7.97067 11.8493Z" fill="white"/>
<path d="M8.40096 11.8493C8.44328 11.8493 8.47758 11.815 8.47758 11.7727C8.47758 11.7304 8.44328 11.6961 8.40096 11.6961C8.35865 11.6961 8.32434 11.7304 8.32434 11.7727C8.32434 11.815 8.35865 11.8493 8.40096 11.8493Z" fill="white"/>
<path d="M8.18588 12.0553C8.22819 12.0553 8.2625 12.021 8.2625 11.9787C8.2625 11.9364 8.22819 11.9021 8.18588 11.9021C8.14356 11.9021 8.10925 11.9364 8.10925 11.9787C8.10925 12.021 8.14356 12.0553 8.18588 12.0553Z" fill="white"/>
<path d="M7.97067 12.2705C8.01298 12.2705 8.04729 12.2362 8.04729 12.1938C8.04729 12.1515 8.01298 12.1172 7.97067 12.1172C7.92835 12.1172 7.89404 12.1515 7.89404 12.1938C7.89404 12.2362 7.92835 12.2705 7.97067 12.2705Z" fill="white"/>
<path d="M8.40096 12.2705C8.44328 12.2705 8.47758 12.2362 8.47758 12.1938C8.47758 12.1515 8.44328 12.1172 8.40096 12.1172C8.35865 12.1172 8.32434 12.1515 8.32434 12.1938C8.32434 12.2362 8.35865 12.2705 8.40096 12.2705Z" fill="white"/>
<path d="M7.79568 10.775V10.7753C7.79568 10.8893 7.83947 10.9932 7.90973 11.0686C7.98012 11.1443 8.07707 11.1912 8.18311 11.1912C8.2897 11.1912 8.38647 11.1446 8.45654 11.0693C8.52657 10.994 8.57009 10.8902 8.57009 10.7757V10.2205L7.79706 10.2199L7.79568 10.775Z" fill="#356BA0"/>
<path d="M7.97298 10.5081C8.0153 10.5081 8.04961 10.4738 8.04961 10.4315C8.04961 10.3892 8.0153 10.3549 7.97298 10.3549C7.93067 10.3549 7.89636 10.3892 7.89636 10.4315C7.89636 10.4738 7.93067 10.5081 7.97298 10.5081Z" fill="white"/>
<path d="M8.40328 10.5081C8.4456 10.5081 8.4799 10.4738 8.4799 10.4315C8.4799 10.3892 8.4456 10.3549 8.40328 10.3549C8.36096 10.3549 8.32666 10.3892 8.32666 10.4315C8.32666 10.4738 8.36096 10.5081 8.40328 10.5081Z" fill="white"/>
<path d="M8.18819 10.7141C8.23051 10.7141 8.26482 10.6798 8.26482 10.6375C8.26482 10.5952 8.23051 10.5609 8.18819 10.5609C8.14588 10.5609 8.11157 10.5952 8.11157 10.6375C8.11157 10.6798 8.14588 10.7141 8.18819 10.7141Z" fill="white"/>
<path d="M7.97298 10.9293C8.0153 10.9293 8.04961 10.895 8.04961 10.8527C8.04961 10.8103 8.0153 10.776 7.97298 10.776C7.93067 10.776 7.89636 10.8103 7.89636 10.8527C7.89636 10.895 7.93067 10.9293 7.97298 10.9293Z" fill="white"/>
<path d="M8.40328 10.9293C8.4456 10.9293 8.4799 10.895 8.4799 10.8527C8.4799 10.8103 8.4456 10.776 8.40328 10.776C8.36096 10.776 8.32666 10.8103 8.32666 10.8527C8.32666 10.895 8.36096 10.9293 8.40328 10.9293Z" fill="white"/>
<path d="M6.72549 12.1165V12.1168C6.72549 12.2308 6.76928 12.3347 6.83954 12.4101C6.90993 12.4858 7.00688 12.5327 7.11292 12.5327C7.21951 12.5327 7.31628 12.4861 7.38635 12.4108C7.45638 12.3356 7.4999 12.2317 7.4999 12.1172V11.562L6.72687 11.5614L6.72549 12.1165Z" fill="#356BA0"/>
<path d="M6.90279 11.8497C6.94511 11.8497 6.97942 11.8154 6.97942 11.773C6.97942 11.7307 6.94511 11.6964 6.90279 11.6964C6.86048 11.6964 6.82617 11.7307 6.82617 11.773C6.82617 11.8154 6.86048 11.8497 6.90279 11.8497Z" fill="white"/>
<path d="M7.33309 11.8497C7.37541 11.8497 7.40971 11.8154 7.40971 11.773C7.40971 11.7307 7.37541 11.6964 7.33309 11.6964C7.29077 11.6964 7.25647 11.7307 7.25647 11.773C7.25647 11.8154 7.29077 11.8497 7.33309 11.8497Z" fill="white"/>
<path d="M7.11788 12.0556C7.1602 12.0556 7.1945 12.0213 7.1945 11.979C7.1945 11.9367 7.1602 11.9024 7.11788 11.9024C7.07556 11.9024 7.04126 11.9367 7.04126 11.979C7.04126 12.0213 7.07556 12.0556 7.11788 12.0556Z" fill="white"/>
<path d="M6.90279 12.2708C6.94511 12.2708 6.97942 12.2365 6.97942 12.1942C6.97942 12.1519 6.94511 12.1176 6.90279 12.1176C6.86048 12.1176 6.82617 12.1519 6.82617 12.1942C6.82617 12.2365 6.86048 12.2708 6.90279 12.2708Z" fill="white"/>
<path d="M7.33309 12.2708C7.37541 12.2708 7.40971 12.2365 7.40971 12.1942C7.40971 12.1519 7.37541 12.1176 7.33309 12.1176C7.29077 12.1176 7.25647 12.1519 7.25647 12.1942C7.25647 12.2365 7.29077 12.2708 7.33309 12.2708Z" fill="white"/>
<path d="M8.86782 12.1165V12.1168C8.86782 12.2308 8.91161 12.3347 8.98187 12.4101C9.05226 12.4858 9.14921 12.5327 9.25525 12.5327C9.36184 12.5327 9.45861 12.4861 9.52868 12.4108C9.59871 12.3356 9.64223 12.2317 9.64223 12.1172V11.562L8.86921 11.5614L8.86782 12.1165Z" fill="#356BA0"/>
<path d="M9.04513 11.8497C9.08745 11.8497 9.12175 11.8154 9.12175 11.773C9.12175 11.7307 9.08745 11.6964 9.04513 11.6964C9.00281 11.6964 8.96851 11.7307 8.96851 11.773C8.96851 11.8154 9.00281 11.8497 9.04513 11.8497Z" fill="white"/>
<path d="M9.47543 11.8497C9.51774 11.8497 9.55205 11.8154 9.55205 11.773C9.55205 11.7307 9.51774 11.6964 9.47543 11.6964C9.43311 11.6964 9.3988 11.7307 9.3988 11.773C9.3988 11.8154 9.43311 11.8497 9.47543 11.8497Z" fill="white"/>
<path d="M9.26034 12.0556C9.30266 12.0556 9.33696 12.0213 9.33696 11.979C9.33696 11.9367 9.30266 11.9024 9.26034 11.9024C9.21802 11.9024 9.18372 11.9367 9.18372 11.979C9.18372 12.0213 9.21802 12.0556 9.26034 12.0556Z" fill="white"/>
<path d="M9.04513 12.2708C9.08745 12.2708 9.12175 12.2365 9.12175 12.1942C9.12175 12.1519 9.08745 12.1176 9.04513 12.1176C9.00281 12.1176 8.96851 12.1519 8.96851 12.1942C8.96851 12.2365 9.00281 12.2708 9.04513 12.2708Z" fill="white"/>
<path d="M9.47543 12.2708C9.51774 12.2708 9.55205 12.2365 9.55205 12.1942C9.55205 12.1519 9.51774 12.1176 9.47543 12.1176C9.43311 12.1176 9.3988 12.1519 9.3988 12.1942C9.3988 12.2365 9.43311 12.2708 9.47543 12.2708Z" fill="white"/>
<path d="M7.79568 13.4459V13.4462C7.79568 13.5603 7.83947 13.6642 7.90973 13.7396C7.98012 13.8152 8.07707 13.8622 8.18311 13.8622C8.2897 13.8622 8.38647 13.8155 8.45654 13.7402C8.52657 13.665 8.57009 13.5612 8.57009 13.4467V12.8914L7.79706 12.8908L7.79568 13.4459Z" fill="#356BA0"/>
<path d="M7.97298 13.1791C8.0153 13.1791 8.04961 13.1448 8.04961 13.1025C8.04961 13.0601 8.0153 13.0258 7.97298 13.0258C7.93067 13.0258 7.89636 13.0601 7.89636 13.1025C7.89636 13.1448 7.93067 13.1791 7.97298 13.1791Z" fill="white"/>
<path d="M8.40328 13.1791C8.4456 13.1791 8.4799 13.1448 8.4799 13.1025C8.4799 13.0601 8.4456 13.0258 8.40328 13.0258C8.36096 13.0258 8.32666 13.0601 8.32666 13.1025C8.32666 13.1448 8.36096 13.1791 8.40328 13.1791Z" fill="white"/>
<path d="M8.18819 13.3851C8.23051 13.3851 8.26482 13.3508 8.26482 13.3084C8.26482 13.2661 8.23051 13.2318 8.18819 13.2318C8.14588 13.2318 8.11157 13.2661 8.11157 13.3084C8.11157 13.3508 8.14588 13.3851 8.18819 13.3851Z" fill="white"/>
<path d="M7.97298 13.6002C8.0153 13.6002 8.04961 13.5659 8.04961 13.5236C8.04961 13.4813 8.0153 13.447 7.97298 13.447C7.93067 13.447 7.89636 13.4813 7.89636 13.5236C7.89636 13.5659 7.93067 13.6002 7.97298 13.6002Z" fill="white"/>
<path d="M8.40328 13.6002C8.4456 13.6002 8.4799 13.5659 8.4799 13.5236C8.4799 13.4813 8.4456 13.447 8.40328 13.447C8.36096 13.447 8.32666 13.4813 8.32666 13.5236C8.32666 13.5659 8.36096 13.6002 8.40328 13.6002Z" fill="white"/>
</g>
</g>
<defs>
<clipPath id="clip0_1073_21250">
<rect width="24" height="24" fill="white"/>
</clipPath>
</defs>
</svg>
