<svg width="24" height="24" viewBox="0 0 24 24" fill="none" xmlns="http://www.w3.org/2000/svg">
<g clip-path="url(#clip0_1073_21240)">
<path d="M22.2821 0.00234985H1.67887C0.740868 0.00234985 -0.0195312 0.762749 -0.0195312 1.70075V22.3039C-0.0195312 23.2419 0.740868 24.0023 1.67887 24.0023H22.2821C23.2201 24.0023 23.9805 23.2419 23.9805 22.3039V1.70075C23.9805 0.762749 23.2201 0.00234985 22.2821 0.00234985Z" fill="#FCD116"/>
<path d="M7.98047 24.0023H1.67887C1.22849 24.0021 0.796619 23.8231 0.478153 23.5047C0.159687 23.1862 -0.0193193 22.7543 -0.0195312 22.3039L-0.0195312 1.70075C-0.0193193 1.25037 0.159687 0.8185 0.478153 0.500034C0.796619 0.181568 1.22849 0.00256185 1.67887 0.00234985L7.98047 0.00234985V24.0023Z" fill="#002B7F"/>
<path d="M22.2821 24.0023H15.9805V0.00234985H22.2821C22.7324 0.00256185 23.1643 0.181568 23.4828 0.500034C23.8013 0.8185 23.9803 1.25037 23.9805 1.70075V22.3039C23.9803 22.7543 23.8013 23.1862 23.4828 23.5047C23.1643 23.8231 22.7324 24.0021 22.2821 24.0023Z" fill="#CE1126"/>
</g>
<defs>
<clipPath id="clip0_1073_21240">
<rect width="24" height="24" fill="white"/>
</clipPath>
</defs>
</svg>
