<svg width="24" height="24" viewBox="0 0 24 24" fill="none" xmlns="http://www.w3.org/2000/svg">
<g clip-path="url(#clip0_1073_21198)">
<g clip-path="url(#clip1_1073_21198)">
<path d="M24.0023 16.0037H0.00231934V24.001H24.0023V16.0037Z" fill="#F5F5F5"/>
<path d="M24.0023 0.000274658H0.00231934V7.99762H24.0023V0.000274658Z" fill="#FF4B55"/>
<path d="M24.0023 7.99855H0.00231934V16.0039H24.0023V7.99855Z" fill="#41479B"/>
<path d="M10.4277 7.99628H5.87735L5.68774 6.85872H10.6174L10.4277 7.99628Z" fill="#FFE15A"/>
<path d="M5.82959 7.71245L5.87703 7.99684H10.4274L10.4749 7.71245H5.82959Z" fill="#FFD350"/>
<path d="M8.25083 4.20511H8.06122V4.9635H8.25083V4.20511Z" fill="#FFE15A"/>
<path d="M8.43749 4.3942H7.86871V4.58381H8.43749V4.3942Z" fill="#FFE15A"/>
<path d="M10.4454 7.23907C10.4239 7.23907 10.4022 7.23537 10.3807 7.22777C10.2823 7.19206 10.2314 7.08335 10.2672 6.98487L10.6688 5.87651C10.6887 5.82152 10.684 5.76096 10.6559 5.71043C10.641 5.68357 10.6061 5.63637 10.5396 5.62212C10.0499 5.51806 9.10081 5.34307 8.24689 5.34307H8.06375C7.20978 5.34307 6.2607 5.51805 5.77086 5.6223C5.70458 5.63637 5.66966 5.68357 5.65475 5.71043C5.62672 5.76096 5.62199 5.82152 5.64195 5.87651L6.04349 6.98487C6.0792 7.08335 6.0283 7.19206 5.92991 7.22777C5.83161 7.26298 5.72263 7.2124 5.68709 7.1141L5.28547 6.00574C5.22814 5.84763 5.24188 5.67302 5.32316 5.52654C5.40167 5.38488 5.53602 5.28452 5.69183 5.25138C6.1963 5.14399 7.17514 4.96385 8.0638 4.96385H8.24694C9.1356 4.96385 10.1144 5.14399 10.6187 5.2512C10.7747 5.28452 10.9091 5.38488 10.9875 5.52654C11.0688 5.67298 11.0825 5.84759 11.0253 6.00574L10.6236 7.1141C10.5958 7.19112 10.5229 7.23907 10.4454 7.23907Z" fill="#FFE15A"/>
<path d="M8.15384 7.07245C8.04912 7.07245 7.96423 6.98766 7.96423 6.88284V5.34234C7.96423 5.23753 8.04912 5.15273 8.15384 5.15273C8.25856 5.15273 8.34345 5.23753 8.34345 5.34234V6.88284C8.34345 6.98766 8.25856 7.07245 8.15384 7.07245Z" fill="#FFE15A"/>
<path d="M9.46842 7.23907C9.45562 7.23907 9.44268 7.23776 9.4297 7.23518C9.32713 7.2139 9.26127 7.11354 9.2826 7.01098L9.51257 5.90262C9.54248 5.7582 9.49565 5.63173 9.46907 5.60951C9.20615 5.51304 8.67871 5.34307 8.20945 5.34307H8.10454C7.63527 5.34307 7.10784 5.51304 6.83521 5.61452C6.81838 5.63173 6.77151 5.7582 6.80142 5.90262L7.03138 7.01098C7.05267 7.11354 6.98685 7.2139 6.88429 7.23518C6.78163 7.25501 6.68127 7.19055 6.66013 7.08799L6.43017 5.97963C6.37284 5.7034 6.46082 5.34954 6.70279 5.25916C7.06523 5.12435 7.60237 4.96385 8.10454 4.96385H8.20945C8.71157 4.96385 9.24876 5.1244 9.61101 5.25898C9.85321 5.34954 9.94115 5.70335 9.88382 5.97963L9.65385 7.08799C9.63534 7.17762 9.55635 7.23907 9.46842 7.23907Z" fill="#FFE15A"/>
<path d="M5.73513 7.14311H10.57L10.6174 6.85872H5.68774L5.73513 7.14311Z" fill="#FFD350"/>
<path d="M4.54984 7.99626C4.44512 7.99626 4.36023 8.08115 4.36023 8.18587V14.8073C4.36023 16.9096 6.05795 18.6139 8.15228 18.6139C10.2466 18.6139 11.9443 16.9096 11.9443 14.8073V8.18587C11.9443 8.08115 11.8594 7.99626 11.7547 7.99626H4.54984Z" fill="#FF4B55"/>
<path d="M8.53386 14.2532L8.91308 13.3052L8.15469 13.4948L7.3963 13.3052L7.77551 14.2532L6.82751 17.4764C6.82751 17.4764 7.3963 17.8556 8.15473 17.8556C8.91317 17.8556 9.48195 17.4764 9.48195 17.4764L8.53386 14.2532Z" fill="#F5F5F5"/>
<path d="M6.77991 15.0174L6.44541 15.101L7.18125 13.7765L6.8498 13.5924L5.95604 15.2013H5.1195V15.5805H5.52694L5.0011 16.0011L5.23791 16.2974L5.68463 15.9401L5.50843 16.4685L5.86819 16.5885L6.2145 15.5495L6.87193 15.3851L6.77991 15.0174Z" fill="#FFE15A"/>
<path d="M6.82572 9.89225L5.96017 9.4595C5.80122 9.38 5.71877 9.2008 5.76189 9.02835L5.81083 8.83255C5.84482 8.69666 5.74202 8.56503 5.60196 8.56503C5.53657 8.56503 5.47469 8.59475 5.43386 8.64585C4.98475 9.20722 4.74011 9.90472 4.74011 10.6236V14.6323C4.74011 14.6323 5.53188 14.474 6.2471 13.4337C6.37844 13.2427 6.59458 13.1297 6.82497 13.1178L6.44655 14.2531L7.20494 14.4427L7.86855 13.653L6.82572 9.89225Z" fill="#F5F5F5"/>
<path d="M9.52683 15.0174L9.86133 15.101L9.12549 13.7765L9.45694 13.5924L10.3508 15.2013H11.1872V15.5805H10.7798L11.3056 16.0011L11.0688 16.2974L10.6221 15.9401L10.7983 16.4685L10.4386 16.5885L10.0922 15.5495L9.43482 15.3851L9.52683 15.0174Z" fill="#FFE15A"/>
<path d="M9.48167 9.89225L10.3472 9.4595C10.5062 9.38 10.5886 9.2008 10.5455 9.02835L10.4966 8.83255C10.4626 8.69666 10.5654 8.56503 10.7054 8.56503C10.7708 8.56503 10.8327 8.59475 10.8735 8.64585C11.3226 9.20722 11.5673 9.90472 11.5673 10.6236V14.6323C11.5673 14.6323 10.7755 14.474 10.0603 13.4337C9.92895 13.2427 9.71281 13.1297 9.48242 13.1178L9.86084 14.2531L9.10245 14.4427L8.43884 13.653L9.48167 9.89225Z" fill="#F5F5F5"/>
<path d="M7.01342 8.56509H6.06537L6.34981 8.94431L7.01342 9.13388L6.6342 9.32348H7.20298L7.01342 8.56509Z" fill="#FFE15A"/>
<path d="M9.29093 8.56503H10.2389L9.95449 8.94425L9.29093 9.13381L9.6701 9.32342H9.10132L9.29093 8.56503Z" fill="#FFE15A"/>
<path d="M9.42137 8.41636L8.52948 8.565L8.15026 9.32339L7.77104 8.565L6.87915 8.41636C6.77687 8.39929 6.6985 8.50547 6.74486 8.59818L7.20226 9.513L6.82304 9.89221H8.15026H9.47748L9.09826 9.513L9.55567 8.59818C9.60203 8.50547 9.52365 8.39929 9.42137 8.41636Z" fill="#F5F5F5"/>
<path d="M8.15048 7.22567C8.30754 7.22567 8.43487 7.09835 8.43487 6.94128C8.43487 6.78422 8.30754 6.65689 8.15048 6.65689C7.99341 6.65689 7.86609 6.78422 7.86609 6.94128C7.86609 7.09835 7.99341 7.22567 8.15048 7.22567Z" fill="#FFBE50"/>
<path d="M8.14621 7.77898C8.27035 7.77898 8.37098 7.70824 8.37098 7.62097C8.37098 7.5337 8.27035 7.46295 8.14621 7.46295C8.02208 7.46295 7.92145 7.5337 7.92145 7.62097C7.92145 7.70824 8.02208 7.77898 8.14621 7.77898Z" fill="#41479B"/>
<path d="M7.02451 7.77898C7.14864 7.77898 7.24927 7.70824 7.24927 7.62097C7.24927 7.5337 7.14864 7.46295 7.02451 7.46295C6.90037 7.46295 6.79974 7.5337 6.79974 7.62097C6.79974 7.70824 6.90037 7.77898 7.02451 7.77898Z" fill="#FF4B55"/>
<path d="M5.90512 7.77904C6.02926 7.77904 6.12989 7.7083 6.12989 7.62103C6.12989 7.53376 6.02926 7.46301 5.90512 7.46301C5.78099 7.46301 5.68036 7.53376 5.68036 7.62103C5.68036 7.7083 5.78099 7.77904 5.90512 7.77904Z" fill="#41479B"/>
<path d="M10.3902 7.77898C10.5143 7.77898 10.6149 7.70824 10.6149 7.62097C10.6149 7.5337 10.5143 7.46295 10.3902 7.46295C10.266 7.46295 10.1654 7.5337 10.1654 7.62097C10.1654 7.70824 10.266 7.77898 10.3902 7.77898Z" fill="#41479B"/>
<path d="M9.2725 7.779C9.39663 7.779 9.49726 7.70825 9.49726 7.62098C9.49726 7.53371 9.39663 7.46297 9.2725 7.46297C9.14836 7.46297 9.04773 7.53371 9.04773 7.62098C9.04773 7.70825 9.14836 7.779 9.2725 7.779Z" fill="#FF4B55"/>
<path d="M9.47629 7.22636C9.63335 7.22636 9.76068 7.09903 9.76068 6.94197C9.76068 6.7849 9.63335 6.65758 9.47629 6.65758C9.31922 6.65758 9.19189 6.7849 9.19189 6.94197C9.19189 7.09903 9.31922 7.22636 9.47629 7.22636Z" fill="#FFBE50"/>
<path d="M10.5154 7.22636C10.6725 7.22636 10.7998 7.09903 10.7998 6.94197C10.7998 6.7849 10.6725 6.65758 10.5154 6.65758C10.3583 6.65758 10.231 6.7849 10.231 6.94197C10.231 7.09903 10.3583 7.22636 10.5154 7.22636Z" fill="#FFBE50"/>
<path d="M6.83957 7.22636C6.99663 7.22636 7.12396 7.09903 7.12396 6.94197C7.12396 6.7849 6.99663 6.65758 6.83957 6.65758C6.6825 6.65758 6.55518 6.7849 6.55518 6.94197C6.55518 7.09903 6.6825 7.22636 6.83957 7.22636Z" fill="#FFBE50"/>
<path d="M5.80044 7.22636C5.95751 7.22636 6.08483 7.09903 6.08483 6.94197C6.08483 6.7849 5.95751 6.65758 5.80044 6.65758C5.64338 6.65758 5.51605 6.7849 5.51605 6.94197C5.51605 7.09903 5.64338 7.22636 5.80044 7.22636Z" fill="#FFBE50"/>
<path d="M8.48099 5.34243C8.51357 5.28646 8.53358 5.22225 8.53358 5.15282C8.53358 4.94339 8.3638 4.77361 8.15437 4.77361C7.94493 4.77361 7.77515 4.94339 7.77515 5.15282C7.77515 5.22225 7.79516 5.28646 7.82774 5.34243H8.48099Z" fill="#41479B"/>
<path d="M8.15345 13.7792C7.36932 13.7792 6.73145 13.1413 6.73145 12.3572V9.79756H9.57545V12.3572C9.57545 13.1413 8.93757 13.7792 8.15345 13.7792Z" fill="#FF4B55"/>
<path d="M9.4793 9.89218V12.357C9.4793 13.09 8.88511 13.6842 8.15208 13.6842C7.41905 13.6842 6.82486 13.09 6.82486 12.357V9.89218H9.4793ZM9.66891 9.70258H9.4793H6.82486H6.63525V9.89218V12.357C6.63525 13.1934 7.31569 13.8738 8.15208 13.8738C8.98847 13.8738 9.66891 13.1934 9.66891 12.357V9.89218V9.70258Z" fill="#A54B50"/>
<path d="M7.86896 13.6532C7.96065 13.6732 8.05566 13.6845 8.15335 13.6845C8.25108 13.6845 8.34605 13.6732 8.43774 13.6532V9.89243H7.86896V13.6532Z" fill="#F5F5F5"/>
<path d="M9.47969 11.4568H6.82526V12.0256H9.47969V11.4568Z" fill="#F5F5F5"/>
</g>
</g>
<defs>
<clipPath id="clip0_1073_21198">
<rect width="24" height="24" rx="2" fill="white"/>
</clipPath>
<clipPath id="clip1_1073_21198">
<rect width="24" height="24" fill="white"/>
</clipPath>
</defs>
</svg>
