<svg width="24" height="24" viewBox="0 0 24 24" fill="none" xmlns="http://www.w3.org/2000/svg">
<g clip-path="url(#clip0_1073_22121)">
<path d="M22.2982 -0.000396729H1.69498C0.756982 -0.000396729 -0.00341797 0.760003 -0.00341797 1.698V22.3012C-0.00341797 23.2392 0.756982 23.9996 1.69498 23.9996H22.2982C23.2362 23.9996 23.9966 23.2392 23.9966 22.3012V1.698C23.9966 0.760003 23.2362 -0.000396729 22.2982 -0.000396729Z" fill="white"/>
<path d="M3.09418 11.43C3.09418 13.1844 3.67178 14.71 4.82058 15.9996H-0.00341797V7.9996H3.15258C3.11658 8.854 3.09418 9.99 3.09418 11.43Z" fill="#0B4EA2"/>
<path d="M23.9966 7.9996V15.9996H11.8054C12.9534 14.7124 13.5318 13.1844 13.5318 11.43C13.5318 9.99 13.5054 8.854 13.4734 7.9996H23.9966Z" fill="#0B4EA2"/>
<path d="M23.9966 15.9996V22.3012C23.9964 22.7516 23.8174 23.1835 23.4989 23.5019C23.1804 23.8204 22.7486 23.9994 22.2982 23.9996H1.69498C1.2446 23.9994 0.812732 23.8204 0.494266 23.5019C0.1758 23.1835 -0.00320598 22.7516 -0.00341797 22.3012L-0.00341797 15.9996H4.82058C5.63552 16.9148 6.73818 17.7081 8.12858 18.3796L8.31258 18.4684L8.49658 18.3796C9.88325 17.7097 10.9862 16.9164 11.8054 15.9996H23.9966Z" fill="#EE1C25"/>
<path d="M8.31654 17.9996C6.34054 17.0468 3.51654 15.1604 3.51654 11.43C3.51654 7.6996 3.69654 5.9996 3.69654 5.9996H12.9293C12.9293 5.9996 13.1077 7.6956 13.1077 11.4268C13.1077 15.158 10.2853 17.0468 8.31654 17.9996Z" fill="#EE1C25"/>
<path d="M8.73496 10.4516C9.26856 10.4604 10.311 10.4812 11.239 10.1708C11.239 10.1708 11.2142 10.5028 11.2142 10.8908C11.2142 11.2788 11.239 11.6108 11.239 11.6108C10.3878 11.326 9.33656 11.3204 8.73496 11.3276V13.3884H7.89096V11.3252C7.28936 11.318 6.23816 11.3252 5.38696 11.6084C5.38696 11.6084 5.41096 11.2764 5.41096 10.8884C5.41096 10.5004 5.38696 10.1684 5.38696 10.1684C6.31656 10.4796 7.35656 10.4604 7.89096 10.4516V9.15721C7.2192 9.1384 6.54913 9.2339 5.90936 9.43961C5.90936 9.43961 5.93416 9.10761 5.93416 8.71961C5.93416 8.33161 5.90936 7.99961 5.90936 7.99961C6.54827 8.20561 7.21751 8.30164 7.88856 8.28361C7.86376 7.46441 7.62536 6.43161 7.62536 6.43161C7.62536 6.43161 8.11656 6.47001 8.31256 6.47001C8.50856 6.47001 9.00056 6.43161 9.00056 6.43161C9.00056 6.43161 8.76056 7.46441 8.73656 8.28361C9.40761 8.30325 10.0771 8.20885 10.7166 8.00441C10.7166 8.00441 10.6918 8.33641 10.6918 8.72441C10.6918 9.11241 10.7166 9.44441 10.7166 9.44441C10.0769 9.23788 9.40686 9.14158 8.73496 9.15961V10.4516Z" fill="white"/>
<path d="M12.1566 14.8268C11.1598 16.4148 9.56696 17.394 8.31656 17.9972C7.06536 17.394 5.47256 16.4148 4.47656 14.8268C4.73416 14.3748 5.13816 13.8876 5.68616 13.8876C5.91308 13.8826 6.1369 13.941 6.33239 14.0564C6.52787 14.1717 6.68725 14.3393 6.79256 14.5404C6.79256 14.5404 7.32536 13.1628 8.31816 13.1628C9.31096 13.1628 9.83656 14.5404 9.83656 14.5404C9.94187 14.3393 10.1013 14.1717 10.2967 14.0564C10.4922 13.941 10.716 13.8826 10.943 13.8876C11.4926 13.8876 11.8974 14.3748 12.1566 14.8268Z" fill="#0B4EA2"/>
</g>
<defs>
<clipPath id="clip0_1073_22121">
<rect width="24" height="24" fill="white"/>
</clipPath>
</defs>
</svg>
