<svg width="24" height="24" viewBox="0 0 24 24" fill="none" xmlns="http://www.w3.org/2000/svg">
<g clip-path="url(#clip0_1073_23471)">
<rect x="24" y="24" width="24" height="24" transform="rotate(180 24 24)" fill="#F4002F"/>
<path d="M14.9284 11.5947C14.9203 11.6731 14.9383 11.752 14.9795 11.8191C15.0207 11.8863 15.0829 11.938 15.1565 11.9662L16.2514 12.5267L16.1602 13.7748C16.1503 13.8503 16.165 13.9269 16.2021 13.9935C16.2391 14.06 16.2966 14.1129 16.3659 14.1443C16.4353 14.1757 16.5129 14.1839 16.5874 14.1679C16.6618 14.1518 16.7291 14.1122 16.7793 14.055L17.6689 13.1817L18.8127 13.6542C18.8791 13.6875 18.9539 13.7003 19.0276 13.691C19.1013 13.6817 19.1705 13.6508 19.2266 13.602C19.2791 13.5413 19.3116 13.4659 19.3198 13.386C19.328 13.3062 19.3113 13.2257 19.2722 13.1556L18.7313 12.0346L19.5199 11.0961C19.5753 11.0416 19.6118 10.9707 19.6241 10.8939C19.6364 10.8171 19.6238 10.7384 19.5883 10.6693C19.5557 10.6128 19.5069 10.5674 19.4482 10.5389C19.366 10.5041 19.2757 10.4928 19.1875 10.5063L17.9687 10.6725L17.3007 9.633C17.2611 9.57278 17.206 9.52435 17.1412 9.49281C17.0764 9.46127 17.0043 9.44779 16.9325 9.45378C16.8547 9.4685 16.7838 9.50834 16.7308 9.56721C16.6779 9.62608 16.6457 9.70071 16.6392 9.77965L16.4339 10.9853L15.2249 11.3112C15.1526 11.3229 15.0855 11.3562 15.0326 11.4069C14.9796 11.4575 14.9433 11.523 14.9284 11.5947Z" fill="white"/>
<path d="M13.7587 17.0138C12.9878 17.0198 12.2252 16.8548 11.5258 16.5307C10.8263 16.2065 10.2075 15.7313 9.71377 15.1393C9.22006 14.5472 8.86379 13.853 8.6706 13.1067C8.47741 12.3604 8.45212 11.5806 8.59654 10.8233C8.74097 10.0661 9.05151 9.35028 9.50582 8.72748C9.96013 8.10467 10.5469 7.59036 11.2239 7.22157C11.9008 6.85279 12.6511 6.63872 13.4208 6.59476C14.1904 6.55081 14.9603 6.67807 15.6748 6.96739C15.7377 6.9906 15.8069 6.99045 15.8698 6.967C15.9326 6.94355 15.9849 6.89834 16.0173 6.83957C16.0496 6.7808 16.0598 6.71238 16.046 6.64674C16.0322 6.5811 15.9953 6.52259 15.942 6.48184C14.9353 5.66611 13.7181 5.15222 12.4314 4.99963C11.1447 4.84705 9.84105 5.06203 8.67146 5.61968C7.50188 6.17733 6.51416 7.05486 5.82266 8.15064C5.13116 9.24642 4.76416 10.5156 4.76416 11.8114C4.76416 13.1071 5.13116 14.3763 5.82266 15.4721C6.51416 16.5679 7.50188 17.4454 8.67146 18.0031C9.84105 18.5607 11.1447 18.7757 12.4314 18.6231C13.7181 18.4705 14.9353 17.9566 15.942 17.1409C15.9951 17.0996 16.0315 17.0405 16.0446 16.9745C16.0577 16.9085 16.0467 16.84 16.0135 16.7815C15.9803 16.723 15.9271 16.6784 15.8637 16.6559C15.8004 16.6333 15.731 16.6343 15.6683 16.6586C15.0594 16.8948 14.4118 17.0152 13.7587 17.0138Z" fill="white"/>
</g>
<defs>
<clipPath id="clip0_1073_23471">
<rect width="24" height="24" rx="2" fill="white"/>
</clipPath>
</defs>
</svg>
